<svg xmlns="http://www.w3.org/2000/svg" viewBox="0 0 310.77 363.57"><defs><style>.a{fill:#78d0c5;stroke:#fff;stroke-miterlimit:10;}</style></defs><path class="a" d="M179.67,381.73s-13-23.18-14.18-25c-23.87-35-43.21-73.37-62.71-111C82.3,206.21,62.67,166.09,46,124.78c-2.32-5.74-4.62-11.72-4.35-17.91.39-9,6.4-17.13,14.14-21.74s17-6.08,26-6c33.5.19,60.27,20.78,79,47,1.81,2.54,10.65,16.37,10.75,16.56,2.69,4.72,69.47-68.37,74.59-75,7.85-10.22,15.22-20.9,24.53-29.81C287,22.18,309.06,15.6,331.06,22c6.35,1.86,12.73,5,16.39,10.47,3.46,5.19,4,11.75,3.92,18-.9,53.77-33,112.21-57.54,158.69-26.31,49.83-57.36,97.1-91.46,141.92C199.72,354.58,179.67,381.73,179.67,381.73Z" transform="translate(-41.12 -19.08)"/></svg>