<svg xmlns="http://www.w3.org/2000/svg" viewBox="0 0 500 500"><defs><style>.a{fill:#fff;}.b{fill:#c9e1cd;}.c{fill:#94c59c;}.d{fill:#5aa566;}</style></defs><path class="a" d="M329,245.82c-6.34,2.5-7.05,10.59-4.51,16.42a9.92,9.92,0,0,1,4.42.17,10.37,10.37,0,0,1,5.85,4.72,74.61,74.61,0,0,1,4.4,8.47l.68-.45a26.22,26.22,0,0,0,2.17-2.3,28.2,28.2,0,0,0,2-3.61,35.31,35.31,0,0,0,1.44-5.57,42.61,42.61,0,0,0,0-7.66,47.33,47.33,0,0,0-2.26-8.64c-.16-.38-.32-.76-.5-1.13-1.39-.16-2.81-.49-4.16-.77A16.84,16.84,0,0,0,329,245.82Z"/><path class="a" d="M349.15,417.36a10.09,10.09,0,0,1,6.93-3L363,414l29.93-1.64,5.48-.3L392,391.79l-7.83-25L377.7,346c-.91-2.89-1.81-5.78-2.72-8.66a10.64,10.64,0,0,1,2.52-10l.11-.12c2.4-2.7,4.88-5.34,7.32-8L400,302.64l17.4-19,11.8-12.92L412.41,260a10.6,10.6,0,0,1-4.34-11.89l-12.44-8.31a9.74,9.74,0,0,1-12.13,1.83l-2.28-1.46-16-10.14a10.31,10.31,0,0,1-4.85-8.87.91.91,0,0,1,0-.17c.13-4,.46-8.08.69-12.11.12-2,.23-4,.35-6C330.59,213,311.63,177,253.68,174.49c-8.74-.38-53.46-2.34-86.8,24.35-45.67,36.55-41.18,103.81-40.06,120.54,3.2,47.9,24,70.71,11.06,82.34-6.78,6.1-20.45,7-34.07,3.84l-2.15,6.87L137,414l25,1.14c5.49.25,9.55,4.51,9.79,10.28v.1l7.39.57A28.88,28.88,0,0,1,202,414.54c11.55,0,21.38,7.47,25,15.3l22.27,1.73,23.66-1.52c3.54-7.91,13.44-15.51,25.09-15.51a28.83,28.83,0,0,1,23.36,12.38l25-1.6c0-.23,0-.46-.05-.69A10.71,10.71,0,0,1,349.15,417.36ZM325.83,391a40.68,40.68,0,0,1-12,4.08c-.24.22-.46.46-.7.68a75.4,75.4,0,0,1-31.88,17.53c-11.47,3.05-23.55,3.87-35.35,3.56s-23.65-1.79-34.64-6.05a73.9,73.9,0,0,1-15.84-8.19,85.83,85.83,0,0,1-13.67-12.05,104.35,104.35,0,0,1-18.78-28.44,117.37,117.37,0,0,1-6.21-17.31,120.46,120.46,0,0,1-3.3-19.08,112,112,0,0,1,1.23-30.41,32.63,32.63,0,0,1-8.2-5.45c-4.51-4.07-7.53-9.7-9.51-15.51a45,45,0,0,1-2.17-14.64,54.44,54.44,0,0,1,2.33-15.38,53.3,53.3,0,0,1,19.17-27.57c8.1-6,18.91-8.48,28.53-5.64a31.06,31.06,0,0,1,16.81,12.76c1.11-.65,2.24-1.26,3.4-1.83a85,85,0,0,1,15.92-6,112.8,112.8,0,0,1,22.22-3.22,121.73,121.73,0,0,1,34.87,3,84.26,84.26,0,0,1,16.49,6q2,1,3.9,2.07A31.07,31.07,0,0,1,313,211.78c1.41-6.88,4.64-12.84,12.55-11,7.6,1.73,15.12,8.94,20,15a31.86,31.86,0,0,1,3.55,5.47,53.36,53.36,0,0,1,14.65,26.34,52.69,52.69,0,0,1,1.36,15.33,47.71,47.71,0,0,1-4,16.38,31.64,31.64,0,0,1-15.81,16,118.82,118.82,0,0,1,.63,35.51c2.05,8,3.53,16.08,2,23.92-1.38,7.1-4.54,13.69-8,19.94C336.29,381,332.06,387.43,325.83,391Z"/><path class="a" d="M293.73,369.23c4.35-2.6,9.15-4.28,13.51-6.85,7.53-4.41,12.23-11.49,9.37-20.58-2.49-7.89-8.8-14.12-10.44-22.35-1.5-7.51.87-15.19,2.59-22.65,3.3-14.29-.53-27.41-11.1-37.24-7.71-7.17-17.25-13.18-27.44-15.42s-20.13-3.69-29.46-9.1a2.34,2.34,0,0,1-1.2-1.2c0-.09,0-.17,0-.25-1.7.15-3.41.33-5.1.55-2.78.44-5.54,1-8.28,1.69a76.15,76.15,0,0,0-10.21,3.45,65.16,65.16,0,0,0-11.6,7,7.62,7.62,0,0,1-1.75,1.38L199.45,250a37.78,37.78,0,0,0-5.26,5.74c-1.1,1.53-2.17,3.07-3.23,4.62a10.19,10.19,0,0,1-3.51,3.69l-2.34,1a9.47,9.47,0,0,1-7.55-1,10.42,10.42,0,0,1-4.5-6.15,8.15,8.15,0,0,1-.18-4.1,7.91,7.91,0,0,1,1.17-3.82c2-2.91,4-5.78,6.13-8.59a44,44,0,0,1,3.32-4c.66-.68,1.35-1.33,2.06-2l-.25-.39a23.82,23.82,0,0,0-2.18-2.31,19.52,19.52,0,0,0-2.35-1.45,21.32,21.32,0,0,0-2.7-.78,22.44,22.44,0,0,0-3.28,0,27.08,27.08,0,0,0-4.13,1.2,31.35,31.35,0,0,0-4.68,2.89,39.38,39.38,0,0,0-5,5.3,45.1,45.1,0,0,0-4.14,7.45,47.33,47.33,0,0,0-2.26,8.64,42.61,42.61,0,0,0,0,7.66,35.31,35.31,0,0,0,1.44,5.57,28.2,28.2,0,0,0,2,3.61,26.22,26.22,0,0,0,2.17,2.3,21.6,21.6,0,0,0,2.34,1.44,21.58,21.58,0,0,0,2.75.78c.37,0,.75.05,1.13.06a10.31,10.31,0,0,1,9.45,13,105.75,105.75,0,0,0-2.66,13,107.45,107.45,0,0,0,0,23.85A103.64,103.64,0,0,0,179,349.78,98.66,98.66,0,0,0,189.76,369a88.26,88.26,0,0,0,13.18,14.05,63.49,63.49,0,0,0,11.59,7.07,80.56,80.56,0,0,0,18.53,5.12,132.43,132.43,0,0,0,34,0c1.63-.26,3.26-.56,4.87-.9C277.59,384.35,284.2,374.9,293.73,369.23Zm-31.41-17c-2.74,3.64-8.06,8.87-12.79,8.73s-8.61-5.07-11.36-8.43c-3.46-4.22-5.82-9.63-5.25-15.29.14-1.38.85-3.86,5-7.09,3.29-2.53,6.88-2.63,11.57-2.77,5.2-.14,9.72-.27,13.31,2.77,3.88,3.29,4.19,5.77,4.27,7.09A22.9,22.9,0,0,1,262.32,352.24Z"/><path class="a" d="M100.66,283.42c-2.12-9.19-6.86-16.71-12.72-23.13L75,268.49l-4.28,2.72,13.92,15.24,15.81,17.29A43.76,43.76,0,0,0,100.66,283.42Z"/><path class="a" d="M146.58,140.58l-11.89-4.15L136,159.11q.42,7.41.85,14.83c.43-.57.85-1.15,1.26-1.76C144.56,162.62,146.63,151.55,146.58,140.58Z"/><path class="b" d="M333.5,211.51A42.47,42.47,0,0,1,348,220.19c.37.32.73.66,1.09,1a31.86,31.86,0,0,0-3.55-5.47c-4.9-6-12.42-13.24-20-15-7.91-1.81-11.14,4.15-12.55,11a25.37,25.37,0,0,1,4.84-1.29A32.62,32.62,0,0,1,333.5,211.51Z"/><path class="b" d="M345.93,330.76a111.3,111.3,0,0,1-12.33,38.37A103,103,0,0,1,313.79,395a40.68,40.68,0,0,0,12-4.08c6.23-3.52,10.46-9.92,14.05-16.33,3.5-6.25,6.66-12.84,8-19.94C349.46,346.84,348,338.74,345.93,330.76Z"/><path class="b" d="M322.41,286.47a69.94,69.94,0,0,0-4.58-9c-2.94-4.86-.81-11.14,3.52-14.07a8.34,8.34,0,0,1,3.13-1.2c-2.54-5.83-1.83-13.92,4.51-16.42a16.84,16.84,0,0,1,9.52-.35c1.35.28,2.77.61,4.16.77a44.46,44.46,0,0,0-3.64-6.32,39.38,39.38,0,0,0-5-5.3,31.35,31.35,0,0,0-4.68-2.89,27.08,27.08,0,0,0-4.13-1.2,22.44,22.44,0,0,0-3.28,0,21.32,21.32,0,0,0-2.7.78,19.52,19.52,0,0,0-2.35,1.45,23.82,23.82,0,0,0-2.18,2.31,28.64,28.64,0,0,0-2,3.6c-.33.94-.64,1.89-.89,2.86a10.1,10.1,0,0,1-6.84,7.18,9.42,9.42,0,0,1-5.21,0,9.57,9.57,0,0,1-4-2.31A64.8,64.8,0,0,0,284,239.27a80.65,80.65,0,0,0-18.49-5.14,122.43,122.43,0,0,0-26-.54c0,.08,0,.16,0,.25a2.34,2.34,0,0,0,1.2,1.2c9.33,5.41,19.21,6.84,29.46,9.1s19.73,8.25,27.44,15.42c10.57,9.83,14.4,22.95,11.1,37.24-1.72,7.46-4.09,15.14-2.59,22.65,1.64,8.23,7.95,14.46,10.44,22.35,2.86,9.09-1.84,16.17-9.37,20.58-4.36,2.57-9.16,4.25-13.51,6.85-9.53,5.67-16.14,15.12-21.81,25.14a76.21,76.21,0,0,0,13.56-4.19,62.55,62.55,0,0,0,11.45-7,89.75,89.75,0,0,0,13.28-14.11A98.88,98.88,0,0,0,321,349.75a103.93,103.93,0,0,0,5.84-22.49,107,107,0,0,0,.07-23.26c0-.17-.09-.33-.12-.49A82.76,82.76,0,0,0,322.41,286.47Z"/><path class="c" d="M96.9,361.81,103.41,341c.34-1.08.68-2.16,1-3.23q-1.59-1.78-3.2-3.55l-9.47-10.36C79,345.15,59.45,363,68.08,381.71c3.17,6.86,9.56,12.59,17.31,16.88q1.85-5.86,3.68-11.74Z"/><path class="c" d="M280.67,110.17l12.26,21.16c2.85,4.92.88,11.09-3.52,14.06a9.56,9.56,0,0,1-7.54,1,10.29,10.29,0,0,1-5.86-4.72L271.53,134q-9.76-16.86-19.54-33.72c-1.26-2.19-2.53-4.37-3.8-6.56q-4,6.86-7.93,13.69l-12.73,22-10.47,18.08c-1.47,2.52-2.93,5.05-4.39,7.57a9.9,9.9,0,0,1-4.69,4.21,9,9,0,0,1-6.38.52l-.13-.05c-3.27-1-6.49-2.26-9.72-3.39l-20.11-7-23.12-8.05-1.94-.67c0,11-2,22-8.47,31.6-.41.61-.83,1.19-1.26,1.76q.41,7,.8,14,.69,11.91,1.37,23.83l.57,9.92a10.51,10.51,0,0,1-2.86,7.26,9.48,9.48,0,0,1-13.86,0,9.51,9.51,0,0,1-1.63-2.33l-13.63,9.26a.43.43,0,0,1,0,.07,10.94,10.94,0,0,1,1,7.92,10.61,10.61,0,0,1-4.5,6.14l-5.41,3.43-10.79,6.86c5.86,6.42,10.6,13.94,12.72,23.13a43.76,43.76,0,0,1-.17,20.32l1.59,1.73,14.44,15.8,6,6.53a10.64,10.64,0,0,1,2.52,10,.75.75,0,0,0,0,.16c-1,3.55-2.21,7.06-3.32,10.59l-6.81,21.77q-3.91,12.53-7.84,25-1.59,5.1-3.19,10.2c13.62,3.14,27.29,2.26,34.07-3.84,13-11.63-7.86-34.44-11.06-82.34-1.12-16.73-5.61-84,40.06-120.54,33.34-26.69,78.06-24.73,86.8-24.35C311.63,177,330.59,213,361.46,202.85L362.54,184q.84-14.42,1.66-28.82l1.11-19.22-27.26,9.49-20.63,7.18a9.44,9.44,0,0,1-7.55-1,10.4,10.4,0,0,1-4.5-6.15,11,11,0,0,1,1-7.92,10.44,10.44,0,0,1,5.85-4.72l4.68-1.63c-20.85-21.61-15.74-78.08-35-81.8-8.22-1.59-16.4,7.25-25.11,19.54l4.38,7.57Q270.91,93.31,280.67,110.17Z"/><path class="c" d="M385.73,121.56c-.14,4-.47,8.08-.7,12.11q-.72,12.47-1.43,24.92-.84,14.41-1.66,28.82l-.09,1.57c21.1-23.35,27.12-65.14,15.58-72.83-3.26-2.17-7.54-1.37-12.55.93a9.13,9.13,0,0,1,.86,4.31A1,1,0,0,0,385.73,121.56Z"/><path class="c" d="M179.76,130.49l19.1,6.65,1,.36c.44-.75.88-1.49,1.31-2.24l4.72-8.15a25.9,25.9,0,0,1-10.25,1.63c-27.41-1.31-44.26-47.25-54.1-43.59-5.35,2-.63,15.67,2.61,32.94l12.47,4.35Z"/><path class="c" d="M94.25,232.25c4.67-3,10.5-.95,13.36,3.62l13.63-9.26a12.42,12.42,0,0,1-1.24-4.93.91.91,0,0,0,0-.17c-.27-4-.46-8.08-.69-12.11l-1.17-20.32C89.65,203.44,49.69,199.74,46,217,43.65,227.71,57.53,235.54,72,246.37l7.34-4.67Z"/><path class="d" d="M262.84,330.16c-3.59-3-8.11-2.91-13.31-2.77-4.69.14-8.28.24-11.57,2.77-4.19,3.23-4.9,5.71-5,7.09-.57,5.66,1.79,11.07,5.25,15.29,2.75,3.36,6.77,8.29,11.36,8.43s10-5.09,12.79-8.73a22.9,22.9,0,0,0,4.79-15C267,335.93,266.72,333.45,262.84,330.16Z"/><path class="d" d="M207,235.75l.09.32c0,.06,0,.12,0,.18s0,.25.08.38a10.36,10.36,0,0,1,.19,2.87l0,.29a3.44,3.44,0,0,1-.05.45,8.44,8.44,0,0,1-.23,1.29,7.89,7.89,0,0,1-1.75,3.5,8.23,8.23,0,0,1-.83,1.09c.13-.11.26-.22.4-.32l-.34.27a1.14,1.14,0,0,0-.11.11l-.12.12a65.16,65.16,0,0,1,11.6-7l-.91.37,2.35-1c-.49.21-1,.43-1.44.66a76.15,76.15,0,0,1,10.21-3.45c-5.34,1.36-10.38-1.75-12-7.18-1.6-5.17,1.86-11.37,6.84-12.64A85,85,0,0,0,205,222c-1.16.57-2.29,1.18-3.4,1.83a39.83,39.83,0,0,1,5.26,11.48Z"/><path class="d" d="M204.56,246.07l.34-.27c-.14.1-.27.21-.4.32l-.05.06A1.14,1.14,0,0,1,204.56,246.07Z"/><path class="d" d="M215,239.65l.91-.37c.48-.23.95-.45,1.44-.66Z"/><path class="d" d="M179.47,350.91c-.15-.38-.28-.76-.43-1.13s-.38-.88-.56-1.32Z"/><path class="d" d="M169.55,232.18c.37-.16.74-.3,1.12-.45s.8-.41,1.22-.59Z"/><path class="d" d="M203.82,383.82c-.3-.24-.59-.5-.88-.74s-.74-.57-1.11-.87Z"/><path class="d" d="M233.26,234.28l1.16-.14,1.44-.23Z"/><path class="d" d="M173.45,230.67c.45-.06.9-.1,1.35-.14s.84-.17,1.26-.23Z"/><path class="d" d="M179.52,230.69c.43.19.85.4,1.26.62s.72.27,1.08.42Z"/><path class="d" d="M176.65,230.27c.48.07.95.16,1.43.26s.78.06,1.17.11Z"/><path class="d" d="M182,231.8c.38.31.74.63,1.1,1s.59.42.88.65Z"/><path class="d" d="M190.39,369.93l-.63-.9-.9-1.18Z"/><path class="d" d="M344.58,268c-.18.44-.38.87-.57,1.29s-.27.78-.42,1.17Z"/><path class="d" d="M342.8,271.84c-.26.34-.53.68-.8,1s-.47.72-.73,1.07Z"/><path class="d" d="M345.3,254.62c.05.46.09.92.13,1.39s.16.89.22,1.34C345.53,256.44,345.41,255.53,345.3,254.62Z"/><path class="d" d="M342.77,246.25h-.1c.18.37.34.75.5,1.13C343,247,342.91,246.62,342.77,246.25Z"/><path class="d" d="M268.26,395.12c-.4.06-.81.1-1.21.15l-1.4.22Z"/><path class="d" d="M343.74,248.67c-.32-.81-.65-1.62-1-2.42h0c.14.37.26.75.4,1.12S343.56,248.23,343.74,248.67Z"/><path class="d" d="M160.05,241.1c.29-.41.61-.79.92-1.18s.4-.61.61-.9Z"/><path class="d" d="M158.73,273.92c-.26-.35-.49-.71-.73-1.07s-.54-.67-.8-1Z"/><path class="d" d="M216,390.8l-1.42-.65-.92-.38Z"/><path class="d" d="M161.21,276.05c-.36-.29-.7-.59-1-.9s-.63-.46-.95-.71Z"/><path class="d" d="M339.2,275.72l1.58-1.28c-.32.25-.63.48-.95.71l-.64.55Z"/><path class="d" d="M163.77,277.2c-.43-.19-.85-.4-1.26-.61s-.73-.27-1.08-.43Z"/><path class="d" d="M173,304.86c.06-.49.14-1,.21-1.45s.09-.86.14-1.29C173.2,303,173.09,304,173,304.86Z"/><path class="d" d="M166.4,277.59l-1.14-.22c-.49,0-1-.08-1.46-.15Z"/><path class="d" d="M154.67,265c0-.43-.08-.85-.12-1.28s-.17-1-.23-1.45C154.44,263.13,154.55,264,154.67,265Z"/><path class="d" d="M156.26,248.67c.18-.44.38-.87.57-1.3s.27-.78.42-1.16Z"/><path class="d" d="M234.39,395.48l-1.33-.21-1.27-.16Z"/><path class="d" d="M173.33,328.54c-.05-.43-.09-.85-.14-1.28l-.21-1.45C173.1,326.72,173.22,327.63,173.33,328.54Z"/><path class="d" d="M154.35,257.35c.06-.45.15-.89.22-1.34s.08-.93.13-1.39C154.59,255.53,154.47,256.44,154.35,257.35Z"/><path class="d" d="M156.41,270.41c-.15-.39-.28-.78-.42-1.17s-.39-.85-.57-1.29Z"/><path class="d" d="M165,235.37c.33-.26.67-.5,1-.75s.65-.59,1-.86Z"/><path class="d" d="M345.68,262.22c-.06.49-.15,1-.23,1.45s-.07.85-.12,1.28C345.45,264,345.56,263.13,345.68,262.22Z"/><path class="d" d="M306.72,232.25a15,15,0,0,0,1.35-1.7,79,79,0,0,0-9.66-6.7,40.17,40.17,0,0,0-5.49,12.22Z"/><path class="d" d="M185.62,235.41l-1.13-1.53c.29.39.56.79.82,1.19l.29.36Z"/><path class="d" d="M185.6,235.43l-.29-.36.25.39Z"/><path class="d" d="M339.19,275.7l.64-.55-.68.45A.42.42,0,0,1,339.19,275.7Z"/><path class="d" d="M345.66,298a11,11,0,0,1,0,5.47l-1,2.45a9.27,9.27,0,0,1-3.87,3.85q.24,1.47.51,2.91c1.14,5.83,3.05,11.9,4.62,18a118.82,118.82,0,0,0-.63-35.51l-.12.05C345.35,296.21,345.52,297.13,345.66,298Z"/><path class="d" d="M350.82,241.22a8.79,8.79,0,0,1-3,4.07,7.47,7.47,0,0,1-5.09,1c.32.8.65,1.61,1,2.42-.18-.44-.38-.87-.57-1.3a47.33,47.33,0,0,1,2.26,8.64c0-.47-.08-.93-.13-1.39.11.91.23,1.82.35,2.73-.06-.45-.15-.9-.22-1.34a42.61,42.61,0,0,1,0,7.66c.08-.48.17-1,.23-1.45-.12.91-.23,1.82-.35,2.73.05-.43.08-.85.12-1.28a35.31,35.31,0,0,1-1.44,5.57c.19-.42.39-.85.57-1.29l-1,2.46c.15-.39.28-.78.42-1.17a28.2,28.2,0,0,1-2,3.61c.27-.33.54-.67.8-1l-1.53,2.08c.26-.35.49-.71.73-1.07a26.22,26.22,0,0,1-2.17,2.3c.32-.23.63-.46.95-.71l-1.58,1.28a82.81,82.81,0,0,1,3.59,9.62l.26-.36q1.27,4.66,2.12,9.44c.05.28.09.55.13.83a31.64,31.64,0,0,0,15.81-16,47.71,47.71,0,0,0,4-16.38,52.69,52.69,0,0,0-1.36-15.33,53.36,53.36,0,0,0-14.65-26.34C352.31,227.43,353.45,234.81,350.82,241.22Z"/><path class="d" d="M297.35,398.2c-9.45,2.63-18.72,5.89-28.22,8.32a2.32,2.32,0,0,1-2.25-.22c-.74-.75-.29-2.05.21-3,1.57-3,3.16-6,4.83-8.93-1.61.34-3.24.64-4.87.9.4,0,.81-.09,1.21-.15l-2.61.37,1.4-.22a132.43,132.43,0,0,1-34,0l1.33.21-2.6-.37,1.27.16a80.56,80.56,0,0,1-18.53-5.12l1.42.65-2.34-1,.92.38a63.49,63.49,0,0,1-11.59-7.07c.29.24.58.5.88.74l-2-1.61c.37.3.74.58,1.11.87A88.26,88.26,0,0,1,189.76,369l.63.9-1.53-2.08.9,1.18A98.66,98.66,0,0,1,179,349.78c.15.37.28.75.43,1.13l-1-2.45c.18.44.37.88.56,1.32a103.64,103.64,0,0,1-5.85-22.52c.05.43.09.85.14,1.28-.11-.91-.23-1.82-.35-2.73l.21,1.45a107.45,107.45,0,0,1,0-23.85c-.07.48-.15,1-.21,1.45.12-.91.23-1.83.35-2.74,0,.43-.09.86-.14,1.29a105.75,105.75,0,0,1,2.66-13,10.31,10.31,0,0,0-9.45-13c-.38,0-.76,0-1.13-.06l1.14.22-2.6-.37c.48.07,1,.11,1.46.15a21.58,21.58,0,0,1-2.75-.78c.41.21.83.42,1.26.61l-2.34-1c.35.16.72.29,1.08.43a21.6,21.6,0,0,1-2.34-1.44c.34.31.68.61,1,.9l-2-1.61c.32.25.63.48.95.71a26.22,26.22,0,0,1-2.17-2.3c.24.36.47.72.73,1.07l-1.53-2.08c.26.34.53.68.8,1a28.2,28.2,0,0,1-2-3.61c.14.39.27.78.42,1.17l-1-2.46c.18.44.38.87.57,1.29a35.31,35.31,0,0,1-1.44-5.57c0,.43.07.85.12,1.28-.12-.91-.23-1.82-.35-2.73.06.49.15,1,.23,1.45a42.61,42.61,0,0,1,0-7.66c-.07.45-.16.89-.22,1.34.12-.91.24-1.82.35-2.73,0,.46-.09.92-.13,1.39a47.33,47.33,0,0,1,2.26-8.64c-.19.43-.39.86-.57,1.3l1-2.46c-.15.38-.28.78-.42,1.16a45.1,45.1,0,0,1,4.14-7.45c-.31.39-.63.77-.92,1.18l1.53-2.08c-.21.29-.41.6-.61.9a39.38,39.38,0,0,1,5-5.3c-.33.25-.67.49-1,.75l2-1.61c-.33.27-.65.57-1,.86a31.35,31.35,0,0,1,4.68-2.89c-.38.15-.75.29-1.12.45l2.34-1c-.42.18-.82.39-1.22.59a27.08,27.08,0,0,1,4.13-1.2c-.45,0-.9.08-1.35.14l2.61-.37c-.42.06-.84.15-1.26.23a22.44,22.44,0,0,1,3.28,0c-.48-.1-1-.19-1.43-.26l2.6.37c-.39,0-.78-.08-1.17-.11a21.32,21.32,0,0,1,2.7.78c-.41-.22-.83-.43-1.26-.62l2.34,1c-.36-.15-.71-.29-1.08-.42a19.52,19.52,0,0,1,2.35,1.45c-.36-.33-.72-.65-1.1-1l2,1.61c-.29-.23-.58-.44-.88-.65a23.82,23.82,0,0,1,2.18,2.31c-.26-.4-.53-.8-.82-1.19l1.13,1.53c2.24-2,4.69-3.71,7.07-5.48l.17-.11a75.57,75.57,0,0,1,8.75-6,31.06,31.06,0,0,0-16.81-12.76c-9.62-2.84-20.43-.32-28.53,5.64a53.3,53.3,0,0,0-19.17,27.57,54.44,54.44,0,0,0-2.33,15.38,45,45,0,0,0,2.17,14.64c2,5.81,5,11.44,9.51,15.51a32.63,32.63,0,0,0,8.2,5.45q.91-5.22,2.3-10.29l9.44,13a30,30,0,0,1-11.74-2.72,112,112,0,0,0-1.23,30.41,120.46,120.46,0,0,0,3.3,19.08,117.37,117.37,0,0,0,6.21,17.31,104.35,104.35,0,0,0,18.78,28.44,85.83,85.83,0,0,0,13.67,12.05,73.9,73.9,0,0,0,15.84,8.19c11,4.26,23,5.75,34.64,6.05s23.88-.51,35.35-3.56a75.4,75.4,0,0,0,31.88-17.53c.24-.22.46-.46.7-.68-3.28.66-6.63,1.15-9.9,1.73C301.65,397.17,299.45,397.62,297.35,398.2Z"/><path class="d" d="M312.25,216.93c.17-1.71.41-3.46.75-5.15a31.07,31.07,0,0,0-14.59,12.07,79,79,0,0,1,9.66,6.7C310.63,226.75,311.79,221.63,312.25,216.93Z"/><path class="d" d="M343.05,285l-.26.36a87.45,87.45,0,0,1,2.39,10l.12-.05c0-.28-.08-.55-.13-.83Q344.33,289.65,343.05,285Z"/><path class="d" d="M157,285q-1.38,5.07-2.3,10.29A30,30,0,0,0,166.39,298Z"/><path class="d" d="M233,223.19c1.6,5.19-1.86,11.34-6.84,12.64,2.74-.7,5.5-1.25,8.28-1.69l-1.16.14,2.6-.37-1.44.23c1.69-.22,3.4-.4,5.1-.55a2.87,2.87,0,0,1,.82-1.83c3.17-3.91,5.81-7.72,11.08-8.27,3.68-.39,7.36.64,10.87,1.86,11.21,3.88,24.58,12.31,36.78,10.85a11.94,11.94,0,0,0,7.65-3.95l-13.8,3.82a40.17,40.17,0,0,1,5.49-12.22q-1.89-1.11-3.9-2.07a84.26,84.26,0,0,0-16.49-6,121.73,121.73,0,0,0-34.87-3A112.8,112.8,0,0,0,220.93,216C226.26,214.61,231.32,217.78,233,223.19Z"/><path class="d" d="M282.68,238.64c.46.2.91.42,1.36.63l1,.4Z"/><path class="d" d="M308.07,230.55a15,15,0,0,1-1.35,1.7l2.57-.72Z"/><path class="d" d="M295.13,245.81a3.88,3.88,0,0,0,.31.26c.11.12.24.22.36.33.44.34.88.67,1.31,1Z"/><path class="d" d="M264.22,233.92l1.33.21,1.27.16Z"/><path class="d" d="M311,368.08c-.24.34-.5.66-.75,1s-.51.73-.78,1.08Z"/><path class="d" d="M321.54,348.41l-.57,1.34-.42,1.11Z"/><path class="d" d="M327,304.86l-.07-.53s0-.07,0-.1Z"/><path class="d" d="M308.07,230.55l1.22,1-2.57.72a11.94,11.94,0,0,1-7.65,3.95c-12.2,1.46-25.57-7-36.78-10.85-3.51-1.22-7.19-2.25-10.87-1.86-5.27.55-7.91,4.36-11.08,8.27a2.87,2.87,0,0,0-.82,1.83,122.43,122.43,0,0,1,26,.54l-1.33-.21,2.6.37-1.27-.16A80.65,80.65,0,0,1,284,239.27c-.45-.21-.9-.43-1.36-.63l2.34,1-1-.4a64.8,64.8,0,0,1,11.76,7.13c-.12-.11-.25-.21-.36-.33a3.88,3.88,0,0,1-.31-.26l2,1.61c-.43-.35-.87-.68-1.31-1a9.57,9.57,0,0,0,4,2.31,9.42,9.42,0,0,0,5.21,0,10.1,10.1,0,0,0,6.84-7.18c.25-1,.56-1.92.89-2.86-.18.38-.35.76-.52,1.15l1-2.45c-.17.43-.32.86-.47,1.3a28.64,28.64,0,0,1,2-3.6c-.24.29-.48.59-.71.89l1.53-2.08c-.29.39-.56.79-.82,1.19a23.82,23.82,0,0,1,2.18-2.31c-.3.21-.59.42-.88.65l2-1.61c-.37.31-.74.63-1.1,1a19.52,19.52,0,0,1,2.35-1.45c-.37.13-.72.27-1.08.42l2.34-1c-.43.19-.85.4-1.26.62a21.32,21.32,0,0,1,2.7-.78c-.39,0-.78.06-1.17.11l2.6-.37c-.48.07-1,.16-1.43.26a22.44,22.44,0,0,1,3.28,0c-.42-.08-.84-.17-1.26-.23l2.61.37c-.45-.06-.9-.1-1.35-.14a27.08,27.08,0,0,1,4.13,1.2c-.4-.2-.8-.41-1.22-.59l2.34,1c-.37-.16-.74-.3-1.12-.45a31.35,31.35,0,0,1,4.68,2.89c-.33-.29-.65-.59-1-.86l2,1.61c-.33-.26-.67-.5-1-.75a39.38,39.38,0,0,1,5,5.3c-.2-.3-.4-.61-.61-.9L340,241.1c-.29-.41-.61-.79-.92-1.18a44.46,44.46,0,0,1,3.64,6.32h.1l0,0,0,0a7.47,7.47,0,0,0,5.09-1,8.79,8.79,0,0,0,3-4.07c2.63-6.41,1.49-13.79-1.7-20-.36-.34-.72-.68-1.09-1a42.47,42.47,0,0,0-14.53-8.68,32.62,32.62,0,0,0-15.66-1,25.37,25.37,0,0,0-4.84,1.29c-.34,1.69-.58,3.44-.75,5.15C311.79,221.63,310.63,226.75,308.07,230.55Z"/><path class="d" d="M333.6,369.13a111.3,111.3,0,0,0,12.33-38.37c-1.57-6.14-3.48-12.21-4.62-18q-.27-1.44-.51-2.91a12.56,12.56,0,0,1-2,.88,9.57,9.57,0,0,1-7.54-1,10.85,10.85,0,0,1-4.31-5.32l.07.53-.09-.63-.06-.23a107,107,0,0,1-.07,23.26c.07-.49.15-1,.21-1.47-.12.91-.23,1.82-.35,2.73.05-.42.09-.84.14-1.26A103.93,103.93,0,0,1,321,349.75l.57-1.34-1,2.45.42-1.11a98.88,98.88,0,0,1-10.76,19.33c.25-.34.51-.66.75-1l-1.53,2.08c.27-.35.52-.72.78-1.08a89.75,89.75,0,0,1-13.28,14.11c.35-.27.71-.54,1.05-.82L296,384l.93-.79a62.55,62.55,0,0,1-11.45,7c.34-.14.68-.27,1-.42l-2.34,1,1.33-.62a76.21,76.21,0,0,1-13.56,4.19c-1.67,2.95-3.26,6-4.83,8.93-.5.95-.95,2.25-.21,3a2.32,2.32,0,0,0,2.25.22c9.5-2.43,18.77-5.69,28.22-8.32,2.1-.58,4.3-1,6.54-1.44,3.27-.58,6.62-1.07,9.9-1.73A103,103,0,0,0,333.6,369.13Z"/><path class="d" d="M327,325.79c-.06.49-.14,1-.21,1.47s-.09.84-.14,1.26C326.79,327.61,326.9,326.7,327,325.79Z"/><path class="d" d="M312.18,239.82c.17-.39.34-.77.52-1.15s.3-.87.47-1.3Z"/><path class="d" d="M286.49,389.76c-.33.15-.67.28-1,.42l-1.33.62Z"/><path class="d" d="M298,382.37c-.34.28-.7.55-1.05.82L296,384Z"/><path class="d" d="M323.94,230.3c.42.06.84.15,1.26.23s.9.08,1.35.14Z"/><path class="d" d="M333,233.76c.33.27.65.57,1,.86s.67.49,1,.75Z"/><path class="d" d="M338.42,239c.21.29.41.6.61.9s.63.77.92,1.18Z"/><path class="d" d="M342.75,246.21l0,0h0Z"/><path class="d" d="M328.11,231.14c.42.18.82.39,1.22.59s.75.29,1.12.45Z"/><path class="d" d="M314,236c.23-.3.47-.6.71-.89s.53-.8.82-1.19Z"/><path class="d" d="M318.14,231.73c.36-.15.71-.29,1.08-.42s.83-.43,1.26-.62Z"/><path class="d" d="M320.75,230.64c.39,0,.78-.08,1.17-.11s.95-.19,1.43-.26Z"/><path class="d" d="M316,233.41c.29-.23.58-.44.88-.65s.73-.65,1.1-1Z"/><path class="d" d="M207.39,239.5a10.36,10.36,0,0,0-.19-2.87A12,12,0,0,1,207.39,239.5Z"/><path class="d" d="M200.24,228.89a10,10,0,0,1,5.85,4.72,8.59,8.59,0,0,1,.78,1.71,39.83,39.83,0,0,0-5.26-11.48,75.57,75.57,0,0,0-8.75,6C195,228.35,197.86,228.32,200.24,228.89Z"/><path class="d" d="M214.09,228.65c1.67,5.43,6.71,8.54,12,7.18,5-1.3,8.44-7.45,6.84-12.64-1.66-5.41-6.72-8.58-12-7.18C216,217.28,212.49,223.48,214.09,228.65Z"/><path class="d" d="M207.08,236.07l-.09-.32c0,.16.09.33.13.5C207.1,236.19,207.1,236.13,207.08,236.07Z"/><path class="d" d="M207.36,239.79c0,.15,0,.3-.05.45A3.44,3.44,0,0,0,207.36,239.79Z"/><path class="d" d="M337.49,276.59c.57-.31,1.12-.64,1.66-1a74.61,74.61,0,0,0-4.4-8.47,10.37,10.37,0,0,0-5.85-4.72,9.92,9.92,0,0,0-4.42-.17c.07.17.14.35.22.51,1.59,3.32,4.24,5.91,6.36,8.88a35,35,0,0,1,3.27,5.76l.41,0A21.58,21.58,0,0,0,337.49,276.59Z"/><path class="d" d="M324.16,290.44a10.31,10.31,0,0,1,9.45-13c.24,0,.48,0,.72,0a35,35,0,0,0-3.27-5.76c-2.12-3-4.77-5.56-6.36-8.88-.08-.16-.15-.34-.22-.51a8.34,8.34,0,0,0-3.13,1.2c-4.33,2.93-6.46,9.21-3.52,14.07a69.94,69.94,0,0,1,4.58,9l-.56-1.47,1,2.45c-.13-.33-.28-.65-.42-1a82.76,82.76,0,0,1,4.35,17c0,.16.08.32.12.49l-.06-.59A105.75,105.75,0,0,0,324.16,290.44Z"/><path class="d" d="M321.85,285l.56,1.47c.14.33.29.65.42,1Z"/><path class="d" d="M338.79,276.05l.41-.33v0C339.06,275.81,338.93,275.94,338.79,276.05Z"/><path class="d" d="M334.33,277.39l0,.05.39-.07Z"/><path class="d" d="M339.16,297.29a30.14,30.14,0,0,0,6-2,87.45,87.45,0,0,0-2.39-10l-4.46,6.15C338.65,293.41,338.91,295.35,339.16,297.29Z"/><path class="d" d="M344.67,306l1-2.45a11,11,0,0,0,0-5.47c-.14-.91-.31-1.83-.48-2.74a30.14,30.14,0,0,1-6,2c.54,4.2,1,8.42,1.64,12.52A9.27,9.27,0,0,0,344.67,306Z"/><path class="d" d="M338.57,276.16c-.35.16-.72.29-1.08.43s-.83.42-1.26.61Z"/><path class="d" d="M334.74,277.37l-.39.07,0,0,1.83-.26C335.72,277.29,335.23,277.33,334.74,277.37Z"/><path class="d" d="M339.19,275.7a.42.42,0,0,0,0-.1c-.54.35-1.09.68-1.66,1,.36-.14.73-.27,1.08-.43l-2.34,1c.43-.19.85-.4,1.26-.61a21.58,21.58,0,0,1-2.75.78c.49,0,1-.08,1.46-.15l-1.83.26a56.59,56.59,0,0,1,4,14l4.46-6.15a82.81,82.81,0,0,0-3.59-9.62l-.41.33C338.93,275.94,339.06,275.81,339.19,275.7Z"/><path class="d" d="M333.61,298a29.47,29.47,0,0,0,5.55-.7c-.25-1.94-.51-3.88-.83-5.8Z"/><path class="d" d="M333.61,298l4.72-6.5a56.59,56.59,0,0,0-4-14l-.77.11c.25,0,.5-.1.75-.15l0-.05c-.24,0-.48,0-.72,0a10.31,10.31,0,0,0-9.45,13,105.75,105.75,0,0,1,2.66,13c-.05-.43-.09-.86-.14-1.29.09.74.19,1.47.28,2.21a10.85,10.85,0,0,0,4.31,5.32,9.57,9.57,0,0,0,7.54,1,12.56,12.56,0,0,0,2-.88c-.66-4.1-1.1-8.32-1.64-12.52A29.47,29.47,0,0,1,333.61,298Z"/><path class="d" d="M326.82,303.41l.12.82s0,.06,0,.1c-.09-.74-.19-1.47-.28-2.21C326.73,302.55,326.77,303,326.82,303.41Z"/><path class="d" d="M333.6,277.59l.77-.11,0,0C334.1,277.49,333.85,277.55,333.6,277.59Z"/><path class="d" d="M326.88,304l.06.23-.12-.82Z"/><path class="d" d="M198.09,251.08c.45-.36.91-.7,1.36-1.05.21-.18.41-.38.62-.55Z"/><path class="d" d="M200.24,248.71a7.71,7.71,0,0,1-2.56.37h-.33a8.1,8.1,0,0,1-3.62-.86,8.45,8.45,0,0,1-1-.53,10,10,0,0,1-1.67-1.33l-.31-.28a8.82,8.82,0,0,1-1.81-2.65,9.39,9.39,0,0,1-.71-1.89c-.25-1-.56-1.92-.89-2.86a29.19,29.19,0,0,0-1.74-3.21c-.71.63-1.4,1.28-2.06,2a44,44,0,0,0-3.32,4c-2.12,2.81-4.15,5.68-6.13,8.59a7.91,7.91,0,0,0-1.17,3.82,8.15,8.15,0,0,0,.18,4.1,10.42,10.42,0,0,0,4.5,6.15,9.47,9.47,0,0,0,7.55,1l2.34-1a10.19,10.19,0,0,0,3.51-3.69c1.06-1.55,2.13-3.09,3.23-4.62l-.66.85c.51-.69,1-1.38,1.54-2.08l-.88,1.23a37.78,37.78,0,0,1,5.26-5.74c-.45.35-.91.69-1.36,1.05l2-1.6c-.21.17-.41.37-.62.55l3.13-2.35a7.62,7.62,0,0,0,1.75-1.38l-.14.11A9.62,9.62,0,0,1,200.24,248.71Z"/><path class="d" d="M193.53,256.62l.66-.85.88-1.23C194.56,255.24,194,255.93,193.53,256.62Z"/><path class="d" d="M200.24,248.71a9.62,9.62,0,0,0,3.95-2.3c-.42.33-.85.65-1.27,1l1.58-1.28a8.23,8.23,0,0,0,.83-1.09,7.89,7.89,0,0,0,1.75-3.5,8.44,8.44,0,0,0,.23-1.29A10.57,10.57,0,0,1,200.24,248.71Z"/><path class="d" d="M204.33,246.3l.12-.12-.26.23Z"/><path class="d" d="M207.12,236.25c0,.13,0,.25.08.38C207.17,236.5,207.15,236.37,207.12,236.25Z"/><path class="d" d="M207.39,239.5l0,.29Z"/><path class="d" d="M204.19,246.41l.26-.23.05-.06-1.58,1.28C203.34,247.06,203.77,246.74,204.19,246.41Z"/><path class="d" d="M197.68,249.08a2.08,2.08,0,0,0-.25,0h.25Z"/><path class="d" d="M193.73,248.21a8.1,8.1,0,0,0,3.62.86A10.32,10.32,0,0,1,193.73,248.21Z"/><path class="d" d="M191,246.35a10.61,10.61,0,0,1-2.12-2.93,8.82,8.82,0,0,0,1.81,2.65Z"/><path class="d" d="M206.87,235.32l.12.43Z"/><path class="d" d="M192.69,247.68a8.45,8.45,0,0,0,1,.53,11.65,11.65,0,0,1-2.71-1.86A10,10,0,0,0,192.69,247.68Z"/><path class="d" d="M197.68,249.08a7.71,7.71,0,0,0,2.56-.37Z"/><path class="d" d="M197.43,249.08h0Z"/><path class="d" d="M186,236l-.4-.55,0,0C185.74,235.61,185.89,235.78,186,236Z"/><path class="d" d="M186.83,237.37c.17.43.32.86.47,1.3s.35.76.52,1.15Z"/><path class="d" d="M185.6,235.43l0,0a29.19,29.19,0,0,1,1.74,3.21c-.15-.44-.3-.87-.47-1.3l1,2.45c-.17-.39-.34-.77-.52-1.15.33.94.64,1.89.89,2.86a9.39,9.39,0,0,0,.71,1.89,11.34,11.34,0,0,1-1.06-4.62c0-2.31,1-5.77,2.87-7.27.71-.58,1.43-1.15,2.15-1.71l-.17.11c-2.38,1.77-4.83,3.51-7.07,5.48l.4.55C185.89,235.78,185.74,235.61,185.6,235.43Z"/><path class="d" d="M187.84,238.8a11.34,11.34,0,0,0,1.06,4.62,10.61,10.61,0,0,0,2.12,2.93,11.65,11.65,0,0,0,2.71,1.86,10.32,10.32,0,0,0,3.62.86h.08a2.08,2.08,0,0,1,.25,0l2.56-.37a10.57,10.57,0,0,0,7.07-8.47c0-.15,0-.3.05-.45l0-.29a12,12,0,0,0-.19-2.87c0-.13,0-.25-.08-.38s-.09-.34-.13-.5l-.12-.43a8.59,8.59,0,0,0-.78-1.71,10,10,0,0,0-5.85-4.72c-2.38-.57-5.27-.54-7.38.93-.72.56-1.44,1.13-2.15,1.71C188.87,233,187.84,236.49,187.84,238.8Z"/><path class="d" d="M62.25,261.91l-.1-.11-2,16.14,10.59-6.73-1.19-1.29C67.13,267.25,64.75,264.52,62.25,261.91Z"/><path class="d" d="M84.68,286.45,70.76,271.21l-10.59,6.73,2-16.14.1.11c2.5,2.61,4.88,5.34,7.32,8l1.19,1.29L75,268.49l12.9-8.2A112.86,112.86,0,0,0,72,246.37L55.68,256.76l-5.4,3.43a10.72,10.72,0,0,0-2,16.15q3,3.26,6,6.53,7.21,7.9,14.44,15.79l17.4,19,5.64,6.17a71.88,71.88,0,0,0,8.74-20.12Z"/><path class="d" d="M88.34,411.82l9.44,13q1.36-4.33,2.71-8.66l1.17-3.74-4.27-.2Z"/><path class="d" d="M162,415.18,137,414l-35.3-1.61-1.17,3.74q-1.35,4.32-2.71,8.66l-9.44-13,9,.41,4.27.2,2.15-6.87a71.6,71.6,0,0,1-18.42-7q-1.58,5-3.14,10c-1.1,3.52-2.29,7-3.31,10.59l0,.15a10.29,10.29,0,0,0,1.75,9,9.71,9.71,0,0,0,7.7,4.05l25,1.14,39.57,1.8,9.06.41c5.09.24,10-4.83,9.79-10.17l-13.75-1.07,13.75,1.07v-.1C171.56,419.69,167.5,415.43,162,415.18Z"/><path class="d" d="M108.64,342.34l-2.52-10q-.84,2.71-1.7,5.43c1.36,1.5,2.72,3,4.12,4.45Z"/><path class="d" d="M87.94,260.29l10.79-6.86,5.41-3.43a10.61,10.61,0,0,0,4.5-6.14,10.94,10.94,0,0,0-1-7.92.43.43,0,0,0,0-.07l-10,6.77,10-6.77c-2.86-4.57-8.69-6.59-13.36-3.62L79.37,241.7,72,246.37A112.86,112.86,0,0,1,87.94,260.29Z"/><path class="d" d="M107,395.36q3.93-12.51,7.84-25l6.81-21.77c1.11-3.53,2.29-7,3.32-10.59a.75.75,0,0,1,0-.16,10.64,10.64,0,0,0-2.52-10l-6-6.53-14.44-15.8-1.59-1.73a71.88,71.88,0,0,1-8.74,20.12l9.47,10.36q1.61,1.77,3.2,3.55.85-2.72,1.7-5.43l2.52,10-.1-.12c-1.4-1.46-2.76-3-4.12-4.45-.33,1.07-.67,2.15-1,3.23L96.9,361.81l-7.83,25q-1.84,5.86-3.68,11.74a71.6,71.6,0,0,0,18.42,7Q105.42,400.46,107,395.36Z"/><path class="d" d="M244.44,87.22l-4.7-8.13h10.08c2.35-3.56,4.66-7,6.93-10.21l-.1-.17a9.66,9.66,0,0,0-16.91,0l-4.39,7.58L224.87,94.37l-12.73,22c-2.08,3.6-4.16,7.18-6.24,10.77C220.59,121.77,233.1,104.28,244.44,87.22Z"/><path class="d" d="M133.87,122.08a.91.91,0,0,1,0-.17l-12.4,9.91,8,2.77,5.28,1.84c0-.74-.08-1.49-.13-2.24C134.33,130.16,134.19,126.11,133.87,122.08Z"/><path class="d" d="M239.74,79.09l4.7,8.13c1.82-2.74,3.61-5.47,5.38-8.13Z"/><path class="d" d="M136.85,173.94q-.42-7.41-.85-14.83l-1.31-22.68-5.28-1.84-8-2.77,12.4-9.91a.91.91,0,0,0,0,.17c.32,4,.46,8.08.69,12.11.05.75.09,1.5.13,2.24l11.89,4.15a126.35,126.35,0,0,0-2.42-22.49l-7.64-2.66c-3.23-1.12-6.45-2.34-9.72-3.38l-.13,0c-5.82-2-12.78,3.44-12.41,9.91q.3,5,.58,9.92.68,11.91,1.37,23.83l1.65,28.82.27,4.6A52.11,52.11,0,0,0,136.85,173.94Z"/><path class="d" d="M120,221.51a.91.91,0,0,1,0,.17,12.42,12.42,0,0,0,1.24,4.93l9.41-6.39-9.41,6.39a9.51,9.51,0,0,0,1.63,2.33,9.48,9.48,0,0,0,13.86,0,10.51,10.51,0,0,0,2.86-7.26l-.57-9.92q-.68-11.92-1.37-23.83-.39-7-.8-14a52.11,52.11,0,0,1-18.72,15.14l1.17,20.32C119.53,213.43,119.72,217.47,120,221.51Z"/><path class="d" d="M256.58,79.22l.07-.13h-6.83c-1.77,2.66-3.56,5.39-5.38,8.13l3.75,6.47,3-5.22C253,85.39,254.86,82.34,256.58,79.22Z"/><path class="d" d="M146.58,140.58l1.94.67,23.12,8.05,20.11,7c3.23,1.13,6.45,2.4,9.72,3.39l.13.05a9,9,0,0,0,6.38-.52,9.9,9.9,0,0,0,4.69-4.21c1.46-2.52,2.92-5,4.39-7.57l10.47-18.08,12.73-22q4-6.84,7.93-13.69l-3.75-6.47c-11.34,17.06-23.85,34.55-38.54,39.89l-4.72,8.15c-.43.75-.87,1.49-1.31,2.24l6.94,2.41-11.06,4.73.08-.13c1.3-2.37,2.67-4.69,4-7l-1-.36-19.1-6.65-23.13-8.05-12.47-4.35A126.35,126.35,0,0,1,146.58,140.58Z"/><path class="d" d="M256.65,79.09l-.07.13c-1.72,3.12-3.58,6.17-5.36,9.25l-3,5.22c1.27,2.19,2.54,4.37,3.8,6.56q9.78,16.86,19.54,33.72l4.48,7.74a10.29,10.29,0,0,0,5.86,4.72,9.56,9.56,0,0,0,7.54-1c4.4-3,6.37-9.14,3.52-14.06l-12.26-21.16q-9.76-16.86-19.54-33.72l-4.38-7.57c-2.27,3.21-4.58,6.65-6.93,10.21Z"/><path class="d" d="M195.75,144.64l11.06-4.73-6.94-2.41c-1.37,2.32-2.74,4.64-4,7Z"/><path class="d" d="M366.14,121.39l-.4,7q2.61-1.59,5.12-3.17Z"/><path class="d" d="M375.15,212.28q2.42,4.44,4.85,8.88c.11-1.87.21-3.73.32-5.59l-2.89-1.84Z"/><path class="d" d="M327,137.84c12.91,4.65,26.54-2.13,38.7-9.5l.4-7,4.72,3.78a134.12,134.12,0,0,1,14-8.09c-2-4.31-7.1-7.14-11.55-5.6l-20.62,7.19L319.8,130.13l-2.91,1A26.61,26.61,0,0,0,327,137.84Z"/><path class="d" d="M361.53,202.83l-.07,0c-.12,2-.23,4-.35,6-.23,4-.56,8.07-.69,12.11a.91.91,0,0,0,0,.17,10.31,10.31,0,0,0,4.85,8.87l16,10.14,2.28,1.46a9.74,9.74,0,0,0,12.13-1.83l-13.39-9,13.39,9a9,9,0,0,0,1.28-1.86,10.78,10.78,0,0,0-3.52-14.06l-13.07-8.31c-.11,1.86-.21,3.72-.32,5.59q-2.43-4.44-4.85-8.88l2.28,1.45,2.89,1.84c.08-1.44.17-2.89.25-4.33q.65-11.13,1.28-22.26C376.16,195.28,369.37,200.24,361.53,202.83Z"/><path class="d" d="M306.36,137.49a11,11,0,0,0-1,7.92,10.4,10.4,0,0,0,4.5,6.15,9.44,9.44,0,0,0,7.55,1l20.63-7.18,27.26-9.49c.09-1.54.17-3.07.26-4.6.06-1,.12-2,.17-3-12.16,7.37-25.79,14.15-38.7,9.5a26.61,26.61,0,0,1-10.15-6.7l-4.68,1.63A10.44,10.44,0,0,0,306.36,137.49Z"/><path class="d" d="M378.54,131.31l-7.68-6.14q-2.5,1.58-5.12,3.17c-.05,1-.11,2-.17,3-.09,1.53-.17,3.06-.26,4.6l5.64-2Z"/><path class="d" d="M378.54,131.31,371,134l-5.64,2-1.11,19.22q-.82,14.42-1.66,28.82l-1.08,18.89.07,0c7.84-2.59,14.63-7.55,20.32-13.85l.09-1.57q.82-14.41,1.66-28.82.7-12.47,1.43-24.92c.23-4,.56-8.07.7-12.11a1,1,0,0,1,0-.17,9.13,9.13,0,0,0-.86-4.31,134.12,134.12,0,0,0-14,8.09Z"/><path class="d" d="M402.17,424.16s0,.1.05.15l9.44-13-13.29.73.48,1.53C400,417.09,401,420.66,402.17,424.16Z"/><path class="d" d="M439.83,277.42l-2-16.14-6,6.54-2.64,2.87,7.17,4.56Z"/><path class="d" d="M393.88,331.82l-2.52,10,4.23-4.63q-.79-2.62-1.66-5.22A.88.88,0,0,1,393.88,331.82Z"/><path class="d" d="M449.72,259.67l-24-15.25-3.42-2.17a9.64,9.64,0,0,0-13.4,3.68,11.35,11.35,0,0,0-.83,2.18L429,262.06l-20.88-13.95A10.6,10.6,0,0,0,412.41,260l16.83,10.69,2.64-2.87,6-6.54,2,16.14-3.42-2.17-7.17-4.56-11.8,12.92-17.4,19-15.11,16.53c-2.44,2.66-4.92,5.3-7.32,8l-.11.12a10.64,10.64,0,0,0-2.52,10c.91,2.88,1.81,5.77,2.72,8.66l6.51,20.8,7.83,25L398.37,412l13.29-.73-9.44,13c0-.05,0-.1-.05-.15-1.18-3.5-2.21-7.07-3.32-10.6l-.48-1.53-5.48.3L363,414l-6.88.38a10.09,10.09,0,0,0-6.93,3,10.71,10.71,0,0,0-2.87,7.27c0,.23,0,.46.05.69l12.87-.83-12.87.83a10.3,10.3,0,0,0,2.82,6.57,9.61,9.61,0,0,0,6.93,3l18.77-1,29.93-1.64,6.88-.38a9.71,9.71,0,0,0,7.7-4.05,10.27,10.27,0,0,0,1.75-9c-.9-2.89-1.81-5.78-2.71-8.67l-6.51-20.8q-3.92-12.53-7.84-25l-6.81-21.77c-.56-1.79-1.1-3.59-1.65-5.38l-4.23,4.63,2.52-10a.88.88,0,0,0,.05.15q.87,2.59,1.66,5.22l1.74-1.9,14.44-15.8,17.4-19,15.12-16.54c2.43-2.66,4.91-5.29,7.31-8l.11-.11A10.72,10.72,0,0,0,449.72,259.67Z"/><path class="d" d="M202,414.54a28.88,28.88,0,0,0-22.8,11.59l47.8,3.71C223.37,422,213.54,414.54,202,414.54Z"/><path class="d" d="M175.48,436.05c0,9.52,11.87,12.55,26.51,12.55s26.5-3,26.5-12.55a14.88,14.88,0,0,0-1.5-6.21l-47.8-3.71A17.37,17.37,0,0,0,175.48,436.05Z"/><path class="d" d="M271.51,436.05c0,9.52,11.87,12.55,26.5,12.55s26.51-3,26.51-12.55a16.81,16.81,0,0,0-3.15-9.13l-48.45,3.13A14.74,14.74,0,0,0,271.51,436.05Z"/><path class="d" d="M298,414.54c-11.65,0-21.55,7.6-25.09,15.51l48.45-3.13A28.83,28.83,0,0,0,298,414.54Z"/></svg>