<svg xmlns="http://www.w3.org/2000/svg" viewBox="0 0 500 500"><defs><style>.a{fill:#fff;}.b{fill:#bde8e3;}.c{fill:#98dbd3;}.d{fill:#d5f0ed;}.e{fill:#78d0c5;}</style></defs><path class="a" d="M139.62,226.56c-2.29,1.54-4.6,3.19-6.88,4.9l-1.29,1-2.07,1.63c-1.58,1.26-3.2,2.48-4.78,3.65l-.23.18-.34.27c-.44.36-.88.72-1.31,1.09-.8.67-1.57,1.36-2.34,2.06-1.49,1.36-3,2.86-4.54,4.44-2.81,2.93-5.58,6.1-8.45,9.71-.36.44-.71.89-1.06,1.34l-1.7,2.25c-1,1.4-2.07,2.85-3.1,4.33-.67,1-1.34,1.93-2,2.9,4.39,3.93,8.89,7.7,13.38,11.23l1.39,1.05c.79.59,1.59,1.18,2.4,1.76,1.82,1.32,3.52,2.49,5.17,3.56a63.28,63.28,0,0,0,8.85,5A113.35,113.35,0,0,0,157,296.24a76.07,76.07,0,0,0,9.16.55,73.36,73.36,0,0,0,8.42-.48,68.55,68.55,0,0,0,15.31-4.15,66.69,66.69,0,0,0,9.18-5c1.55-1,3.14-2.1,4.74-3.29.28-.2.54-.4.81-.61l.26-.2c.77-.61,1.53-1.23,2.29-1.86,5.92-4.92,11.59-10.39,17.07-15.68l.76-.73a222.63,222.63,0,0,0,16.15-17.18c.91-1.08,1.81-2.17,2.7-3.28l.56-.72.66-.84.19-.25c1.27-1.68,2.37-3.22,3.39-4.72.8-1.19,1.72-2.53,2.45-3.88a9.09,9.09,0,0,1,1.25-1.73c-2.29-.26-5.21-.58-9.07-1-12.09-1.49-20.59-5.66-28.29-9.44-8.43-4.13-25-8.58-37.25-12.05a95.17,95.17,0,0,0-17,5.24A132.36,132.36,0,0,0,139.62,226.56Zm74.5,1.13a10.26,10.26,0,0,1,6.43,2.7,9.45,9.45,0,0,1,.07,13.42,9.68,9.68,0,0,1-6.32,2.79h0a5.12,5.12,0,0,1-.56,0c-2.68-.25-5.41-.38-8.1-.38a85.16,85.16,0,0,0-10.34.63,81.44,81.44,0,0,0-18.59,5.05,79.28,79.28,0,0,0-14.92,8.58l-.89.65-1.05.85c-.94.77-1.89,1.58-2.81,2.4-1.57,1.42-3.14,2.95-4.66,4.55a8.94,8.94,0,0,1-6.54,2.76A10.22,10.22,0,0,1,139,269a8.78,8.78,0,0,1-2.78-6.23,10,10,0,0,1,2.69-7.17,96.11,96.11,0,0,1,13.63-11.74,91.45,91.45,0,0,1,52.88-16.58C208.34,227.28,211.26,227.42,214.12,227.69Z"/><path class="a" d="M287.65,429.69l.24.14a25.75,25.75,0,0,0,4.17,1,49.23,49.23,0,0,0,5.48.3,48.65,48.65,0,0,0,5.29-.29c.84-.14,1.61-.29,2.33-.48.13-.59.25-1.23.37-2a113.72,113.72,0,0,0,.61-12.39c0-4,0-8.09-.1-12.14a188.77,188.77,0,0,1-18.87,25c.14.27.28.54.44.8Z"/><path class="a" d="M397.48,106.47a201.43,201.43,0,0,0,3.77-20.06c.64-5,1.14-10,1.49-15.09L401,71.11c-6.66-.8-13.55-1.63-20.32-2-3.19-.16-6.36-.24-9.41-.24-1.83,0-3.63,0-5.42.09C382.22,79.6,395.38,95.6,397.48,106.47Z"/><path class="a" d="M306.43,314.61c-1.4-10.26-3.07-22.2-5.31-33.94a220.63,220.63,0,0,0-12.21-42c-.37-.92-.75-1.84-1.13-2.75l-.44-1c-.79-1.86-1.61-3.72-2.43-5.58-.57-1.3-1.18-2.61-1.78-3.91a90.9,90.9,0,0,1-4.63-11.27,46.77,46.77,0,0,1-2.11-15.48,32.91,32.91,0,0,1,1-7.47,9.56,9.56,0,0,1,8.84-6.94h.36c.53,0,1.06,0,1.59,0l2.5,0A175.43,175.43,0,0,0,313,182.73a164.13,164.13,0,0,0,18.55-3.67c3.45-.9,6.82-1.91,10-3,1.64-.57,3.26-1.16,4.8-1.77l1.91-.77c.54-.23,1.13-.51,1.72-.78l.13-.06a69.12,69.12,0,0,0,7.06-3.76c1.19-.73,2.39-1.52,3.56-2.33.48-.33.95-.67,1.42-1l.86-.64a4.78,4.78,0,0,1,.5-.33,73.75,73.75,0,0,0,9.77-9.42c.83-.93,1.67-1.91,2.48-2.9.23-.27.44-.54.66-.81l.63-.81c1.36-1.8,2.55-3.47,3.64-5.11a115.63,115.63,0,0,0,6-10.09c1.32-2.5,2.59-5.11,3.77-7.77.27-.61.54-1.23.8-1.85l.36-.87c.22-.54.44-1.09.65-1.64.52-1.33,1-2.71,1.5-4.11.41-1.19.8-2.38,1.18-3.6-7.82,5.37-31-3.82-59.83,6.76-.31.28-.62.52-.89.72a4,4,0,0,0-.39.3,60.81,60.81,0,0,0-4.77,4.45c-1,1-1.86,2.08-2.8,3.21-.17.19-.62.73-.66.78-.16.2-.41.49-.53.65l-.87,1.23c-.49.7-1,1.42-1.42,2.14a62.8,62.8,0,0,0-4.29,8.09,61.38,61.38,0,0,0-3.28,11c-.91,4.61-5.41,7-9.38,7h0a9.87,9.87,0,0,1-2.19-.25,9.47,9.47,0,0,1-5.74-4.36,10,10,0,0,1-1-7.14c.16-.78.34-1.56.52-2.33-9,9.07-14.22,15.65-20.19,12.29l-.11-.07a.17.17,0,0,0,0,.07c.2,1.19.48,2.35.75,3.43a9.64,9.64,0,0,1-6.53,11.55,8.44,8.44,0,0,1-2.55.4,9.61,9.61,0,0,1-9.18-7l-.3-1.19c0-.15-.07-.3-.1-.45-.14-.59-.27-1.24-.39-1.89a55,55,0,0,1-.75-9l-5.68-5a7.54,7.54,0,0,1-.52.63,9.5,9.5,0,0,1-6.74,2.83,10,10,0,0,1-6.59-2.67l-.29-.27-.07-.05c-.48-.34-1-.66-1.47-.95-.12-.08-.25-.15-.38-.22a69,69,0,0,0,3.71,12.94,51.09,51.09,0,0,0,5.27,8.84l.69.84,1.38,1.67.59.7c.78.93,1.57,1.87,2.33,2.81a64.94,64.94,0,0,1,6.83,9.88,46.23,46.23,0,0,1,5.73,19.34c24.46,21.53,31.82,51,33,56.1,4.52,19.29.8,28.89-.49,41.21.1,1.21.19,2.42.26,3.63a108,108,0,0,1-.09,12.36,88.26,88.26,0,0,0,2.68,12.76,124.21,124.21,0,0,0,8.29,21.25,9.46,9.46,0,0,1,8.43-5.78V321.77a10,10,0,0,1-4.17-1.24C309.25,319.61,306.79,317.27,306.43,314.61ZM266.69,196.16c-.27-.58-.48-1-.63-1.4l1.85-.83h0l1.85-.84v0c.15.32.34.77.6,1.32Z"/><path class="b" d="M328.37,56.77c-20.52-1.07-42.85,6.15-54.25,29.14-5.25,10.61-7.72,23.62-8,35.83A136.49,136.49,0,0,1,289.58,84.8C300.79,72.17,314.18,62.51,328.37,56.77Z"/><path class="b" d="M337.16,73.58c-1,.35-2.05.74-3.08,1.16l-.71.31-1,.45c-2,.94-4.06,2-6.05,3.15-1.78,1-3.56,2.13-5.3,3.3-.87.59-1.73,1.19-2.57,1.81-.43.3-.85.62-1.27.93l-.19.14a111,111,0,0,0-9.06,8.06,117.8,117.8,0,0,0-8.52,9.48l-1,1.24q-1,1.27-1.89,2.55c-1.19,1.66-2.36,3.36-3.47,5.06-2.21,3.41-4.28,6.94-6.13,10.5-.93,1.78-1.81,3.58-2.63,5.37-.38.82-.74,1.64-1.1,2.47-.18.42-.34.82-.5,1.22A87,87,0,0,0,277.32,150a46.36,46.36,0,0,0-.18,10.07l.11.07c6,3.36,11.2-3.22,20.19-12.29a66.13,66.13,0,0,1,3-9.4,72.54,72.54,0,0,1,9.05-16.53,75.06,75.06,0,0,1,17.06-16.62,69.74,69.74,0,0,1,29-11.75,13.65,13.65,0,0,1,2.29-.2,9.76,9.76,0,0,1,4.69,1.16,9.47,9.47,0,0,1,4.4,5.6,9.61,9.61,0,0,1-.93,7.37,9.4,9.4,0,0,1-5.87,4.39,62.15,62.15,0,0,0-13.31,3.71,61.53,61.53,0,0,0-9.07,5c-.78.52-1.57,1.07-2.35,1.64l-.12.09a1,1,0,0,1-.11.1c28.86-10.58,52-1.39,59.83-6.76.92-2.93,1.75-6,2.53-9.13C395.38,95.6,382.22,79.6,365.8,69c-4.69.15-9.26.5-13.61,1.05A78.68,78.68,0,0,0,337.16,73.58Z"/><path class="c" d="M281.54,255.9a149.39,149.39,0,0,1,11,30.59,129.74,129.74,0,0,1,2.88,18.12c1.29-12.32,5-21.92.49-41.21-1.2-5.12-8.56-34.57-33-56.1.06,1.24.08,2.46,0,3.66a9.67,9.67,0,0,1-9.45,9.34A9.83,9.83,0,0,1,251,220c-1.12-.31-2.26-.59-3.39-.88-6.22-1.58-12.68-3.09-19.74-4.61-10.42-2.24-19.84-4.21-29.48-5.57a67,67,0,0,0-8-.47,71.13,71.13,0,0,0-8.57.52c-1.36.2-2.73.45-4.11.73,12.26,3.47,28.82,7.92,37.25,12.05,7.7,3.78,16.2,7.95,28.29,9.44,3.86.47,6.78.79,9.07,1a9.25,9.25,0,0,1,6.89-2.93,10.27,10.27,0,0,1,4.75,1.17,8.76,8.76,0,0,1,4.26,5.28,10.11,10.11,0,0,1,.41,2.67c2.24,1.77,4.29,4.74,5.15,12.69a9.11,9.11,0,0,1,7.77,4.79Z"/><path class="c" d="M241.11,198.05a45,45,0,0,0-2.69-4.53c-.17-.25-.35-.49-.52-.73-9.53-2.64-19.48-2.56-29-1.2,4.72.81,9.6,1.72,14.52,2.7C230.07,195.62,235.79,196.83,241.11,198.05Z"/><path class="c" d="M266.74,411.24c.5-14,2.48-28.08,4.4-41.71q.69-4.84,1.34-9.67c.79-5.84,1.36-10.33,1.87-14.56l0-.35c1.72-14.4,3.5-29.29,1.72-43.8a119.11,119.11,0,0,0-3.27-15.27c-.79,19.79,1.45,37.74-3.66,60.06-10.28,44.89-7.79,52.93-7.07,65.24,1.08,18.65-.64,33.72,10.22,29.56a27.85,27.85,0,0,1-4.2-9.72C266.52,424,266.54,416.78,266.74,411.24Z"/><path class="c" d="M290.22,368.81l-.89,6.55c-.46,3.45-1.06,8-1.61,12.55-.76,6.19-1.58,13.51-2,20.8A91.68,91.68,0,0,0,286,423.9a26.74,26.74,0,0,0,1.2,4.91h0a188.77,188.77,0,0,0,18.87-25c-.09-3.82-.2-7.62-.32-11.35l-.21-6.85-.07-2.44a216.86,216.86,0,0,1,.26-25.09,11.47,11.47,0,0,1,.86-3.48,124.21,124.21,0,0,1-8.29-21.25,88.26,88.26,0,0,1-2.68-12.76c-.09,1.68-.21,3.33-.33,4.94C294.15,340,292.16,354.67,290.22,368.81Z"/><path class="d" d="M345.45,259.23l0-.09-1.83.87.61,1.34,1.84-.86Z"/><path class="d" d="M341.74,260.88c.15.33.35.78.61,1.33l1.84-.86c-.26-.56-.46-1-.61-1.34Z"/><polygon class="d" points="344.19 261.35 344.19 261.35 344.19 261.35 344.19 261.35"/><path class="d" d="M343.56,260l0,.05h0Z"/><path class="d" d="M343.58,260c.15.33.35.78.61,1.34h0l-.61-1.34Z"/><path class="d" d="M269.76,193.09l-1.85.84.62,1.37c-.27-.57-.47-1-.62-1.37l-1.85.83c.15.35.36.82.63,1.4l3.68-1.72c-.26-.55-.45-1-.6-1.32Z"/><polygon class="d" points="267.9 193.92 267.91 193.93 267.91 193.93 267.9 193.92"/><path class="d" d="M267.91,193.93h0c.15.33.35.8.62,1.37Z"/><path class="e" d="M238.74,190.47l-.09-.11.3.4a1,1,0,0,1,.08.11C239.34,191.28,239,190.78,238.74,190.47Z"/><path class="e" d="M238.27,189.85c.13.17.23.32.33.44l.05.07Z"/><path class="e" d="M265.66,242.42c-.06.13-.14.24-.2.37a79.61,79.61,0,0,1-5.51,8.1,199.32,199.32,0,0,1-15.54,18.31c-6.85,7.2-14.1,14.11-21.53,20.7-6.55,5.81-13.54,11.35-21.37,15.35a78.61,78.61,0,0,1-29.33,8.19,88.44,88.44,0,0,1-28.74-2.73,126.64,126.64,0,0,1-21.33-7.31c-6.11-2.77-11.69-6.73-17-10.76a256,256,0,0,1-23-19.49,7.55,7.55,0,0,1-1.16-9l.35-.58A171,171,0,0,1,104,233.73a89.42,89.42,0,0,1,8.79-8.06c1.39-1.1,2.79-2.17,4.22-3.2l0,0c3.59-2.85,7.21-5.68,11-8.32,11.72-8.28,24.72-15.13,38.55-19.08a78.29,78.29,0,0,1,36.23-2.4q3-.6,6.11-1l-.74-.13a113.45,113.45,0,0,0-15.58-1.91c-.77,0-1.55,0-2.33,0A88.36,88.36,0,0,0,166,193.07c-13.09,3.75-26.26,10.27-39.16,19.38-3.8,2.69-7.52,5.59-11,8.33-1.29.93-2.63,1.94-4.33,3.29a90.87,90.87,0,0,0-9,8.25,173,173,0,0,0-23,30.2l-.36.6a9.54,9.54,0,0,0,1.5,11.49,259.2,259.2,0,0,0,23.21,19.65c5.32,4,11.11,8.13,17.42,11a129.14,129.14,0,0,0,21.66,7.43,94.89,94.89,0,0,0,23.11,3c2.13,0,4.25-.09,6.3-.26a80.59,80.59,0,0,0,30.09-8.4c8.67-4.43,16.2-10.69,21.78-15.64,7.79-6.9,15.08-13.91,21.66-20.82a205.7,205.7,0,0,0,15.7-18.49,81.55,81.55,0,0,0,5.64-8.33l.22-.38a9.92,9.92,0,0,0,1.18-5,20.78,20.78,0,0,0-2.21-1.48A8,8,0,0,1,265.66,242.42Z"/><path class="e" d="M250.41,150.24a7.59,7.59,0,0,1-5.25,2.17,7.91,7.91,0,0,1-5.25-2.17l-.36-.33-.17-.12c-.52-.37-1.06-.71-1.6-1a26.59,26.59,0,0,0-2.37-1.23c-.51-.19-1-.38-1.55-.54,0,.46.09.92.14,1.37a70.75,70.75,0,0,0,4.11,15.4,52.88,52.88,0,0,0,5.64,9.56v0l.7.86,1.39,1.68c1,1.16,2,2.31,2.9,3.49a61.77,61.77,0,0,1,6.62,9.57,45.32,45.32,0,0,1,5.36,16.53c.73.61,1.45,1.22,2.16,1.84A46.23,46.23,0,0,0,257.16,188a64.94,64.94,0,0,0-6.83-9.88c-.76-.94-1.55-1.88-2.33-2.81l-.59-.7L246,172.9l-.69-.84a51.09,51.09,0,0,1-5.27-8.84,69,69,0,0,1-3.71-12.94c.13.07.26.14.38.22.5.29,1,.61,1.47.95l.07.05.29.27a10,10,0,0,0,6.59,2.67,9.5,9.5,0,0,0,6.74-2.83,7.54,7.54,0,0,0,.52-.63l-1.52-1.34C250.74,149.85,250.58,150.05,250.41,150.24Z"/><path class="e" d="M159.91,213.06a133.07,133.07,0,0,0-21.43,11.82c-2.36,1.59-4.68,3.25-7,5l-1.19.9-.13.11c-.7.54-1.39,1.09-2.08,1.64-1.63,1.3-3.3,2.54-5,3.79-.14.1-.27.21-.4.32-.46.37-.91.74-1.35,1.12-.82.69-1.62,1.39-2.4,2.11q-2.4,2.19-4.63,4.53c-3,3.14-5.87,6.45-8.58,9.85-.36.46-.73.91-1.08,1.37h0q-.85,1.12-1.71,2.28c-1.07,1.44-2.11,2.9-3.14,4.37s-2,2.91-3,4.39c4.79,4.33,9.72,8.52,14.81,12.51l.14.11,1.26.95c.81.61,1.61,1.2,2.43,1.79q2.58,1.88,5.26,3.62a66,66,0,0,0,9.19,5.11,116.69,116.69,0,0,0,26.89,7.55,77.06,77.06,0,0,0,18,0,70.74,70.74,0,0,0,15.74-4.25,71.19,71.19,0,0,0,9.58-5.15c1.66-1.07,3.27-2.19,4.85-3.37l.86-.65.26-.2c.78-.62,1.56-1.25,2.33-1.89,6.25-5.19,12.09-10.87,17.94-16.51A230,230,0,0,0,242.67,249c.92-1.1,1.83-2.2,2.72-3.32.37-.46.73-.93,1.1-1.4.12-.15.24-.3.35-.46,1.19-1.57,2.35-3.17,3.45-4.8.89-1.32,1.79-2.65,2.55-4a6.65,6.65,0,0,1,2.2-2.38l-2.73-.32a9.09,9.09,0,0,0-1.25,1.73c-.73,1.35-1.65,2.69-2.45,3.88-1,1.5-2.12,3-3.39,4.72l-.19.25-.66.84-.56.72c-.89,1.11-1.79,2.2-2.7,3.28A222.63,222.63,0,0,1,225,264.83l-.76.73c-5.48,5.29-11.15,10.76-17.07,15.68-.76.63-1.52,1.25-2.29,1.86l-.26.2c-.27.21-.53.41-.81.61-1.6,1.19-3.19,2.3-4.74,3.29a66.69,66.69,0,0,1-9.18,5,68.55,68.55,0,0,1-15.31,4.15,73.36,73.36,0,0,1-8.42.48,76.07,76.07,0,0,1-9.16-.55,113.35,113.35,0,0,1-26.24-7.39,63.28,63.28,0,0,1-8.85-5c-1.65-1.07-3.35-2.24-5.17-3.56-.81-.58-1.61-1.17-2.4-1.76l-1.39-1.05c-4.49-3.53-9-7.3-13.38-11.23.66-1,1.33-1.94,2-2.9,1-1.48,2.07-2.93,3.1-4.33l1.7-2.25c.35-.45.7-.9,1.06-1.34,2.87-3.61,5.64-6.78,8.45-9.71,1.52-1.58,3-3.08,4.54-4.44.77-.7,1.54-1.39,2.34-2.06.43-.37.87-.73,1.31-1.09l.34-.27.23-.18c1.58-1.17,3.2-2.39,4.78-3.65l2.07-1.63,1.29-1c2.28-1.71,4.59-3.36,6.88-4.9a132.36,132.36,0,0,1,21-11.63,95.17,95.17,0,0,1,17-5.24c-1.42-.4-2.79-.79-4.08-1.17A99.16,99.16,0,0,0,159.91,213.06Z"/><path class="e" d="M240.09,192.37c-.34-.51-.7-1-1.06-1.5-.09-.11-.23-.3-.43-.58l-2.24-2.73a82.06,82.06,0,0,1-9.18-12.45,67.73,67.73,0,0,1-6.69-18.41c-1.42-6.46-2.49-13.76-1-20.35.73-3.22,4-5.35,7.16-5.45a36.66,36.66,0,0,1,23.77,8.84c2.91,2.54,2.62,7,.49,9.9l1.52,1.34a10.42,10.42,0,0,0,2.14-6.84,8.36,8.36,0,0,0-2.82-5.93,37.23,37.23,0,0,0-16.26-8.3,39,39,0,0,0-8.18-1h-.72c-4.3.14-8.21,3.16-9.08,7-1.64,7.29-.33,15.18,1,21.23a69.49,69.49,0,0,0,6.91,19,82.73,82.73,0,0,0,9.29,12.65l.1.12c.72.86,1.44,1.73,2.15,2.61l.52.7c.15.2.29.4.43.61,1,.28,2,.6,3.07,1C240.68,193.28,240.4,192.82,240.09,192.37Z"/><path class="e" d="M207.83,193.46q7.62,1.31,15.21,2.82c7.19,1.44,14.38,3,21.52,4.68q-.28-.83-.6-1.65a46.55,46.55,0,0,0-3-5.57c-1-.35-2-.67-3.07-1,.17.24.35.48.52.73a45,45,0,0,1,2.69,4.53c-5.32-1.22-11-2.43-17.68-3.76-4.92-1-9.8-1.89-14.52-2.7q-3.09.43-6.11,1C204.48,192.89,206.15,193.17,207.83,193.46Z"/><path class="e" d="M260.88,210.85c-.27,4.79-4.53,8.47-9.4,7.16-1.14-.31-2.28-.6-3.42-.89-6.57-1.67-13.18-3.19-19.81-4.62-9.8-2.11-19.69-4.19-29.63-5.6a72,72,0,0,0-17,0q-4,.6-8,1.58c1.29.38,2.66.77,4.08,1.17,1.38-.28,2.75-.53,4.11-.73a71.13,71.13,0,0,1,8.57-.52,67,67,0,0,1,8,.47c9.64,1.36,19.06,3.33,29.48,5.57,7.06,1.52,13.52,3,19.74,4.61,1.13.29,2.27.57,3.39.88a9.83,9.83,0,0,0,2.51.33,9.67,9.67,0,0,0,9.45-9.34c.06-1.2,0-2.42,0-3.66-.71-.62-1.43-1.23-2.16-1.84A33.45,33.45,0,0,1,260.88,210.85Z"/><path class="e" d="M264,230.47a10.27,10.27,0,0,0-4.75-1.17,9.25,9.25,0,0,0-6.89,2.93l2.73.32a7.94,7.94,0,0,1,8-.28,6.77,6.77,0,0,1,3.41,4.67,20.78,20.78,0,0,1,2.21,1.48,10.11,10.11,0,0,0-.41-2.67A8.76,8.76,0,0,0,264,230.47Z"/><path class="e" d="M130.07,230.94l.26-.2.47-.36C131.82,229.58,129.11,231.67,130.07,230.94Z"/><path class="e" d="M122.89,236.48l.27-.2.14-.12C124.38,235.3,121.8,237.3,122.89,236.48Z"/><path class="e" d="M238.55,164.86l-.44-1.11c-.1-.23-.21-.44-.31-.66Z"/><path class="e" d="M243.84,173.44l-.09-.13-.38-.48C242.65,171.93,244.35,174.15,243.84,173.44Z"/><path class="e" d="M104.66,255.66l.06-.08C105.79,254.17,103.69,256.9,104.66,255.66Z"/><path class="e" d="M234.14,149.52c0-.39-.1-.78-.14-1.17s-.09-.54-.12-.81C234,148.2,234.05,148.86,234.14,149.52Z"/><path class="e" d="M246,244.88l.76-1-.27.34-.17.24Z"/><path class="e" d="M175.75,298.2l-.94.11-1,.16Z"/><path class="e" d="M206.15,284.66a3.55,3.55,0,0,1-.31.23l-.32.26C204.82,285.71,206.86,284.13,206.15,284.66Z"/><path class="e" d="M191.61,293.63l-1.06.43-.71.32Z"/><path class="e" d="M233.8,140.3l0,0-.12.86A8.5,8.5,0,0,1,233.8,140.3Z"/><path class="e" d="M111.7,279.15h0l-.36-.28C110.3,278.08,112.92,280.11,111.7,279.15Z"/><path class="e" d="M92.56,262.65q.57,4.5,1.16,9c1-1.69,2.06-3.36,3.15-5l-1.26-1.14C94.58,264.55,93.56,263.61,92.56,262.65Z"/><path class="e" d="M157.83,298.42c-.32-.05-.65-.11-1-.15l-1-.12Z"/><path class="e" d="M130.52,291l-.56-.26-1.21-.49Z"/><path class="e" d="M159.09,213.39c.27-.12.55-.22.82-.33s.63-.29,1-.42Z"/><path class="e" d="M260.73,205.46a45.32,45.32,0,0,0-5.36-16.53,61.77,61.77,0,0,0-6.62-9.57c-.95-1.18-1.93-2.33-2.9-3.49l-1.39-1.68-.7-.86v0l.09.13c.51.71-1.19-1.51-.47-.61l.38.48a52.88,52.88,0,0,1-5.64-9.56l.44,1.11-.75-1.77c.1.22.21.43.31.66a70.75,70.75,0,0,1-4.11-15.4c0,.39.09.78.14,1.17-.09-.66-.18-1.32-.26-2,0,.27.08.54.12.81-.05-.45-.1-.91-.14-1.37a31.59,31.59,0,0,0-4.73-1.12,18.79,18.79,0,0,0-2.49-.11l7.13-5.43.15-1.12a35.5,35.5,0,0,0-.06,7.78c.52.16,1,.35,1.55.54-.34-.16-.69-.33-1-.48l1.77.75-.73-.27a26.59,26.59,0,0,1,2.37,1.23c.54.33,1.08.67,1.6,1l.17.12a3.41,3.41,0,0,0-.57-.45c.36.21,1.21.89.57.45l.36.33a7.91,7.91,0,0,0,5.25,2.17,7.59,7.59,0,0,0,5.25-2.17c.17-.19.33-.39.49-.6L242.21,142l8.69,7.62c2.13-2.87,2.42-7.36-.49-9.9a36.66,36.66,0,0,0-23.77-8.84c-3.14.1-6.43,2.23-7.16,5.45-1.48,6.59-.41,13.89,1,20.35a67.73,67.73,0,0,0,6.69,18.41,82.06,82.06,0,0,0,9.18,12.45l2.24,2.73c-.1-.12-.2-.27-.33-.44l.38.51.09.11c.25.31.6.81.29.4.36.49.72,1,1.06,1.5s.59.91.88,1.37a50.5,50.5,0,0,1,10.76,5.16A89.29,89.29,0,0,1,260.73,205.46Z"/><path class="e" d="M238.65,190.36l-.05-.07c.2.28.34.47.43.58a1,1,0,0,0-.08-.11Z"/><path class="e" d="M252.84,234.93c-.76,1.4-1.66,2.73-2.55,4-1.1,1.63-2.26,3.23-3.45,4.8-.11.16-.23.31-.35.46l.27-.34-.76,1,.32-.4.17-.24c-.37.47-.73.94-1.1,1.4-.89,1.12-1.8,2.22-2.72,3.32a230,230,0,0,1-16.3,17.33c-5.85,5.64-11.69,11.32-17.94,16.51-.77.64-1.55,1.27-2.33,1.89l-.26.2a3.55,3.55,0,0,0,.31-.23c.71-.53-1.33,1-.63.49l.32-.26-.86.65c-1.58,1.18-3.19,2.3-4.85,3.37a71.19,71.19,0,0,1-9.58,5.15l1.06-.43-1.77.75.71-.32a70.74,70.74,0,0,1-15.74,4.25l.94-.11-2,.27,1-.16a77.06,77.06,0,0,1-18,0c.33,0,.66.1,1,.15l-2-.27,1,.12A116.69,116.69,0,0,1,130,290.72l.56.26-1.77-.75,1.21.49a66,66,0,0,1-9.19-5.11q-2.68-1.74-5.26-3.62c-.82-.59-1.62-1.18-2.43-1.79l-1.26-.95-.14-.11h0c1.22,1-1.4-1.07-.38-.29l.36.28c-5.09-4-10-8.18-14.81-12.51-1.09,1.65-2.15,3.32-3.15,5q-.59-4.49-1.16-9c1,1,2,1.9,3,2.84l1.26,1.14q1.47-2.22,3-4.39c1-1.47,2.07-2.93,3.14-4.37q.85-1.15,1.71-2.28h0l-.06.08c-1,1.24,1.13-1.49.06-.08.35-.46.72-.91,1.08-1.37,2.71-3.4,5.56-6.71,8.58-9.85q2.24-2.34,4.63-4.53c.78-.72,1.58-1.42,2.4-2.11.44-.38.89-.75,1.35-1.12.13-.11.26-.22.4-.32l-.27.2c-1.09.82,1.49-1.18.41-.32l-.14.12c1.66-1.25,3.33-2.49,5-3.79.69-.55,1.38-1.1,2.08-1.64l.13-.11-.26.2c-1,.73,1.75-1.36.73-.56l-.47.36,1.19-.9c2.28-1.71,4.6-3.37,7-5a133.07,133.07,0,0,1,21.43-11.82c-.27.11-.55.21-.82.33l1.77-.75c-.32.13-.63.28-1,.42a99.16,99.16,0,0,1,13.71-4.54c-8.28-2.4-13.35-4.18-10-4.77,8-1.44,22.64-7.83,39.19-11.12a78.29,78.29,0,0,0-36.23,2.4c-13.83,3.95-26.83,10.8-38.55,19.08-3.74,2.64-7.36,5.47-11,8.32l0,0a3.55,3.55,0,0,0,.31-.23c1-.7-1.92,1.51-.88.69l.57-.46c-1.43,1-2.83,2.1-4.22,3.2a89.42,89.42,0,0,0-8.79,8.06,171,171,0,0,0-22.76,29.84l-.35.58a7.55,7.55,0,0,0,1.16,9,256,256,0,0,0,23,19.49c5.34,4,10.92,8,17,10.76a126.64,126.64,0,0,0,21.33,7.31,88.44,88.44,0,0,0,28.74,2.73,78.61,78.61,0,0,0,29.33-8.19c7.83-4,14.82-9.54,21.37-15.35,7.43-6.59,14.68-13.5,21.53-20.7A199.32,199.32,0,0,0,260,250.89a79.61,79.61,0,0,0,5.51-8.1c.06-.13.14-.24.2-.37a8,8,0,0,0,.75-5.48l-.33-.21c-4.77-3-5.53-3.49-11-4.18A6.65,6.65,0,0,0,252.84,234.93Z"/><path class="e" d="M239,149.46a3.41,3.41,0,0,1,.57.45C240.19,150.35,239.34,149.67,239,149.46Z"/><path class="e" d="M117.33,222.24a3.55,3.55,0,0,1-.31.23l-.57.46C115.41,223.75,118.33,221.54,117.33,222.24Z"/><path class="e" d="M234.37,147c.35.15.7.32,1,.48l.73.27Z"/><path class="e" d="M233.92,139.2l-.15,1.12,0,0a8.5,8.5,0,0,0-.15.88l.12-.86-7.13,5.43a18.79,18.79,0,0,1,2.49.11l-.75-.13,2,.27-1.22-.14a31.59,31.59,0,0,1,4.73,1.12A35.5,35.5,0,0,1,233.92,139.2Z"/><path class="e" d="M228.38,145.73l.75.13,1.22.14Z"/><path class="e" d="M173.62,208.52q4-1,8-1.58l-1.14.13,2-.26-.84.13a72,72,0,0,1,17,0l-1.41-.2,2,.27-.56-.07c9.94,1.41,19.83,3.49,29.63,5.6,6.63,1.43,13.24,2.95,19.81,4.62,1.14.29,2.28.58,3.42.89,4.87,1.31,9.13-2.37,9.4-7.16a33.45,33.45,0,0,0-.15-5.39,89.29,89.29,0,0,0-9-6.56A50.5,50.5,0,0,0,241,193.74a46.55,46.55,0,0,1,3,5.57c-.11-.27-.2-.54-.32-.81l.75,1.78c-.14-.33-.29-.65-.43-1q.31.83.6,1.65c3.64.86,7.26,1.76,10.87,2.73l-9.4,7.16a28.43,28.43,0,0,0-.15-4.61,32.62,32.62,0,0,0-1.32-5.28c-7.14-1.7-14.33-3.24-21.52-4.68q-7.59-1.51-15.21-2.82c-1.68-.29-3.35-.57-5-.83-16.55,3.29-31.18,9.68-39.19,11.12C160.27,204.34,165.34,206.12,173.62,208.52Z"/><path class="e" d="M266.41,236.94a6.77,6.77,0,0,0-3.41-4.67,7.94,7.94,0,0,0-8,.28c5.51.69,6.27,1.19,11,4.18Z"/><path class="e" d="M245.72,204.83c.09.66.17,1.32.26,2,0-.19-.07-.37-.1-.56a28.43,28.43,0,0,1,.15,4.61l9.4-7.16c-3.61-1-7.23-1.87-10.87-2.73a32.62,32.62,0,0,1,1.32,5.28C245.83,205.77,245.78,205.3,245.72,204.83Z"/><path class="e" d="M243.64,198.5c.12.27.21.54.32.81s.29.64.43,1Z"/><path class="e" d="M180.5,207.07l1.14-.13.84-.13Z"/><path class="e" d="M197.21,206.7l1.41.2.56.07Z"/><path class="e" d="M245.72,204.83c.06.47.11.94.16,1.41,0,.19.08.37.1.56C245.89,206.15,245.81,205.49,245.72,204.83Z"/><path class="e" d="M378.93,151.56l-.31.39a.61.61,0,0,0-.07.1Z"/><path class="e" d="M393.3,126.21l-.05.11c-.08.21-.18.44-.29.72C393.07,126.76,393.19,126.49,393.3,126.21Z"/><path class="e" d="M266.13,127.06c-.05-1.75-.06-3.53,0-5.32-.61,1.42-1.21,2.84-1.77,4.29-4.19,10.74-6.28,20.76-6.25,29.92l2.06,1.81C259.78,147.3,262.38,136.75,266.13,127.06Z"/><path class="e" d="M378.44,152.19a1.71,1.71,0,0,1,.11-.14l-.2.25-.25.31C377.85,152.94,378.22,152.49,378.44,152.19Z"/><path class="e" d="M412.86,53.62c-3.48-.37-7-.81-10.45-1.24-7.11-.88-14.45-1.79-21.76-2.15-3.09-.15-6.18-.23-9.2-.23-4.47,0-8.93.17-13.23.5-7.29.56-18.17,1.76-28.34,5.66l-1.51.61c1.6.08,3.19.22,4.76.4,8.12-2.75,16.72-4,25.24-4.64a174.67,174.67,0,0,1,22.18-.27c10.75.53,21.4,2.24,32.09,3.38a8.48,8.48,0,0,1,5.25,2.17,7.33,7.33,0,0,1,2.18,5.25,8.46,8.46,0,0,0-.05.87,260.66,260.66,0,0,1-4.6,39.49,149.24,149.24,0,0,1-13.85,40,106.48,106.48,0,0,1-29.28,35.57c-7.75,5.91-16.54,10-25.71,13.2a153.43,153.43,0,0,1-28.05,6.73,191.83,191.83,0,0,1-25.25,2.28c0,1,.1,1.93.2,2.89a41.65,41.65,0,0,0,1.48,6.12q.32,1,.69,2c.05.15.11.29.17.44a1.16,1.16,0,0,0,.06.15l0,.1c.45,1,.91,2,1.36,3,1.64,3.62,3.25,7.24,4.81,10.89A234.17,234.17,0,0,1,314.57,263c3.79,15.58,6,31.52,8.18,47.39a8.67,8.67,0,0,1-.75,5.72,7.47,7.47,0,0,1-4.43,3.41,6.5,6.5,0,0,1-2.58.23v2c.25,0,.49.05.74.05a7.78,7.78,0,0,0,2.46-.37,9.42,9.42,0,0,0,5.61-4.39,10.89,10.89,0,0,0,1-6.94c-2.33-17.1-4.55-32.48-8.23-47.6A232.81,232.81,0,0,0,304,225.89c-1.41-3.31-2.95-6.78-4.83-10.94l-1.37-3-.22-.55c-.23-.61-.45-1.23-.65-1.86a38.39,38.39,0,0,1-1.42-5.85c0-.18,0-.35-.05-.53a201,201,0,0,0,23.41-2.27,155.59,155.59,0,0,0,28.42-6.83c10.81-3.77,19.16-8.06,26.27-13.5,12.07-9.23,22.11-21.42,29.85-36.24a151.29,151.29,0,0,0,14-40.49A261.37,261.37,0,0,0,422.05,64v-.28a2.75,2.75,0,0,1,0-.41c.32-2.44-1.21-5.54-2.81-7A10.6,10.6,0,0,0,412.86,53.62Z"/><path class="e" d="M311.85,318.77c-1.4-.82-3.18-2.73-3.41-4.43-1.55-11.38-3.17-22.77-5.32-34a224.24,224.24,0,0,0-12.33-42.42c-.37-.93-.75-1.85-1.14-2.78l-.32-.77-.12-.29q-1.2-2.81-2.44-5.6c-2.18-4.93-4.73-9.8-6.33-15a44.69,44.69,0,0,1-2-14.8,31.26,31.26,0,0,1,.91-7,7.53,7.53,0,0,1,7.16-5.45c.55,0,1.1,0,1.65,0a173.42,173.42,0,0,0,24.94-1.5,165.75,165.75,0,0,0,19-3.73c3.42-.9,6.82-1.91,10.17-3.07,1.64-.57,3.26-1.17,4.88-1.8l1.62-.65h0q1.11-.48,2.22-1a72.39,72.39,0,0,0,7.27-3.88q1.86-1.14,3.66-2.39l1.46-1.05.87-.64c.91-.68-.64.5-.66.51a70.11,70.11,0,0,0,11.23-10.55c.87-1,1.72-2,2.54-3,.26-.31.51-.62.76-.94l.52-.66q2-2.59,3.77-5.29,3.3-5,6.09-10.27c1.37-2.58,2.64-5.22,3.83-7.89.32-.73.63-1.45.94-2.18.09-.2.16-.37.22-.52.24-.58.47-1.17.7-1.75.53-1.39,1-2.79,1.52-4.19a176.4,176.4,0,0,0,7.55-33.12q1.06-8.1,1.59-16.27c0-.31,0-.62,0-.93l-.87-.11c-7.73-.92-15.49-1.93-23.27-2.32a177.75,177.75,0,0,0-18,0c1,.61,2.08,1.24,3.1,1.9,1.79-.06,3.59-.09,5.42-.09,3,0,6.22.08,9.41.24,6.77.34,13.66,1.17,20.32,2l1.79.21c-.35,5-.85,10.11-1.49,15.09a201.43,201.43,0,0,1-3.77,20.06,12.28,12.28,0,0,1-.05,5.55A6.16,6.16,0,0,1,395,115.6c-.38,1.22-.77,2.41-1.18,3.6-.48,1.4-1,2.78-1.5,4.11-.21.55-.43,1.1-.65,1.64l-.36.87c-.26.62-.53,1.24-.8,1.85-1.18,2.66-2.45,5.27-3.77,7.77a115.63,115.63,0,0,1-6,10.09c-1.09,1.64-2.28,3.31-3.64,5.11l-.63.81c-.22.27-.43.54-.66.81-.81,1-1.65,2-2.48,2.9a73.75,73.75,0,0,1-9.77,9.42,4.78,4.78,0,0,0-.5.33l-.86.64c-.47.35-.94.69-1.42,1-1.17.81-2.37,1.6-3.56,2.33a69.12,69.12,0,0,1-7.06,3.76l-.13.06c-.59.27-1.18.55-1.72.78l-1.91.77c-1.54.61-3.16,1.2-4.8,1.77-3.19,1.11-6.56,2.12-10,3A164.13,164.13,0,0,1,313,182.73a175.43,175.43,0,0,1-22.33,1.52l-2.5,0c-.53,0-1.06,0-1.59,0h-.36a9.56,9.56,0,0,0-8.84,6.94,32.91,32.91,0,0,0-1,7.47,46.77,46.77,0,0,0,2.11,15.48,90.9,90.9,0,0,0,4.63,11.27c.6,1.3,1.21,2.61,1.78,3.91.82,1.86,1.64,3.72,2.43,5.58l.44,1c.38.91.76,1.83,1.13,2.75a220.63,220.63,0,0,1,12.21,42c2.24,11.74,3.91,23.68,5.31,33.94.36,2.66,2.82,5,4.39,5.92a10,10,0,0,0,4.17,1.24v-2A7.87,7.87,0,0,1,311.85,318.77Z"/><path class="e" d="M393.3,126.21l.24-.56c.2-.47.44-1.09-.07.15l-.05.12Z"/><path class="e" d="M258.85,165c.12.65.25,1.3.39,1.89,0,.15.06.3.1.45l.3,1.19a9.61,9.61,0,0,0,9.18,7,8.44,8.44,0,0,0,2.55-.4,9.64,9.64,0,0,0,6.53-11.55c-.27-1.08-.55-2.24-.75-3.43a.17.17,0,0,1,0-.07,10.6,10.6,0,0,1-2.16-1.71c0,.62.08,1.25.14,1.87.21,1.29.49,2.56.81,3.83a7.58,7.58,0,0,1-5.19,9.13,7.5,7.5,0,0,1-9.13-5.19l-.3-1.19,0-.18c-.16-.67-.31-1.34-.42-2a53,53,0,0,1-.7-6.86L258.1,156A55,55,0,0,0,258.85,165Z"/><path class="e" d="M397.43,112a12.28,12.28,0,0,0,.05-5.55c-.78,3.16-1.61,6.2-2.53,9.13A6.16,6.16,0,0,0,397.43,112Z"/><path class="e" d="M266.13,127.06c0-.1.08-.2.11-.3A135.11,135.11,0,0,1,291.1,86.15c10.84-12.22,24.21-22.23,39.51-28.09.83-.32,1.68-.61,2.52-.89-1.57-.18-3.16-.32-4.76-.4-14.19,5.74-27.58,15.4-38.79,28a136.49,136.49,0,0,0-23.46,36.94C266.07,123.53,266.08,125.31,266.13,127.06Z"/><path class="e" d="M336.49,71.66c-1.09.38-2.16.79-3.23,1.22l-.45.2-1.29.58c-2.12,1-4.19,2.06-6.21,3.23q-2.78,1.59-5.43,3.38c-.88.6-1.76,1.21-2.63,1.84l-1.29,1-.14.11a111,111,0,0,0-9.33,8.28,118.13,118.13,0,0,0-8.66,9.64l-1,1.26h0l0,0c-.64.85-1.28,1.72-1.91,2.59-1.21,1.68-2.39,3.39-3.52,5.13q-3.37,5.19-6.23,10.67-1.41,2.7-2.68,5.46c-.39.85-.77,1.72-1.14,2.58l-.49,1.21a89.31,89.31,0,0,0-5.54,19.87,50.91,50.91,0,0,0-.31,8.46,10.6,10.6,0,0,0,2.16,1.71,46.36,46.36,0,0,1,.18-10.07,87,87,0,0,1,5.39-19.22c.16-.4.32-.8.5-1.22.36-.83.72-1.65,1.1-2.47.82-1.79,1.7-3.59,2.63-5.37,1.85-3.56,3.92-7.09,6.13-10.5,1.11-1.7,2.28-3.4,3.47-5.06q.91-1.27,1.89-2.55l1-1.24a117.8,117.8,0,0,1,8.52-9.48A111,111,0,0,1,317,84.83l.19-.14c.42-.31.84-.63,1.27-.93.84-.62,1.7-1.22,2.57-1.81,1.74-1.17,3.52-2.28,5.3-3.3,2-1.15,4-2.21,6.05-3.15l1-.45.71-.31c1-.42,2.07-.81,3.08-1.16a78.68,78.68,0,0,1,15-3.54c4.35-.55,8.92-.9,13.61-1.05-1-.66-2.06-1.29-3.1-1.9-3.67.19-7.34.51-11,1A81.89,81.89,0,0,0,336.49,71.66Z"/><path class="e" d="M333.26,72.88l.57-.25-.72.32h0l.13-.06Z"/><path class="e" d="M332.81,73.08l.29-.13C332.68,73.12,332.07,73.4,332.81,73.08Z"/><path class="e" d="M295.81,212.56c.22.52.23.55.07.14l-.06-.13C295.56,212,295.55,212,295.81,212.56Z"/><path class="e" d="M293.56,204.85c0-.27-.05-.54-.08-.81s-.13-.77-.19-1.16Z"/><path class="e" d="M314.38,184.6l-1.3.16-.67.1Z"/><path class="e" d="M348.75,175.5l-.59.25C348.27,175.71,349.85,175.05,348.75,175.5Z"/><path class="e" d="M293.24,197.81c.05-.41.12-.82.2-1.23,0-.25,0-.5.06-.74C293.42,196.5,293.33,197.15,293.24,197.81Z"/><path class="e" d="M266.5,157.67a8,8,0,0,0-3.66,2.43l5.06,4.45-5.06-4.45a7.46,7.46,0,0,0-1.56,6.53l.33,1.37,14.32-3.94-.3-1.2A7.5,7.5,0,0,0,266.5,157.67Z"/><path class="e" d="M275.27,161.55q-.09-.66-.15-1.32c0-.21-.09-.43-.12-.65Z"/><path class="e" d="M293.44,196.58c-.08.41-.15.82-.2,1.23.09-.66.18-1.31.26-2,0,.24,0,.49-.06.74.06-.33.12-.65.21-1l-7.16,5.45c2.26.1,4.52.12,6.79.09A31.69,31.69,0,0,1,293.44,196.58Z"/><path class="e" d="M262.84,160.1l-2.68-2.34a53,53,0,0,0,.7,6.86c.11.67.26,1.34.42,2A7.46,7.46,0,0,1,262.84,160.1Z"/><path class="e" d="M362.7,67.09a177.75,177.75,0,0,1,18,0c7.78.39,15.54,1.4,23.27,2.32l.87.11c.09-2.16.07-4.36.35-6.48l7.42,7.42c-2.59-.27-5.18-.63-7.77-.94,0,.31,0,.62,0,.93q-.52,8.16-1.59,16.27c.05-.32.1-.65.14-1-.08.66-.17,1.31-.26,2l.12-1a176.4,176.4,0,0,1-7.55,33.12c-.48,1.4-1,2.8-1.52,4.19-.23.58-.46,1.17-.7,1.75.51-1.24.27-.62.07-.15l-.24.56c-.11.28-.23.55-.34.83.11-.28.21-.51.29-.72-.31.73-.62,1.45-.94,2.18-1.19,2.67-2.46,5.31-3.83,7.89q-2.79,5.28-6.09,10.27-1.81,2.7-3.77,5.29l.31-.39-.38.49a1.71,1.71,0,0,0-.11.14c-.22.3-.59.75-.34.42-.25.32-.5.63-.76.94-.82,1-1.67,2-2.54,3a70.11,70.11,0,0,1-11.23,10.55s1.57-1.19.66-.51l-.87.64-1.46,1.05q-1.8,1.24-3.66,2.39a72.39,72.39,0,0,1-7.27,3.88q-1.11.51-2.22,1c1.1-.45-.48.21-.59.25l.59-.25h0l-1.62.65c-1.62.63-3.24,1.23-4.88,1.8-3.35,1.16-6.75,2.17-10.17,3.07a165.75,165.75,0,0,1-19,3.73l1.3-.16-2,.26.67-.1a173.42,173.42,0,0,1-24.94,1.5c-.55,0-1.1,0-1.65,0a7.53,7.53,0,0,0-7.16,5.45,31.26,31.26,0,0,0-.91,7,44.69,44.69,0,0,0,2,14.8c1.6,5.16,4.15,10,6.33,15q1.25,2.79,2.44,5.6l.12.29-.21-.49c-.35-.84.82,1.93.33.78l-.12-.29.32.77c.39.93.77,1.85,1.14,2.78a224.24,224.24,0,0,1,12.33,42.42c2.15,11.28,3.77,22.67,5.32,34,.23,1.7,2,3.61,3.41,4.43a7.87,7.87,0,0,0,3.14,1v0a6.5,6.5,0,0,0,2.58-.23,7.47,7.47,0,0,0,4.43-3.41,8.67,8.67,0,0,0,.75-5.72c-2.15-15.87-4.39-31.81-8.18-47.39a234.17,234.17,0,0,0-12.48-36.32c-1.56-3.65-3.17-7.27-4.81-10.89-.45-1-.91-2-1.36-3l0-.1c.16.41.15.38-.07-.14s-.25-.59,0,0l.06.13a1.16,1.16,0,0,1-.06-.15c-.06-.15-.12-.29-.17-.44q-.37-1-.69-2a41.65,41.65,0,0,1-1.48-6.12c0,.27,0,.54.08.81l-.27-2c.06.39.13.77.19,1.16-.1-1-.17-1.93-.2-2.89-2.27,0-4.53,0-6.79-.09l7.16-5.45c-.09.32-.15.64-.21,1a31.69,31.69,0,0,0-.16,4.57,191.83,191.83,0,0,0,25.25-2.28,153.43,153.43,0,0,0,28.05-6.73c9.17-3.21,18-7.29,25.71-13.2a106.48,106.48,0,0,0,29.28-35.57,149.24,149.24,0,0,0,13.85-39.95A260.66,260.66,0,0,0,420,63.93a8.46,8.46,0,0,1,.05-.87,7.33,7.33,0,0,0-2.18-5.25,8.48,8.48,0,0,0-5.25-2.17C402,54.5,391.3,52.79,380.55,52.26a174.67,174.67,0,0,0-22.18.27c-8.52.66-17.12,1.89-25.24,4.64a75.5,75.5,0,0,1,18.75,4.59A76.93,76.93,0,0,1,362.7,67.09Z"/><path class="e" d="M289.12,233.83l.21.49.12.29C289.94,235.76,288.77,233,289.12,233.83Z"/><path class="e" d="M403.38,85.77c0,.32-.09.65-.14,1l-.12,1C403.21,87.08,403.3,86.43,403.38,85.77Z"/><path class="e" d="M405.22,63.06c-.28,2.12-.26,4.32-.35,6.48,2.59.31,5.18.67,7.77.94Z"/><path class="e" d="M270.74,173.19a7.58,7.58,0,0,0,5.19-9.13L261.61,168A7.5,7.5,0,0,0,270.74,173.19Z"/><path class="e" d="M261.31,166.81l.3,1.19-.33-1.37Z"/><path class="e" d="M378.55,152.05a.61.61,0,0,1,.07-.1l-.52.66.25-.31Z"/><path class="e" d="M393.42,125.92l.05-.12c-.06.15-.13.32-.22.52l.05-.11Z"/><path class="e" d="M260.16,157.76l2.68,2.34a8,8,0,0,1,3.66-2.43,7.5,7.5,0,0,1,9.13,5.19l.3,1.2c-.32-1.27-.6-2.54-.81-3.83q.06.66.15,1.32l-.27-2c0,.22.08.44.12.65-.06-.62-.11-1.25-.14-1.87-5.18-5.24-8.45-17.39-8.85-31.3C262.38,136.75,259.78,147.3,260.16,157.76Z"/><path class="e" d="M333.23,72.89l-.13.06-.29.13.45-.2Z"/><path class="e" d="M315.45,83.46l.37-.28.11-.09C317,82.26,314.39,84.25,315.45,83.46Z"/><path class="e" d="M281.6,128.14c.34-.83-.83,1.94-.35.82,0-.05.05-.09.07-.14h0C281.41,128.59,281.51,128.36,281.6,128.14Z"/><path class="e" d="M275.18,150.61c0-.23.08-.47.11-.71,0-.42.1-.84.16-1.26Z"/><path class="e" d="M350.79,68.17l.93-.11,1-.16Z"/><path class="e" d="M296.82,102.37c1-1.37-1.11,1.41,0,0Z"/><path class="e" d="M291.1,86.15a135.11,135.11,0,0,0-24.86,40.61c0,.1-.07.2-.11.3.4,13.91,3.67,26.06,8.85,31.3a50.91,50.91,0,0,1,.31-8.46c0,.24-.07.48-.11.71l.27-2c-.06.42-.11.84-.16,1.26A89.31,89.31,0,0,1,280.83,130l.49-1.21c0,.05-.05.09-.07.14-.48,1.12.69-1.65.35-.82-.09.22-.19.45-.28.68h0c.37-.86.75-1.73,1.14-2.58q1.28-2.76,2.68-5.46,2.85-5.48,6.23-10.67c1.13-1.74,2.31-3.45,3.52-5.13.63-.87,1.27-1.74,1.91-2.59l0,0c-1.11,1.41,1-1.37,0,0h0l1-1.26a118.13,118.13,0,0,1,8.66-9.64,111,111,0,0,1,9.33-8.28l-.37.28c-1.06.79,1.52-1.2.48-.37l-.11.09.14-.11,1.29-1c.87-.63,1.75-1.24,2.63-1.84q2.65-1.78,5.43-3.38c2-1.17,4.09-2.24,6.21-3.23l1.29-.58c-.74.32-.13,0,.29-.13h0l.72-.32-.57.25c1.07-.43,2.14-.84,3.23-1.22a81.89,81.89,0,0,1,15.23-3.6l-.93.11,2-.27-1,.16c3.64-.46,7.31-.78,11-1a76.93,76.93,0,0,0-10.82-5.33,75.5,75.5,0,0,0-18.75-4.59c-.84.28-1.69.57-2.52.89C315.31,63.92,301.94,73.93,291.1,86.15Z"/><path class="e" d="M286.09,431a3.45,3.45,0,0,0,.26.28l.69.38a26.41,26.41,0,0,0,4.74,1.14,51,51,0,0,0,11.25,0,25.57,25.57,0,0,0,3.8-.88,23.9,23.9,0,0,0,.66-3,116.9,116.9,0,0,0,.68-12.95c0-5.11,0-10.21-.18-15.31q-.93,1.53-1.95,3.15c.08,4.05.13,8.11.1,12.14a113.72,113.72,0,0,1-.61,12.39c-.12.75-.24,1.39-.37,2-.72.19-1.49.34-2.33.48a48.65,48.65,0,0,1-5.29.29,49.23,49.23,0,0,1-5.48-.3,25.75,25.75,0,0,1-4.17-1l-.24-.14,0-.07c-.16-.26-.3-.53-.44-.8-.49.53-1,1.05-1.46,1.56l.16.29Z"/><path class="e" d="M269.41,269.83c-.81-1.87-1.64-3.73-2.52-5.57-1.79-3.75-.95-7.82,2.66-10.15a7.33,7.33,0,0,1,4.4-1c-.05-.71-.12-1.39-.18-2l-.45,0a9.09,9.09,0,0,0-4.87,1.32c-4.33,2.8-5.69,7.91-3.39,12.74.88,1.84,1.72,3.71,2.51,5.52a138.11,138.11,0,0,1,5.27,15.22q.12-2.89.34-5.85Q271.49,274.87,269.41,269.83Z"/><path class="e" d="M295.59,320.6a108,108,0,0,0,.09-12.36c-.07-1.21-.16-2.42-.26-3.63A66.29,66.29,0,0,0,295.59,320.6Z"/><path class="e" d="M286.94,431.68l-.3-.12C287.08,431.94,287.6,432.15,286.94,431.68Z"/><path class="e" d="M286.57,431.5l.2.07-.37-.25.14.15Z"/><path class="e" d="M315.14,350.85a7.59,7.59,0,0,1,5.25,2.17,7.48,7.48,0,0,1,2.17,5.25c-.11,1.28-.19,2.56-.25,3.84-.67,13.95.29,28,.6,41.93.14,6.6.24,13.21-.13,19.8-.3,5.34-.69,11-3.15,15.87-3.27,6.46-11.87,7.66-18.3,8.12a52.45,52.45,0,0,1-10.48-.28c-4-.52-8-1.21-11.59-3.18a15.71,15.71,0,0,1-5.05-4.5c-.31.16-.61.33-.91.46s-.66.29-1,.41a17.76,17.76,0,0,0,6,5.41c4.07,2.22,8.48,2.92,12.3,3.41a55.79,55.79,0,0,0,7,.44c1.31,0,2.64-.05,3.94-.14,7.39-.54,16.33-2.07,20-9.23,2.73-5.38,3.08-11.65,3.37-16.68.37-6.63.27-13.22.13-19.95-.09-4-.24-8.11-.37-12.07-.35-9.76-.7-19.86-.23-29.73.06-1.34.14-2.56.25-3.75a9.45,9.45,0,0,0-2.76-6.86,9.65,9.65,0,0,0-6.46-2.77H315v2Z"/><path class="e" d="M306.56,354.61l1.29,2.7a7.51,7.51,0,0,1,7.14-6.45v-2A9.46,9.46,0,0,0,306.56,354.61Z"/><path class="e" d="M275.27,253.36a7.46,7.46,0,0,1,4.44,3.41A148.51,148.51,0,0,1,290.56,287a124.61,124.61,0,0,1,3.09,21.4,129.26,129.26,0,0,1-.41,17c-1.28,16.72-3.71,33.32-5.95,49.93-.55,4.11-1.09,8.23-1.59,12.34-.84,7-1.6,13.94-2,20.94a94.39,94.39,0,0,0,.22,15.5,29.08,29.08,0,0,0,1.43,5.67c.1.21.22.41.33.61.49-.51,1-1,1.46-1.56h0a26.74,26.74,0,0,1-1.2-4.91,91.68,91.68,0,0,1-.21-15.19c.38-7.29,1.2-14.61,2-20.8.55-4.56,1.15-9.1,1.61-12.55l.89-6.55c1.94-14.14,3.93-28.77,5-43.27.12-1.61.24-3.26.33-4.94a66.29,66.29,0,0,1-.17-16,129.74,129.74,0,0,0-2.88-18.12,149.39,149.39,0,0,0-11-30.59,9.11,9.11,0,0,0-7.77-4.79c.06.64.13,1.32.18,2A6.86,6.86,0,0,1,275.27,253.36Z"/><path class="e" d="M274.21,439.87a25.26,25.26,0,0,1-4.1-9.3,74.42,74.42,0,0,1-1.34-19.25c.6-17,3.39-34,5.67-50.82.67-5,1.32-10,1.92-15,1.77-14.73,3.57-29.64,1.78-44.45a124.67,124.67,0,0,0-5-21.06q-.23,3-.34,5.85a119.11,119.11,0,0,1,3.27,15.27c1.78,14.51,0,29.4-1.72,43.8l0,.35c-.51,4.23-1.08,8.72-1.87,14.56q-.64,4.83-1.34,9.67c-1.92,13.63-3.9,27.72-4.4,41.71-.2,5.54-.22,12.79,1.39,19.78a27.85,27.85,0,0,0,4.2,9.72c.31-.12.63-.25,1-.41S273.9,440,274.21,439.87Z"/><path class="e" d="M305.44,383.18l.07,2.44.21,6.85c.12,3.73.23,7.53.32,11.35q1-1.62,1.95-3.15c-.13-5-.31-10.07-.45-15.1-.25-9.07-.62-18.24.18-27.3,0-.33.08-.65.13-1l-1.29-2.7a11.47,11.47,0,0,0-.86,3.48A216.86,216.86,0,0,0,305.44,383.18Z"/><path class="e" d="M285.66,430.54l0-.07,0,0Z"/><path class="e" d="M286.09,431l-.21-.21a3.25,3.25,0,0,0-.22-.24v0l-.05-.05,0,0c.05.08.23.32.42.56l.2.12Z"/><path class="e" d="M286.21,431.19l-.2-.12h0l.21.13Z"/><path class="e" d="M285.67,430.58v0h0Z"/><path class="e" d="M285.66,430.55l0-.09h0l0,.07Z"/><path class="e" d="M286.23,431.21l-.21-.13.24.31.1,0Z"/><path class="e" d="M286.35,431.28a3.45,3.45,0,0,1-.26-.28l.12.19Z"/><path class="e" d="M315,386c0,2.13-2.79,7.78-7,14.7.14,5.1.22,10.2.18,15.31a116.9,116.9,0,0,1-.68,12.95c.07-.45.14-.9.2-1.35l-.27,2c0-.21.05-.42.07-.63a23.9,23.9,0,0,1-.66,3l.12,0c0-.08.08-.16.11-.24l-.09.24.14-.06.73-.4c.18-.1.1,0-.06.16l.35-.13-.39.17a6.79,6.79,0,0,1-.57.47,8.65,8.65,0,0,1-.62.77l-.23.55c.06-.16.11-.32.17-.49-.12.13-.18.15-.09,0s.15-.24.22-.36.14-.35.19-.53l-.45.19.46-.23a.09.09,0,0,0,0-.05,25.57,25.57,0,0,1-3.8.88l1.16-.14-2,.27.81-.13a51,51,0,0,1-11.25,0l1,.17-2-.27.93.1a26.41,26.41,0,0,1-4.74-1.14c.27.15.54.29.83.42l-.93-.4c.66.47.14.26-.3-.12l-.26-.11h0c.2.29.09.18-.11-.06l-.17-.07.16.06-.24-.31-.21-.13.2.12c-.19-.24-.37-.48-.42-.56-4,4.2-7.94,7.55-11.38,9.36a15.71,15.71,0,0,0,5.05,4.5c3.61,2,7.56,2.66,11.59,3.18a52.45,52.45,0,0,0,10.48.28c6.43-.46,15-1.66,18.3-8.12,2.46-4.85,2.85-10.53,3.15-15.87.37-6.59.27-13.2.13-19.8-.31-14-1.27-28-.6-41.93.06-1.28.14-2.56.25-3.84a7.48,7.48,0,0,0-2.17-5.25,7.59,7.59,0,0,0-5.25-2.17H315v0a7.51,7.51,0,0,0-7.14,6.45C312,365.9,315.23,373.37,315,386Z"/><path class="e" d="M274,253.14a7.33,7.33,0,0,0-4.4,1c-3.61,2.33-4.45,6.4-2.66,10.15.88,1.84,1.71,3.7,2.52,5.57-.11-.25-.2-.52-.31-.77l.75,1.77c-.15-.33-.3-.66-.44-1q2.07,5,3.77,10.2c0-.56.07-1.12.12-1.69C274.26,266.94,274.38,258.9,274,253.14Z"/><path class="e" d="M285.66,430.55a3.25,3.25,0,0,1,.22.24l.21.21-.22-.33-.16-.29-.08.08Z"/><path class="e" d="M269.1,269.06c.11.25.2.52.31.77s.29.67.44,1Z"/><path class="e" d="M286.23,431.21l.17.11,0,0-.14-.09Z"/><path class="e" d="M286.57,431.5l.07.06.3.12-.17-.11Z"/><path class="e" d="M286.26,431.39h0l.11.05,0,0Z"/><path class="e" d="M286.36,431.42l0,0,.26.11-.07-.06Z"/><path class="e" d="M286.94,431.68l.93.4c-.29-.13-.56-.27-.83-.42l-.27-.09Z"/><path class="e" d="M286.4,431.32l.37.25.27.09-.69-.38Z"/><path class="e" d="M286.38,431.46h0l-.11-.05C286.47,431.64,286.58,431.75,286.38,431.46Z"/><path class="e" d="M306.93,432l.29-.12h0c.13-.12.17-.12.14-.06l.37-.15,0,0-.67.24-.16.08Z"/><path class="e" d="M307,432.11a2.72,2.72,0,0,1,.24-.24l-.29.12-.38.9a8.65,8.65,0,0,0,.62-.77C306.87,432.35,306.67,432.46,307,432.11Z"/><path class="e" d="M307.17,432.12a6.79,6.79,0,0,0,.57-.47l-.37.15A1.78,1.78,0,0,1,307.17,432.12Z"/><path class="e" d="M307.22,431.87a2.72,2.72,0,0,0-.24.24c-.31.35-.11.24.19,0a1.78,1.78,0,0,0,.2-.32Z"/><path class="e" d="M307.23,431.86h0l.15-.07C307.4,431.74,307.36,431.74,307.23,431.86Z"/><path class="e" d="M306.9,432a6,6,0,0,1-.28.57h0c0,.13-.08.26-.13.38l.06-.06.38-.9Z"/><path class="e" d="M307.11,431.85l-.14.06,0,0Z"/><path class="e" d="M306.93,431.94l0,0-.12,0a.09.09,0,0,1,0,.05Z"/><path class="e" d="M307,431.93l0,0h0l0,0Z"/><path class="e" d="M292.82,433l-1-.17-.93-.1Z"/><path class="e" d="M304.19,432.69l-1.16.14-.81.13Z"/><path class="e" d="M286.36,431.42l.21.08,0,0-.14-.15-.17-.11Z"/><path class="e" d="M306.9,432l-.09,0c-.05.18-.13.36-.19.53h0A6,6,0,0,0,306.9,432Z"/><path class="e" d="M307.69,427.58c-.06.45-.13.9-.2,1.35,0,.21,0,.42-.07.63Z"/><path class="e" d="M286.1,431.33l.17.07h0Z"/><path class="e" d="M306.4,432.93c-.09.17,0,.15.09,0s.09-.25.13-.38C306.55,432.69,306.46,432.81,306.4,432.93Z"/><path class="e" d="M307.84,431.45l-.73.4.67-.24C307.94,431.45,308,431.35,307.84,431.45Z"/><path class="e" d="M285.81,431l.21.13h0Z"/><path class="e" d="M306.93,431.94l-.11.06v0l.09,0Z"/><path class="e" d="M306.93,432l0-.06h0l0,.06Z"/><path class="e" d="M308.13,431.48l-.35.13,0,0Z"/><path class="e" d="M306.32,433.44l.23-.55-.06.06C306.43,433.12,306.38,433.28,306.32,433.44Z"/><path class="e" d="M306.36,432.23l.45-.19v0Z"/><path class="e" d="M307.06,431.67c0,.08-.08.16-.11.24h0Z"/><path class="e" d="M285.59,430.51s0,0,0,0l0,0c-.24-.56-.47-1.11-.7-1.67.14.33.29.65.45,1A29.08,29.08,0,0,1,284,424.1c.05.37.08.74.13,1.11-.09-.66-.18-1.32-.26-2,0,.28.09.57.13.86a94.39,94.39,0,0,1-.22-15.5c.37-7,1.13-14,2-20.94.5-4.11,1-8.23,1.59-12.34-.05.4-.11.8-.16,1.21.09-.66.17-1.32.26-2,0,.26-.06.52-.1.77,2.24-16.61,4.67-33.21,5.95-49.93a129.26,129.26,0,0,0,.41-17,124.61,124.61,0,0,0-3.09-21.4,148.51,148.51,0,0,0-10.85-30.18,7.46,7.46,0,0,0-4.44-3.41,6.86,6.86,0,0,0-1.32-.22c.43,5.76.31,13.8-.65,25.2-.05.57-.08,1.13-.12,1.69a124.67,124.67,0,0,1,5,21.06c0-.34-.07-.68-.12-1l.27,2c0-.31-.1-.63-.15-1,1.79,14.81,0,29.72-1.78,44.45-.6,5-1.25,10-1.92,15l.12-.8-.27,2,.15-1.17c-2.28,16.86-5.07,33.8-5.67,50.82a74.42,74.42,0,0,0,1.34,19.25,25.26,25.26,0,0,0,4.1,9.3C277.65,438.06,281.57,434.71,285.59,430.51Z"/><path class="e" d="M307.54,385.57c.14,5,.32,10.07.45,15.1,4.2-6.92,6.95-12.57,7-14.7.25-12.6-3-20.07-7.13-28.66-.05.31-.1.63-.13,1C306.92,367.33,307.29,376.5,307.54,385.57Z"/><path class="e" d="M278,300.07c.05.34.08.68.12,1s.11.64.15,1Z"/><path class="e" d="M274.56,359.7l-.12.8-.15,1.17Z"/><path class="e" d="M285.63,430.47h0c-.09-.22-.17-.46-.25-.69s-.31-.64-.45-1C285.16,429.36,285.39,429.91,285.63,430.47Z"/><path class="e" d="M284.08,425.21c-.05-.37-.08-.74-.13-1.11s-.09-.58-.13-.86C283.9,423.89,284,424.55,284.08,425.21Z"/><path class="e" d="M285.71,430.38c-.11-.2-.23-.4-.33-.61.08.23.16.47.25.69Z"/><path class="e" d="M287.13,376.53c.05-.41.11-.81.16-1.21,0-.25.07-.51.1-.77C287.3,375.21,287.22,375.87,287.13,376.53Z"/><path class="e" d="M285.59,430.51l0,0S285.57,430.47,285.59,430.51Z"/><path class="e" d="M327.6,126.43c-1.45,1.52-2.74,3.15-4.11,4.75l.57-.67h0c-.19.22-.48.58-.61.76-.31.42-.61.84-.91,1.27-.5.73-1,1.47-1.46,2.22a64.14,64.14,0,0,0-4.41,8.31,63.43,63.43,0,0,0-3.44,11.45c-.81,4.07-5.45,6-9.13,5.18a7.55,7.55,0,0,1-4.44-3.41,8,8,0,0,1-.75-5.72q.55-2.79,1.37-5.54c-1,1-1.93,1.9-2.84,2.82-.18.77-.36,1.55-.52,2.33a10,10,0,0,0,1,7.14,9.47,9.47,0,0,0,5.74,4.36,9.87,9.87,0,0,0,2.19.25h0c4,0,8.47-2.41,9.38-7a61.38,61.38,0,0,1,3.28-11,62.8,62.8,0,0,1,4.29-8.09c.46-.72.93-1.44,1.42-2.14l.87-1.23c.12-.16.37-.45.53-.65,0,0,.49-.59.66-.78.94-1.13,1.83-2.19,2.8-3.21a60.81,60.81,0,0,1,4.77-4.45,4,4,0,0,1,.39-.3c.27-.2.58-.44.89-.72q-2.87,1-5.79,2.37C328.75,125.29,328.16,125.85,327.6,126.43Z"/><path class="e" d="M335.35,122.17c.78-.57,1.57-1.12,2.35-1.64a61.53,61.53,0,0,1,9.07-5,62.15,62.15,0,0,1,13.31-3.71,9.4,9.4,0,0,0,5.87-4.39,9.61,9.61,0,0,0,.93-7.37,9.47,9.47,0,0,0-4.4-5.6,9.76,9.76,0,0,0-4.69-1.16,13.65,13.65,0,0,0-2.29.2,69.74,69.74,0,0,0-29,11.75,75.06,75.06,0,0,0-17.06,16.62,72.54,72.54,0,0,0-9.05,16.53,66.13,66.13,0,0,0-3,9.4c.91-.92,1.85-1.86,2.84-2.82q.87-3,2-5.82a70.29,70.29,0,0,1,8.79-16.07A73.25,73.25,0,0,1,327.7,107a68.16,68.16,0,0,1,28.12-11.41,8.52,8.52,0,0,1,5.71.75,7.42,7.42,0,0,1-1.77,13.57,63.37,63.37,0,0,0-13.58,3.77,62.66,62.66,0,0,0-9.6,5.2c-.82.54-1.63,1.11-2.43,1.69l-.29.22a15.4,15.4,0,0,1-1.32,1.07c-1.11.93-2.17,1.9-3.21,2.91q2.93-1.32,5.79-2.37a1,1,0,0,0,.11-.1Z"/><path class="e" d="M299.66,156.29a7.55,7.55,0,0,0,4.44,3.41c3.68.84,8.32-1.11,9.13-5.18a63.43,63.43,0,0,1,3.44-11.45c-.15.34-.31.68-.45,1l.75-1.78c-.11.25-.2.5-.3.75a64.14,64.14,0,0,1,4.41-8.31c.47-.75,1-1.49,1.46-2.22.3-.43.6-.85.91-1.27.13-.18.42-.54.61-.76l-.57.67c1.37-1.6,2.66-3.23,4.11-4.75.56-.58,1.15-1.14,1.73-1.7-2.29,1-4.62,2.19-7,3.5A105.13,105.13,0,0,0,300.28,145q-.81,2.75-1.37,5.54A8,8,0,0,0,299.66,156.29Z"/><path class="e" d="M324.06,130.51Z"/><path class="e" d="M316.22,144.1c.14-.35.3-.69.45-1s.19-.5.3-.75Z"/><path class="e" d="M333.46,121.05l.4-.3.06-.06C333,121.4,332.84,121.52,333.46,121.05Z"/><path class="e" d="M329.33,124.73c1-1,2.1-2,3.21-2.91a15.4,15.4,0,0,0,1.32-1.07l-.4.3c-.62.47-.46.35.46-.36l-.06.06.29-.22c.8-.58,1.61-1.15,2.43-1.69a62.66,62.66,0,0,1,9.6-5.2l-1,.4,1.77-.75-.76.35a63.37,63.37,0,0,1,13.58-3.77,7.49,7.49,0,0,0,4.44-3.41,7.42,7.42,0,0,0-2.67-10.16,8.52,8.52,0,0,0-5.71-.75A68.16,68.16,0,0,0,327.7,107a73.25,73.25,0,0,0-16.6,16.18,70.29,70.29,0,0,0-8.79,16.07q-1.15,2.86-2,5.82a105.13,105.13,0,0,1,22.09-16.8C324.71,126.92,327,125.76,329.33,124.73Z"/><path class="e" d="M345.17,114l1-.4.76-.35Z"/><path class="e" d="M138.94,255.6a10,10,0,0,0-2.69,7.17A8.78,8.78,0,0,0,139,269a10.22,10.22,0,0,0,6.81,2.66,8.94,8.94,0,0,0,6.54-2.76c1.52-1.6,3.09-3.13,4.66-4.55.92-.82,1.87-1.63,2.81-2.4l1.05-.85.89-.65a79.28,79.28,0,0,1,14.92-8.58,81.44,81.44,0,0,1,18.59-5.05,85.16,85.16,0,0,1,10.34-.63c2.69,0,5.42.13,8.1.38a5.12,5.12,0,0,0,.56,0h0a9.68,9.68,0,0,0,6.32-2.79,9.45,9.45,0,0,0-.07-13.42,10.26,10.26,0,0,0-6.43-2.7c-2.86-.27-5.78-.41-8.67-.41a91.45,91.45,0,0,0-52.88,16.58A96.11,96.11,0,0,0,138.94,255.6Zm75-25.89a8.39,8.39,0,0,1,5.25,2.17,7.41,7.41,0,0,1,0,10.5,7.44,7.44,0,0,1-5.25,2.17,88.28,88.28,0,0,0-18.88.26A83.4,83.4,0,0,0,175.93,250a81.34,81.34,0,0,0-15.34,8.81l-.86.63-1.17.94c-1,.8-1.93,1.62-2.87,2.46-1.66,1.49-3.25,3.05-4.78,4.66-2.86,3-7.6,2.66-10.5,0s-2.68-7.68,0-10.5a93,93,0,0,1,13.34-11.48C171,233.19,192.9,227.72,213.93,229.71Z"/><path class="e" d="M175.19,250.3l.74-.3c.34-.15.69-.31,1-.45Z"/><path class="e" d="M159.63,259.52l.1-.08.32-.25C160.75,258.64,158.62,260.27,159.63,259.52Z"/><path class="e" d="M193.91,245l1.14-.14.83-.13Z"/><path class="e" d="M140.41,267.5c2.9,2.66,7.64,3,10.5,0,1.53-1.61,3.12-3.17,4.78-4.66.94-.84,1.89-1.66,2.87-2.46l1.17-.94-.1.08c-1,.75,1.12-.88.42-.33l-.32.25.86-.63A81.34,81.34,0,0,1,175.93,250l-.74.3,1.78-.75c-.35.14-.7.3-1,.45a83.4,83.4,0,0,1,19.12-5.19l-1.14.14,2-.27-.83.13a88.28,88.28,0,0,1,18.88-.26,7.44,7.44,0,0,0,5.25-2.17,7.41,7.41,0,0,0,0-10.5,8.39,8.39,0,0,0-5.25-2.17c-21-2-43,3.48-60.18,15.81A93,93,0,0,0,140.41,257C137.73,259.82,137.4,264.74,140.41,267.5Z"/></svg>