<svg xmlns="http://www.w3.org/2000/svg" viewBox="0 0 500 500"><defs><style>.a{fill:#fff;}.b{fill:#fdeabe;}.c{fill:#fef2d7;}.d{fill:#face64;}</style></defs><path class="a" d="M199.7,229.75c2.46,3-9,14.28-21.35,28.22a31.68,31.68,0,0,1,4.11,5.16,11.25,11.25,0,0,1,.45,11.66c-2.1,3.64-5.59,4.67-8.39,5.5l-.52.15c-2.31.69-4.56,1.46-6.71,2.27l-1.75.68a10.75,10.75,0,0,1-2.79,1.3l-.5.19c-1.89.91-3.77,1.92-5.54,3l-.75.46c-4.13,8.12-5.91,15.89-3.24,22.39,8.42,20.51,51.51,5,53.23,20.37,1.22,10.85-24.49,29.71-27.19,48.38-2.09,14.43,9.34,19.12,24.12,24.86,28.78,11.16,67.27,4.5,72.25,10.88,2.69,3.44-3.54,8.57-15.84,13.57,6.18-.26,12.08-.71,17.81-1.36l3.31-.41,1.8-.26c2.2-.32,4.39-.69,6.52-1.08,4.12-.76,8.16-1.65,12-2.65s7.79-2.19,11.42-3.46c1.83-.64,3.65-1.33,5.4-2l1.43-.58c.75-.34,1.54-.68,2.32-1.05a95.49,95.49,0,0,0,17.3-10.29l.56-.43.28-.23,1.69-1.41c1.19-1,2.35-2.1,3.45-3.17a72.79,72.79,0,0,0,6-6.61l.47-.6c.39-.54.82-1.14,1.24-1.75.8-1.17,1.58-2.37,2.3-3.57a67.83,67.83,0,0,0,4-7.72l.28-.68c.25-.63.49-1.27.72-1.91.5-1.38,1-2.81,1.38-4.23a76.2,76.2,0,0,0,2-8.66c.08-.47.15-.94.22-1.4l.07-.51.12-1.07c.16-1.48.28-3,.37-4.73.2-3.8.33-7.21.38-10.42.07-3.76,0-7.15-.11-10.35-.08-1.78-.19-3.53-.33-5.2-.08-.86-.16-1.71-.25-2.57l-.12-1a95.72,95.72,0,0,0-1.94-9.59c-.43-1.62-.92-3.21-1.46-4.73-.24-.68-.5-1.36-.77-2l-.4-.9a51.27,51.27,0,0,0-4.9-8.56l-.26-.34-.43-.57c-.46-.58-.94-1.15-1.43-1.7a48.17,48.17,0,0,0-3.67-3.76q-1-.9-2-1.8l-.26-.21a6.52,6.52,0,0,1-.76-.58l-.09-.08c-1.41-1-3-2.1-4.62-3.09s-3.59-2.07-5.5-3l-.5-.19a12.44,12.44,0,0,1-3-1.38l-1.5-.59c-2.13-.82-4.39-1.59-6.71-2.29l-.77-.23c-2.82-.83-6.32-1.86-8.44-5.5a11.17,11.17,0,0,1,.4-11.61,46.07,46.07,0,0,1,5.84-7l.9-.94c3.22-3.43,6.53-6.88,9.73-10.21,4.55-4.74,9.25-9.64,13.77-14.54,5.42-5.88,10.18-11.26,14.58-16.46,2.51-3,4.9-5.87,7.11-8.65,1.12-1.41,2.23-2.84,3.33-4.26l1-1.3q.78-1,1.53-2.07a171.46,171.46,0,0,0,11.44-17.58c1.63-2.92,3-5.63,4.16-8.28a1.86,1.86,0,0,0,.1-.25c.07-.19.2-.5.34-.82.2-.49.39-1,.57-1.49.49-1.35.89-2.62,1.24-3.87s.62-2.39.84-3.53l.15-.92c.16-1.5.25-3.05.32-4.38.22-4.17.32-8.69.31-14.24a352.65,352.65,0,0,0-2-38.78c-.14-1.24-.29-2.48-.45-3.73l-.13-1-.16-1.13c-.12-.81-.24-1.61-.37-2.42-.52-3.28-1.07-6.23-1.69-9-.66-3-1.35-5.57-2.11-8-.4-1.27-.81-2.42-1.23-3.52l-.07-.17c-.22-.49-.42-.93-.63-1.36a26.59,26.59,0,0,0-1.37-2.47c-.09-.14-.19-.28-.29-.41s-.19-.28-.29-.41l-.15-.17-1.28.4-1.22.63c-.95.52-1.91,1.11-3,1.82l-1.55,1.1-.52.4c-2.27,1.86-4.42,3.79-6.39,5.72a172.09,172.09,0,0,0-13.7,15.36c-1.18,1.46-2.33,2.93-3.47,4.41l-.15.2c-.12.17-.24.33-.37.48l-.3.4L347,104.33c-2.13,2.88-4.28,5.89-6.39,9-4,5.76-7.72,11.54-11.14,17.18-2.33,3.86-5,8.45-7.46,13.31-.4.8-.79,1.6-1.15,2.42l-.09.22c-1.07,2.84-2,5.81-3,8.68l0,.12c-.05.15-.09.3-.14.45,22.23-32.65,40.08-56,52.87-53.35,14.52,3.05,25.9,40.37,10.33,52.87-10.87,8.71-28.53.26-45.92,11.83-5.93,3.95-4.3,5.22-15.88,20.59a242.86,242.86,0,0,1-16.48,19.63c-.58,2.1-1.17,4.21-1.74,6.31-2.85,10.33-5.78,21-8.86,31.49-1.36,4.61-2.9,9.84-4.73,14.87l-.31.85c-1.37,3.84-3.09,8.61-7.29,11.13a10.24,10.24,0,0,1-5.45,1.45,20.64,20.64,0,0,1-2.52-.18l-2.33-.29c-2.17-.27-4.4-.54-6.61-.93l-2-.25c-1.13-.13-2.25-.25-3.38-.34-2.36-.21-4.86-.33-7.42-.36l-2.57,0a88.63,88.63,0,0,0-10.51.53l-1.1.14L233,272c-.55.08-1.13.18-1.72.29a28,28,0,0,1-4.75.54,11.25,11.25,0,0,1-3-.38c-5.47-1.53-8.12-7-9.7-10.2-2.47-5.06-4.56-10.38-6.5-15.39-5-13-9.77-27.12-14.56-43.29-3.77-12.73-8.47-29.54-11.39-46.69-.64-3.74-1.17-7.46-1.58-11.06,0-.07,0-.15-.05-.23s0-.21-.07-.31a17.29,17.29,0,0,0-.65-2l-.09-.23c-.09-.19-.18-.39-.26-.58-.43-.91-.89-1.86-1.44-2.91-1.07-2-2.3-4.2-3.78-6.63-3-5-6.54-10.17-10.75-15.9-.52-.72-1.05-1.43-1.58-2.14l-.79-1q-.19-.24-.39-.51L158.77,112l-1.7-2.19c-2.31-2.92-4.69-5.81-7-8.58-5-5.86-9.71-10.92-14.38-15.47-2.47-2.4-4.77-4.51-7-6.43-.62-.52-1.24-1-1.87-1.55l-.57-.46c-1-.77-2-1.52-3-2.22a42.24,42.24,0,0,0-5.77-3.4l-.17-.06-.9-.32-.2-.06c-.28.45-.55.88-.78,1.31s-.43.85-.63,1.28l0,.09a64.47,64.47,0,0,0-2,6.44c-.62,2.44-1.16,5.09-1.65,8.1-.13.75-.25,1.5-.36,2.24l-.16,1.16-.1.8-.13,1.09c-.09.74-.17,1.49-.25,2.23a332.3,332.3,0,0,0-1.42,39.93c.14,8.77.35,18.12,1.32,27.42l.07.58c0,.25.08.51.13.77.23,1.3.54,2.66.91,4s.82,2.85,1.34,4.34c.26.74.54,1.48.82,2.21l.36.9a128.35,128.35,0,0,0,9.91,18.13c2,3.06,4.1,6.14,6.49,9.4l1.72,2.33.78,1c1.16,1.5,2.36,3,3.58,4.56,4.4,5.49,9.21,11.14,14.72,17.24,5,5.56,10.26,11.06,15.43,16.42C181.61,234.56,197.32,226.85,199.7,229.75ZM250,347.14c12.05,0,21.81,1.45,21.81,9.34S262,375.75,250,375.75s-21.82-11.37-21.82-19.27S237.94,347.14,250,347.14Z"/><path class="a" d="M133.15,360.57a55,55,0,0,0-3.52-9.81c0,1.55,0,3.14.08,4.81,0,1.46.1,3.18.22,4.87.06.78.12,1.55.2,2.33l.13,1.16.11.72c0,.35.11.7.17,1,.11.69.24,1.38.38,2.06.29,1.47.63,2.95,1,4.39.49,1.81,1.12,3.58,1.79,5.44.32.89.64,1.77.94,2.67l.31.68.38.8C135.88,376.42,135.55,369.81,133.15,360.57Z"/><path class="b" d="M334.84,167c17.39-11.57,35.05-3.12,45.92-11.83,15.57-12.5,4.19-49.82-10.33-52.87-12.79-2.69-30.64,20.7-52.87,53.35-5,15.24-9.42,31.15-13.33,45.2-.59,2.12-1.17,4.25-1.75,6.37A242.86,242.86,0,0,0,319,187.61C330.54,172.24,328.91,171,334.84,167Z"/><path class="b" d="M278.57,215.68c-9.24,15-16.91,28.63-15,29.66.8.44,3.56-1.89,8.52-6.78.2-.69.4-1.37.61-2.07C274.71,229.59,276.66,222.6,278.57,215.68Z"/><path class="c" d="M275.13,415.2c-5-6.38-43.47.28-72.25-10.88-14.78-5.74-26.21-10.43-24.12-24.86,2.7-18.67,28.41-37.53,27.19-48.38-1.72-15.34-44.81.14-53.23-20.37-2.67-6.5-.89-14.27,3.24-22.39-1.4.86-2.76,1.75-4.06,2.69l-.82.6-.39.29-.07.07c-.67.55-1.34,1.11-2,1.68a62,62,0,0,0-5.33,5.61c-.56.65-1.13,1.29-1.7,1.94l0,0-.79,1.13c-.44.65-.87,1.31-1.29,2-.88,1.42-1.72,2.9-2.49,4.42-.37.75-.74,1.51-1.09,2.28l-.43,1-.12.32c-.55,1.44-1.07,2.79-1.52,4.19a82,82,0,0,0-2.46,9.71c-.17.88-.3,1.76-.43,2.63s-.25,1.61-.39,2.41c0,.36-.09.72-.13,1.08q-.13,1.2-.24,2.4c-.3,3.32-.48,6.76-.55,10.51,0,1.78,0,3.62,0,5.53a55,55,0,0,1,3.52,9.81c2.4,9.24,2.73,15.85,2.2,21.16.18.39.36.79.56,1.18.62,1.25,1.29,2.51,2,3.73s1.52,2.52,2.35,3.75c.41.61.83,1.22,1.27,1.82l.55.74a76.53,76.53,0,0,0,5.8,6.51q1.65,1.64,3.44,3.2c.6.53,1.2,1,1.82,1.55l.7.56a104.65,104.65,0,0,0,17.32,10.48c.83.39,1.67.78,2.52,1.15l.18.08a7,7,0,0,1,1,.44h0c1.68.69,3.43,1.37,5.2,2,3.69,1.33,7.61,2.56,11.63,3.64s8.2,2,12.5,2.84c2.2.42,4.49.81,6.79,1.16l1.88.28a5.53,5.53,0,0,1,1,.14l2.52.31A265.23,265.23,0,0,0,247.23,429c4.16,0,8.16-.09,12.06-.25C271.59,423.77,277.82,418.64,275.13,415.2Z"/><path class="c" d="M175.27,254.77l1.26,1.3c.61.62,1.22,1.26,1.82,1.9,12.36-13.94,23.81-25.23,21.35-28.22s-18.09,4.81-33.58,15.51l2.81,2.92Z"/><path class="c" d="M132,413c.37,1.44.84,3,1.42,4.62,7.46,20.86,29.37,26.69,54.67,25.67-17.32-4.44-32-11-43.75-19.61A98,98,0,0,1,132,413Z"/><path class="c" d="M150.54,267.35c1.75-.89,3.56-1.75,5.41-2.56l-2.1-2.18L149.4,258c-17,13.78-39.27,34.31-38.95,57.94a29.56,29.56,0,0,0,.64,5.88,86.07,86.07,0,0,1,4.85-16.72A72.91,72.91,0,0,1,150.54,267.35Z"/><path class="d" d="M163.63,280.9c-.83.34-.18.26.13,0a.68.68,0,0,0,.12-.13Z"/><path class="d" d="M263.39,269l-.24,0h.11C263.71,269,264.2,269.08,263.39,269Z"/><path class="d" d="M116.36,68.05l-.43,0A1.54,1.54,0,0,0,116.36,68.05Z"/><path class="d" d="M333.45,282.43l-.4-.17C333.35,282.39,334.1,282.69,333.45,282.43Z"/><path class="d" d="M226.64,247.79a3.65,3.65,0,0,1,.14.35C226.75,248.05,226.69,247.92,226.64,247.79Z"/><path class="d" d="M117.89,68.59l-.13-.06Z"/><path class="d" d="M115.61,67.85c.1,0,.16,0,.17-.06A.46.46,0,0,1,115.61,67.85Z"/><path class="d" d="M156.71,287.86c1.77-1.06,3.65-2.07,5.54-3l.5-.19a10.75,10.75,0,0,0,2.79-1.3l1.75-.68c2.15-.81,4.4-1.58,6.71-2.27l.52-.15c2.8-.83,6.29-1.86,8.39-5.5a11.25,11.25,0,0,0-.45-11.66,31.68,31.68,0,0,0-4.11-5.16l-2,2.28a28.14,28.14,0,0,1,3.54,4.47,8.29,8.29,0,0,1,.41,8.55c-1.6,2.77-4.35,3.43-7.16,4.27-2.33.7-4.64,1.47-6.91,2.33-.61.23-1.22.47-1.82.72l-.52.21a.37.37,0,0,1-.12.13,16.59,16.59,0,0,1-2.78,1.19c-.73.36-1.45.73-2.18,1.11-1,1.71-2,3.41-2.84,5.09Z"/><path class="d" d="M107,164.68c0-.12,0-.26,0-.4v0C106.93,164.39,107,164.54,107,164.68Z"/><path class="d" d="M135,380.93l-.31-.68c-.3-.9-.62-1.78-.94-2.67-.67-1.86-1.3-3.63-1.79-5.44-.38-1.44-.72-2.92-1-4.39-.14-.68-.27-1.37-.38-2.06-.06-.34-.12-.69-.17-1l-.11-.72-.13-1.16c-.08-.78-.14-1.55-.2-2.33-.12-1.69-.18-3.41-.22-4.87,0-1.67-.07-3.26-.08-4.81a48.68,48.68,0,0,0-3-5.37c-.07,3.42,0,6.84.05,10.26,0,1.67.11,3.34.23,5,.06.81.13,1.61.21,2.42l.12,1.1,0,.12c0,.29.09.66.11.82l.18,1.08c.12.72.25,1.43.39,2.15.31,1.53.66,3,1.06,4.56.77,2.88,1.87,5.6,2.82,8.41.13.28.25.57.38.86.32.69.65,1.39,1,2.07.43.86.88,1.71,1.34,2.55a44.07,44.07,0,0,0,.82-5.07Z"/><path class="d" d="M263,268.93h.12Z"/><path class="d" d="M317.7,155.22l0-.12c.95-2.87,1.92-5.84,3-8.68l.09-.22c.36-.82.75-1.62,1.15-2.42,2.42-4.86,5.13-9.45,7.46-13.31,3.42-5.64,7.17-11.42,11.14-17.18,2.11-3.07,4.26-6.08,6.39-9l1.69-2.27.3-.4c.13-.15.25-.31.37-.48l.15-.2c1.14-1.48,2.29-3,3.47-4.41a172.09,172.09,0,0,1,13.7-15.36c2-1.93,4.12-3.86,6.39-5.72l.52-.4L375.1,74c1-.71,2-1.3,3-1.82l1.22-.63,1.28-.4.15.17c.1.13.2.27.29.41s.2.27.29.41a26.59,26.59,0,0,1,1.37,2.47c.21.43.41.87.63,1.36l.07.17c.42,1.1.83,2.25,1.23,3.52.76,2.4,1.45,5,2.11,8,.62,2.8,1.17,5.75,1.69,9,.13.81.25,1.61.37,2.42l.16,1.13.13,1c.16,1.25.31,2.49.45,3.73a352.65,352.65,0,0,1,2,38.78c0,5.55-.09,10.07-.31,14.24-.07,1.33-.16,2.88-.32,4.38l-.15.92c-.22,1.14-.5,2.33-.84,3.53s-.75,2.52-1.24,3.87c-.18.5-.37,1-.57,1.49-.14.32-.27.63-.34.82a1.86,1.86,0,0,1-.1.25c-1.16,2.65-2.53,5.36-4.16,8.28A171.46,171.46,0,0,1,372,199.11q-.75,1-1.53,2.07l-1,1.3c-1.1,1.42-2.21,2.85-3.33,4.26-2.21,2.78-4.6,5.69-7.11,8.65-4.4,5.2-9.16,10.58-14.58,16.46-4.52,4.9-9.22,9.8-13.77,14.54-3.2,3.33-6.51,6.78-9.73,10.21l-.9.94a46.07,46.07,0,0,0-5.84,7,11.17,11.17,0,0,0-.4,11.61c2.12,3.64,5.62,4.67,8.44,5.5l.77.23c2.32.7,4.58,1.47,6.71,2.29l1.5.59a12.44,12.44,0,0,0,3,1.38l.5.19c1.91.94,3.77,1.95,5.5,3s3.21,2.05,4.62,3.09l.09.08a6.52,6.52,0,0,0,.76.58l.26.21q1.06.9,2,1.8a48.17,48.17,0,0,1,3.67,3.76c.49.55,1,1.12,1.43,1.7l.43.57.26.34a51.27,51.27,0,0,1,4.9,8.56l.4.9c.27.68.53,1.36.77,2,.54,1.52,1,3.11,1.46,4.73a95.72,95.72,0,0,1,1.94,9.59l.12,1c.09.86.17,1.71.25,2.57.14,1.67.25,3.42.33,5.2.14,3.2.18,6.59.11,10.35-.05,3.21-.18,6.62-.38,10.42-.09,1.7-.21,3.25-.37,4.73l-.12,1.07-.07.51c-.07.46-.14.93-.22,1.4a76.2,76.2,0,0,1-2,8.66c-.42,1.42-.88,2.85-1.38,4.23-.23.64-.47,1.28-.72,1.91l-.28.68a67.83,67.83,0,0,1-4,7.72c-.72,1.2-1.5,2.4-2.3,3.57-.42.61-.85,1.21-1.24,1.75l-.47.6a72.79,72.79,0,0,1-6,6.61c-1.1,1.07-2.26,2.14-3.45,3.17l-1.69,1.41-.28.23-.56.43a95.49,95.49,0,0,1-17.3,10.29c-.78.37-1.57.71-2.32,1.05l-1.43.58c-1.75.71-3.57,1.4-5.4,2-3.63,1.27-7.47,2.44-11.42,3.46s-7.88,1.89-12,2.65c-2.13.39-4.32.76-6.52,1.08l-1.8.26-3.31.41c-5.73.65-11.63,1.1-17.81,1.36-2.7,1.1-5.71,2.19-9,3.26a264.18,264.18,0,0,0,27.12-1.61l3.35-.41.19,0h0l1.63-.24c2.22-.33,4.42-.69,6.62-1.1q6.17-1.12,12.23-2.69,5.89-1.53,11.66-3.54c1.85-.65,3.7-1.35,5.53-2.08l1.4-.58,2.48-1.12A97.86,97.86,0,0,0,340.43,408l.37-.28.56-.46c.59-.48,1.17-1,1.75-1.46,1.22-1.06,2.42-2.16,3.58-3.29a74.26,74.26,0,0,0,6.25-6.89l.49-.64c.46-.62.91-1.24,1.35-1.88q1.26-1.83,2.4-3.73a70,70,0,0,0,4.21-8.17l0,0,.25-.63c.26-.66.51-1.32.75-2,.53-1.46,1-2.93,1.44-4.42a78.69,78.69,0,0,0,2.05-9c.08-.49.16-1,.23-1.46,0-.1,0-.31.07-.5v-.08c0-.37.09-.74.13-1.11.17-1.63.29-3.27.38-4.9.18-3.51.32-7,.38-10.53s0-7-.11-10.54c-.08-1.77-.19-3.55-.34-5.32-.08-.88-.16-1.76-.26-2.64,0-.38-.09-.76-.13-1.13a99,99,0,0,0-2-10q-.67-2.5-1.53-4.95c-.28-.77-.57-1.53-.87-2.3-.14-.29-.26-.59-.4-.89a55.21,55.21,0,0,0-5.19-9.05l-.64-.87-.07-.08c-.52-.66-1.05-1.29-1.61-1.92a54,54,0,0,0-3.88-4q-1.05-1-2.16-1.89l-.51-.41a7.1,7.1,0,0,1-.67-.53q-2.39-1.75-4.91-3.29c-1.87-1.14-3.79-2.18-5.75-3.14-.46-.22-2.95-1-3.12-1.44l-.26-.11c-.61-.25-1.21-.49-1.82-.72q-3.42-1.31-6.92-2.36c-2.9-.88-5.81-1.49-7.47-4.35a8.25,8.25,0,0,1,.34-8.48,52.15,52.15,0,0,1,6.39-7.53c7.8-8.29,15.8-16.39,23.52-24.77,5-5.42,9.9-10.92,14.67-16.55q3.64-4.31,7.16-8.72c1.16-1.46,2.29-2.92,3.42-4.39l.15-.2c.27-.34.53-.69.79-1l1.55-2.1A175.65,175.65,0,0,0,386.11,183c1.55-2.78,3-5.62,4.29-8.54l.18-.45c.05-.14.15-.39.26-.63.22-.55.43-1.11.64-1.67.48-1.34.93-2.7,1.31-4.08s.65-2.51.89-3.79c.07-.34.12-.68.18-1a.11.11,0,0,1,0,0c.16-1.53.25-3.08.33-4.62.26-4.79.33-9.6.32-14.4a357.2,357.2,0,0,0-2-39.11c-.17-1.57-.37-3.14-.57-4.71l0-.14c-.05-.39-.11-.77-.16-1.15-.12-.83-.25-1.65-.38-2.47-.49-3.08-1.05-6.16-1.73-9.21-.61-2.77-1.32-5.52-2.17-8.22-.4-1.25-.83-2.49-1.3-3.71,0-.06-.06-.15-.1-.25-.23-.51-.46-1-.7-1.52-.46-.93-1-1.85-1.52-2.74-.21-.34-.46-.66-.68-1l0,0c-.29-.34-.6-.66-.92-1l-.05,0a5.56,5.56,0,0,0-.58-.41l-.15-.08h-.76c-.87.21-1.71.46-2.55.75h0l-.09,0c-.49.23-1,.48-1.44.73-1.1.61-2.16,1.27-3.2,2-.56.37-1.11.76-1.65,1.16l-.49.37c-2.33,1.92-4.58,3.91-6.74,6a178.33,178.33,0,0,0-13.95,15.62c-1.18,1.48-2.35,3-3.5,4.46l-.28.36-.56.75c-.58.76-1.14,1.53-1.71,2.29q-3.3,4.47-6.45,9c-3.9,5.67-7.66,11.44-11.23,17.33-2.67,4.42-5.28,8.9-7.58,13.53-.42.84-.82,1.67-1.2,2.52a1.29,1.29,0,0,0-.09.2l-.08.21c-1.1,2.94-2.09,5.93-3.07,8.92q-1.67,5.1-3.25,10.23,3-4.51,6-8.84C317.61,155.52,317.65,155.37,317.7,155.22Z"/><path class="d" d="M163.88,280.8Z"/><path class="d" d="M284.3,258.87c-1.34,3.68-2.76,8.29-6.31,10.43a8.75,8.75,0,0,1-6,.85c-2.89-.37-5.83-.68-8.71-1.19l-.12,0-.54-.07-1.57-.19c-1.15-.13-2.31-.25-3.47-.35-2.55-.22-5.09-.34-7.64-.37a102.8,102.8,0,0,0-13.48.53l-1.24.16-2.66.37c-2.59.36-5.68,1.26-8.28.53-4-1.11-6.1-5.14-7.8-8.61-2.39-4.92-4.42-10-6.39-15.15-5.45-14.12-10.18-28.54-14.48-43.06-4.51-15.22-8.65-30.66-11.32-46.34-.62-3.66-1.15-7.35-1.56-11l-.18-.8c-.21-.78-.47-1.54-.75-2.3l-.06-.15c-.13-.28-.25-.57-.38-.85-.48-1-1-2-1.51-3-1.21-2.32-2.52-4.58-3.87-6.81-3.38-5.54-7.06-10.89-10.89-16.12l-1.61-2.16c-.39-.53-2.21-2.87-.74-1-1.1-1.4-2.17-2.82-3.27-4.21q-3.49-4.4-7.13-8.67c-4.64-5.43-9.46-10.7-14.57-15.67-2.32-2.26-4.71-4.47-7.18-6.57q-.94-.81-1.92-1.59L128.1,75c-1.07-.81-2.15-1.62-3.27-2.38a46.23,46.23,0,0,0-6.26-3.68l0,0c-.45-.16-.88-.33-1.33-.47s-.91-.27-1.37-.37l-.15,0-.54,0L115,68l-.28.17c-.26.26-.52.52-.77.8-.46.7-.92,1.4-1.32,2.15-.24.47-.48.95-.7,1.43a1.08,1.08,0,0,0-.08.19,66,66,0,0,0-2.17,6.87c-.69,2.75-1.24,5.54-1.7,8.35-.13.76-.25,1.52-.36,2.29l-.18,1.23c0,.26-.08.64-.1.79,0,.38-.09.75-.13,1.12-.09.75-.17,1.51-.25,2.26a336.67,336.67,0,0,0-1.44,40.3c.14,9.22.38,18.51,1.33,27.69,0,.18,0,.37.07.56v.08c0,.31.1.62.16.93.26,1.44.58,2.86,1,4.27s.89,3.06,1.41,4.56c.27.77.56,1.54.86,2.31.12.32.25.64.38,1a132,132,0,0,0,10.16,18.61c2.1,3.25,4.31,6.43,6.59,9.55l1.75,2.36c.25.33.5.65.74,1l0,0q1.8,2.33,3.64,4.64c4.76,5.95,9.74,11.72,14.84,17.38,4.95,5.49,10.05,10.83,15.17,16.15l2.51-1.76c-5.17-5.36-10.41-10.86-15.43-16.42-5.51-6.1-10.32-11.75-14.72-17.24-1.22-1.52-2.42-3.06-3.58-4.56l-.78-1-1.72-2.33c-2.39-3.26-4.51-6.34-6.49-9.4a128.35,128.35,0,0,1-9.91-18.13l-.36-.9c-.28-.73-.56-1.47-.82-2.21-.52-1.49-1-2.95-1.34-4.34s-.68-2.73-.91-4c0-.26-.09-.52-.13-.77l-.07-.58c-1-9.3-1.18-18.65-1.32-27.42A332.3,332.3,0,0,1,110,96c.08-.74.16-1.49.25-2.23l.13-1.09.1-.8.16-1.16c.11-.74.23-1.49.36-2.24.49-3,1-5.66,1.65-8.1a64.47,64.47,0,0,1,2-6.44l0-.09c.2-.43.41-.86.63-1.28s.5-.86.78-1.31l.2.06.9.32.17.06a42.24,42.24,0,0,1,5.77,3.4c1,.7,2,1.45,3,2.22l.57.46c.63.51,1.25,1,1.87,1.55,2.26,1.92,4.56,4,7,6.43,4.67,4.55,9.37,9.61,14.38,15.47,2.36,2.77,4.74,5.66,7,8.58l1.7,2.19,1.09,1.41q.19.27.39.51l.79,1c.53.71,1.06,1.42,1.58,2.14,4.21,5.73,7.72,10.94,10.75,15.9,1.48,2.43,2.71,4.6,3.78,6.63.55,1.05,1,2,1.44,2.91.08.19.17.39.26.58l.09.23a17.29,17.29,0,0,1,.65,2c0,.1,0,.21.07.31s0,.16.05.23c.41,3.6.94,7.32,1.58,11.06,2.92,17.15,7.62,34,11.39,46.69,4.79,16.17,9.56,30.33,14.56,43.29,1.94,5,4,10.33,6.5,15.39,1.58,3.24,4.23,8.67,9.7,10.2a11.25,11.25,0,0,0,3,.38,28,28,0,0,0,4.75-.54c.59-.11,1.17-.21,1.72-.29l2.75-.38,1.1-.14a88.63,88.63,0,0,1,10.51-.53l2.57,0c2.56,0,5.06.15,7.42.36,1.13.09,2.25.21,3.38.34l2,.25c2.21.39,4.44.66,6.61.93l2.33.29a20.64,20.64,0,0,0,2.52.18,10.24,10.24,0,0,0,5.45-1.45c4.2-2.52,5.92-7.29,7.29-11.13l.31-.85c1.83-5,3.37-10.26,4.73-14.87,3.08-10.47,6-21.16,8.86-31.49.57-2.1,1.16-4.21,1.74-6.31-1.43,1.54-2.9,3.11-4.46,4.75-2.95,10.75-5.9,21.5-9,32.19C287.52,249.11,286.06,254.05,284.3,258.87Z"/><path class="d" d="M273.63,255.43l.36,0C274,255.4,273.86,255.39,273.63,255.43Z"/><path class="d" d="M268.37,258.64Z"/><path class="d" d="M106.88,164a1.7,1.7,0,0,0,0,.22v-.05C106.84,163.62,106.72,163.07,106.88,164Z"/><path class="d" d="M378.48,68.57l.38-.17A2.59,2.59,0,0,1,378.48,68.57Z"/><path class="d" d="M138,241.42C127.41,229.65,117.2,217.33,108.5,204c-7.85-12-14.7-25.33-16.32-39.85-1-9-1.21-18.22-1.37-27.3a341.31,341.31,0,0,1,1.34-40.45,149.51,149.51,0,0,1,3.1-19.85c1.21-5,2.84-10.29,5.65-14.65,3.12-4.85,7.44-8.29,13.26-8.82,5-.46,10.13,1.83,14.34,4.22,11.36,6.46,21,16.51,29.69,26.19a293.5,293.5,0,0,1,27.28,35.31,124,124,0,0,1,8.2,14.11,50.66,50.66,0,0,1,2.81,6.82,38.38,38.38,0,0,1,1.16,7.41c.05.32.09.64.14,1q.18,1.26.39,2.52c.27,1.69.57,3.38.88,5.06.69,3.75,1.48,7.49,2.32,11.21,1.82,8.09,3.91,16.12,6.16,24.1,4.32,15.31,9.17,30.48,14.68,45.4,1.09,2.94,2.21,5.88,3.37,8.79l.79,1.95a3.65,3.65,0,0,1,.14.35c.47,1.08.93,2.17,1.42,3.25.57,1.26,1.16,2.51,1.79,3.74l1.08-.15,4.07-.56a95.81,95.81,0,0,1,12.2-.74,118.46,118.46,0,0,1,15.53.92c2.5.32,5,.67,7.47,1,.21-.57.43-1.15.63-1.73,1.81-5.24,3.37-10.58,4.92-15.91.31-1.07.61-2.14.91-3.21-1.64,1.66-3.11,3.14-4.43,4.44-1.34,4.6-2.62,8.87-4.05,13.07-1.69-.24-3.37-.47-5.06-.68a121.3,121.3,0,0,0-15.32-.95h-.61a96.07,96.07,0,0,0-12.59.77l-3,.41-.77-1.68c-.47-1.06-.93-2.13-1.37-3.17,0,0-.67-1.62-.92-2.26-1.08-2.69-2.17-5.54-3.34-8.72-5.24-14.19-10.16-29.39-14.61-45.17-2.44-8.67-4.45-16.5-6.13-23.94-.9-4-1.65-7.62-2.29-11.1-.31-1.66-.6-3.32-.87-5-.13-.82-.26-1.65-.38-2.48l-.13-.9-.11-1.1a33.36,33.36,0,0,0-1.17-6.83,54.79,54.79,0,0,0-3-7.23,129.06,129.06,0,0,0-8.4-14.46,298.74,298.74,0,0,0-27.56-35.68C152,72.09,142,61.51,130,54.68,124.38,51.49,119.75,50,115.45,50c-.53,0-1.06,0-1.57.07-6.24.57-11.61,4.1-15.53,10.2-3.26,5-4.94,11-6,15.59a155.68,155.68,0,0,0-3.18,20.25,343.44,343.44,0,0,0-1.35,40.8c.17,9.82.39,18.68,1.39,27.59C91,181.2,99.65,196,106,205.66c7.62,11.68,17.09,23.69,29.81,37.79,4.45,4.93,9.06,9.79,13.62,14.54l2.37-1.91C147.13,251.26,142.52,246.4,138,241.42Z"/><path class="d" d="M382.24,68.26c0-.07-.17-.13-.35-.18l.1.08C382.14,68.23,382.24,68.28,382.24,68.26Z"/><path class="d" d="M119.72,390.19a78.86,78.86,0,0,1-6.17-18.95,120.32,120.32,0,0,1-1.68-21.53,157.61,157.61,0,0,1,1.31-22,23.52,23.52,0,0,1-2.09-5.91,147.34,147.34,0,0,0-2.25,27.91,124.93,124.93,0,0,0,1.73,22.07,82.26,82.26,0,0,0,6.4,19.68A78.05,78.05,0,0,0,132,413a37.82,37.82,0,0,1-1-5.6A73.59,73.59,0,0,1,119.72,390.19Z"/><path class="d" d="M390.75,173.65l0-.1c-.07.16-.14.31-.2.47S390.52,174.22,390.75,173.65Z"/><path class="d" d="M412.27,142.23A349.83,349.83,0,0,0,410,101.91c-1.62-13.56-3.57-26.68-9.47-38.15-2.05-4-5.63-9.24-11.06-11.78a19.59,19.59,0,0,0-8.3-1.85,27,27,0,0,0-11.31,2.79c-5.81,2.66-10.73,6.81-15.2,10.91a155.47,155.47,0,0,0-14.47,15.52A340.42,340.42,0,0,0,313.5,116.6c-5,8.13-10.71,17.9-14.43,28.81-5.2,15.25-9.51,30.68-13.68,45.6q-2.22,8-4.41,16c-.79,2.88-1.6,5.79-2.41,8.72,1.85-3,3.75-6.05,5.65-9.08q2-7.4,4.09-14.78c4.26-15.22,8.53-30.47,13.63-45.43,3.45-10.1,8.53-19.16,14.14-28.19a336,336,0,0,1,26.4-36.92,154.82,154.82,0,0,1,14.19-15.22c4.32-4,9.06-7.93,14.41-10.39,5.59-2.56,11.32-3.63,17.07-.94,4.3,2,7.51,6.27,9.64,10.42,5.84,11.33,7.67,24.6,9.17,37.12a351.16,351.16,0,0,1,2.28,40c0,9.15.33,18.88-1.85,27.83-3.22,13.15-10.83,25.22-18.57,36.08a388.77,388.77,0,0,1-29.72,36.17c-7.74,8.47-15.75,16.66-23.65,25,2.16.83,4.29,1.72,6.39,2.69a69.47,69.47,0,0,1,21.09,14.81,64.05,64.05,0,0,1,12.85,20.29c5.5,13.44,6.36,28.52,6,42.91A144.89,144.89,0,0,1,380,369.81a83.57,83.57,0,0,1-6,19.25c-5.58,12.61-14.7,23.07-25.49,31.36C336.24,429.84,321.6,436,306.84,440c-19.37,5.22-39.63,7-59.62,7a250.5,250.5,0,0,1-48.79-4.43c-3.49.36-6.94.62-10.34.76l.37.1c17.42,4.42,36.63,6.58,58.76,6.6h0c23,0,42.73-2.35,60.38-7.12,17-4.58,31.35-11.33,42.69-20.05,12.09-9.31,21-20.25,26.41-32.54a85.6,85.6,0,0,0,6.23-20,149.13,149.13,0,0,0,1.87-22.27c.3-12.71-.14-29.21-6.24-44.13a66.66,66.66,0,0,0-13.46-21.23,72.8,72.8,0,0,0-22-15.47c-.8-.37-1.6-.72-2.4-1.07l4-4.16c5.49-5.73,11.17-11.66,16.63-17.64a385.91,385.91,0,0,0,30-36.45c7.5-10.53,15.63-23.18,19-37.12,2.08-8.49,2-17.41,1.95-26Z"/><path class="d" d="M391,173.16l-.12.23-.06.16C390.84,173.42,390.89,173.28,391,173.16Z"/><path class="d" d="M324.9,263.79a2.38,2.38,0,0,1,.32.08C325,263.79,324.91,263.75,324.9,263.79Z"/><path class="d" d="M276.53,234.12c2.63-9.16,5.16-18.34,7.69-27.52-1.9,3-3.8,6.08-5.65,9.08-1.91,6.92-3.86,13.91-5.86,20.81-.21.7-.41,1.38-.61,2.07C273.42,237.26,274.89,235.78,276.53,234.12Z"/><path class="d" d="M304.23,200.87c3.91-14.05,8.34-30,13.33-45.2q-2.94,4.32-6,8.84c-3.63,11.78-6.95,23.67-10.26,35.55Q299.66,206,298,212c1.56-1.64,3-3.21,4.46-4.75C303.06,205.12,303.64,203,304.23,200.87Z"/><path class="d" d="M127.57,330.84a.13.13,0,0,0,0,.06Z"/><path class="d" d="M127.66,330.14c0,.06,0,.11,0,.17C127.69,329.88,127.74,329.49,127.66,330.14Z"/><path class="d" d="M189.21,440.46c-15.19-3.85-30.33-9.87-43.08-19.22A92,92,0,0,1,131,407.41a37.82,37.82,0,0,0,1,5.6,98,98,0,0,0,12.34,10.68c11.71,8.58,26.43,15.17,43.75,19.61,3.4-.14,6.85-.4,10.34-.76C195.34,441.92,192.26,441.23,189.21,440.46Z"/><path class="d" d="M129.66,345.23c.07-3.75.25-7.19.55-10.51q.1-1.2.24-2.4c0-.36.09-.72.13-1.08.14-.8.26-1.6.39-2.41s.26-1.75.43-2.63a82,82,0,0,1,2.46-9.71c.45-1.4,1-2.75,1.52-4.19l.12-.32.43-1c.35-.77.72-1.53,1.09-2.28.77-1.52,1.61-3,2.49-4.42.42-.66.85-1.32,1.29-2l.79-1.13,0,0c.57-.65,1.14-1.29,1.7-1.94a62,62,0,0,1,5.33-5.61c.64-.57,1.31-1.13,2-1.68l.07-.07.39-.29.82-.6c1.3-.94,2.66-1.83,4.06-2.69.85-1.68,1.81-3.38,2.84-5.09-1.23.65-2.45,1.31-3.64,2-1.73,1-3.4,2.13-5,3.3l-1.31,1h0l-.14.12c-.69.57-1.39,1.15-2.06,1.75a96.11,96.11,0,0,0-7.36,7.88l-.12.18c-.29.39-.57.79-.84,1.19-.47.68-.92,1.38-1.36,2.08q-1.41,2.26-2.62,4.65c-.4.78-.78,1.58-1.15,2.38-.16.35-.31.71-.47,1.06-.6,1.57-1.2,3.14-1.72,4.74a85.51,85.51,0,0,0-2.56,10.08c-.32,1.69-.53,3.4-.83,5.09v0c0,.41-.09.82-.14,1.23-.09.82-.17,1.64-.25,2.47-.32,3.56-.49,7.14-.56,10.72v.22a48.68,48.68,0,0,1,3,5.37C129.61,348.85,129.62,347,129.66,345.23Z"/><path class="d" d="M171.52,262.48l.34-.09S171.71,262.39,171.52,262.48Z"/><path class="d" d="M212.72,429.9l.21,0C212.57,429.88,212.15,429.83,212.72,429.9Z"/><path class="d" d="M247.23,429a265.23,265.23,0,0,1-30.81-1.71L213.9,427a5.53,5.53,0,0,0-1-.14l-1.88-.28c-2.3-.35-4.59-.74-6.79-1.16-4.3-.81-8.51-1.77-12.5-2.84s-7.94-2.31-11.63-3.64c-1.77-.64-3.52-1.32-5.2-2h0a7,7,0,0,0-1-.44l-.18-.08c-.85-.37-1.69-.76-2.52-1.15a104.65,104.65,0,0,1-17.32-10.48l-.7-.56c-.62-.51-1.22-1-1.82-1.55q-1.78-1.56-3.44-3.2a76.53,76.53,0,0,1-5.8-6.51l-.55-.74c-.44-.6-.86-1.21-1.27-1.82-.83-1.23-1.62-2.5-2.35-3.75s-1.38-2.48-2-3.73c-.2-.39-.38-.79-.56-1.18a44.07,44.07,0,0,1-.82,5.07c.25.45.5.91.76,1.36q1.16,2,2.45,3.92c.43.64.88,1.28,1.33,1.91l.53.72a80.56,80.56,0,0,0,6.15,6.9c1.15,1.15,2.35,2.26,3.57,3.33.62.55,1.25,1.08,1.89,1.61l.75.61A108.77,108.77,0,0,0,169.86,418c.86.4,1.72.8,2.59,1.18l.36.15c1.25.45.56.22,0,0l-.29-.1c.42.14.83.34,1.24.51,1.76.73,3.53,1.41,5.32,2.06,3.9,1.41,7.87,2.64,11.87,3.71q6.31,1.69,12.73,2.9c2.29.43,4.59.83,6.89,1.18l1.9.28a4.18,4.18,0,0,1,.79.11l2.81.35a268,268,0,0,0,31.15,1.73l3.1,0c3.26-1.07,6.27-2.16,9-3.26C255.39,428.93,251.39,429,247.23,429Z"/><path class="d" d="M118.75,306.24a70,70,0,0,1,33.18-36.19,97.65,97.65,0,0,1,9.29-4.14l-9.45-9.83L149.4,258l4.45,4.62,2.1,2.18c-1.85.81-3.66,1.67-5.41,2.56a72.91,72.91,0,0,0-34.6,37.74,86.07,86.07,0,0,0-4.85,16.72,23.52,23.52,0,0,0,2.09,5.91A88.56,88.56,0,0,1,118.75,306.24Z"/><path class="d" d="M176.53,256.07l-1.26-1.3-6.34-6.59-2.81-2.92L163.61,247q4.74,4.92,9.47,9.85c1,1.1,2.18,2.22,3.26,3.38l2-2.28C177.75,257.33,177.14,256.69,176.53,256.07Z"/><path class="d" d="M115.14,67.9h0l-.15,0s0,0-.05,0Z"/><path class="d" d="M115.67,68l.26,0-.57-.11h0Z"/><path class="d" d="M127.84,74.74l.26.21.15.11C129.21,75.79,126.9,74,127.84,74.74Z"/><path class="d" d="M263.15,269h0l.12,0Z"/><path class="d" d="M114.83,68l-.12.13L115,68l-.14,0Z"/><path class="d" d="M181.51,141.56c.06.18.14.36.21.53s.12.29.19.44C182.35,143.47,181.17,140.61,181.51,141.56Z"/><path class="d" d="M115,67.85l-.11,0h0l.11,0Z"/><path class="d" d="M115.19,67.9h0Z"/><path class="d" d="M117.89,68.59l.63.28.09,0C119.59,69.26,118.35,68.79,117.89,68.59Z"/><path class="d" d="M114.78,67.92l-.06,0h.19l0,0Z"/><path class="d" d="M115,68h-.11l-.06.07.14,0a.1.1,0,0,1,.05,0Z"/><path class="d" d="M115,67.86l-.11,0-.12.09H115S115,67.87,115,67.86Z"/><path class="d" d="M115,68l.1-.06H115l0,0H115Z"/><path class="d" d="M115.2,67.9h-.06L115,68h.09l.18,0Z"/><path class="d" d="M115.13,68l.54,0-.36-.08Z"/><path class="d" d="M115,68l.14,0H115A.1.1,0,0,0,115,68Z"/><path class="d" d="M182.57,144.09c-.09.09.09.88.11,1l0,.23s0,.08,0,.11C183,146.54,182.49,144.18,182.57,144.09Z"/><path class="d" d="M235.07,268.67l.13,0,.18,0C236.74,268.43,233.77,268.83,235.07,268.67Z"/><path class="d" d="M114.9,67.83h0S114.85,67.81,114.9,67.83Z"/><path class="d" d="M332.94,282.21h0l.1,0Z"/><path class="d" d="M372.09,204.11l-.11.13-.24.33C371.17,205.33,372.67,203.35,372.09,204.11Z"/><path class="d" d="M393.89,162.67l0,.15a6.36,6.36,0,0,0-.08.75S394.1,161.47,393.89,162.67Z"/><path class="d" d="M391.89,99.54c0,.13,0,.26.05.39l.06.43C392.15,101.4,391.91,99.71,391.89,99.54Z"/><path class="d" d="M361.81,309.6a1.17,1.17,0,0,0,.05.11l.09.2C362.15,310.34,361.29,308.25,361.81,309.6Z"/><path class="d" d="M355.42,298.61l.21.29.32.4C356.45,299.91,355.38,298.54,355.42,298.61Z"/><path class="d" d="M346.87,290.18l.53.44.06,0S346.26,289.68,346.87,290.18Z"/><path class="d" d="M371,73.23l.28-.21.18-.15C372.36,72.11,370,73.93,371,73.23Z"/><path class="d" d="M386.13,74.86c-.47-1.11-.23-.52-.05-.08l0,.07C386.25,75.16,386.68,76.2,386.13,74.86Z"/><path class="d" d="M317.92,145.23c-.57,1.37-.18.45.05-.08S318.48,143.89,317.92,145.23Z"/><path class="d" d="M366.16,326c0,.27.07.54.1.81V327C366.42,327.82,366.14,325.9,366.16,326Z"/><path class="d" d="M346.54,99.83l.25-.34.23-.3C347.51,98.54,346.5,99.87,346.54,99.83Z"/><path class="d" d="M378.13,68.73l.35-.16C377.91,68.81,377.2,69.06,378.13,68.73Z"/><path class="d" d="M383,69.18a4,4,0,0,0,.23.34c.13.15.25.32.39.46C384.31,70.82,382.73,68.78,383,69.18Z"/><path class="d" d="M381,67.71h.12C380.88,67.62,380.78,67.58,381,67.71Z"/><path class="d" d="M111.61,73.24c.08-.16.15-.33.23-.5l.11-.32C112.33,71.39,111.15,74.22,111.61,73.24Z"/><path class="d" d="M106.92,164.25v0Z"/><path class="d" d="M110.8,177.6c0-.1-.07-.19-.11-.29l0-.06C110.14,176.07,111.28,178.79,110.8,177.6Z"/><path class="d" d="M107.39,91.79c-.19,1.41,0,0,0-.28v0C107.48,91.13,107.49,91,107.39,91.79Z"/><path class="d" d="M366.19,363.37c.12-1,.08-.62,0-.21S366,364.68,366.19,363.37Z"/><path class="d" d="M130,208.91l-.08-.1c-.13-.17-.25-.34-.39-.5S130.49,209.56,130,208.91Z"/><path class="d" d="M115.61,67.85l-.35,0,.1,0Z"/><path class="d" d="M114.5,68h0l.09,0C114.22,68,114,68,114.5,68Z"/><path class="d" d="M115.05,67.72l.11,0S115.12,67.67,115.05,67.72Z"/><path class="d" d="M353.25,395.25c.44-.58.37-.5.18-.26h0C353.24,395.25,352.44,396.31,353.25,395.25Z"/><path class="d" d="M341.2,407.42l-.4.31c-.11.09-.23.17-.33.26C339.86,408.49,341.29,407.35,341.2,407.42Z"/><path class="d" d="M361.67,380.55c-.09.2-.17.41-.25.61l-.15.36C361.22,381.67,362,379.84,361.67,380.55Z"/><path class="d" d="M281,430c-1.26.19,1-.12,0,0Z"/><path class="d" d="M131.56,380.72c-.41-.92.29.68.33.8a1.59,1.59,0,0,0-.07-.2.37.37,0,0,0,0-.11Z"/><path class="d" d="M127.27,364.47c.17,1.27,0,.28,0-.17S127.16,363.62,127.27,364.47Z"/><path class="d" d="M320.13,419.73l0,0-.1,0C318.77,420.34,321.38,419.22,320.13,419.73Z"/><path class="d" d="M390.78,173.55l.06-.16c-.11.24-.21.49-.26.63C390.64,173.86,390.71,173.71,390.78,173.55Z"/><path class="d" d="M269.31,257.36c.2-.34-.31.17,0,0Z"/><path class="d" d="M269.71,256.05c-.08.17-.15.35-.23.52v0l-.2.5C268.84,258.23,270.09,255.26,269.71,256.05Z"/><path class="d" d="M229.77,255.84c-.11-.06-.1,0-.05,0S229.83,255.88,229.77,255.84Z"/><path class="d" d="M228.12,255.16h.07C228.13,255.15,228.11,255.15,228.12,255.16Z"/><path class="d" d="M381.44,68l-.38-.08h0l-.15,0-.22,0h.75Z"/><path class="d" d="M230.05,254.44l-.32,0h0Z"/><path class="d" d="M269.47,256.6v0c.08-.17.15-.35.23-.52.38-.79-.87,2.18-.44,1.05l.2-.5c-.24.51-.51,1-.76,1.51a5,5,0,0,1-.34.53c0-.05.19-.26.57-.76.2-.27.31-.43.37-.52-.31.17.2-.34,0,0,.09-.06.27-.18.57-.41a19,19,0,0,1,3.75-1.52l-1.66-.2-1-.13h-.08l.21,0c1.06.15-1.14-.14-.21,0l-.87-.12c-.12.35-.24.7-.37,1Z"/><path class="d" d="M271.15,255.12l-.21,0C270,255,272.21,255.27,271.15,255.12Z"/><path class="d" d="M381.66,68h.1C381.59,67.85,381.5,67.81,381.66,68Z"/><path class="d" d="M381.7,68l.06,0,.13,0-.13-.1h-.1Z"/><path class="d" d="M381.31,67.82l.31.16h0c-.16-.17-.07-.13.1,0h0c.65,0-.14-.2-.69-.26l.11,0C381.37,67.77,381.45,67.78,381.31,67.82Z"/><path class="d" d="M381.21,67.77l-.11,0H381l.11.07Z"/><path class="d" d="M381.21,67.85l-.08,0,0,0-.27,0a1.67,1.67,0,0,0,.24.08Z"/><path class="d" d="M381,67.71c-.28,0-.43,0-.16.1l.27,0Z"/><path class="d" d="M381.06,67.89a1.67,1.67,0,0,1-.24-.08c-.5.07-1.06.18-.28.18h.15l.22,0Z"/><path class="d" d="M229.39,254.53l.25,0-1,.14a11.09,11.09,0,0,0-1.91.24c-1.08.32,1,.27,1.41.29,0,0,0,0,.07,0h-.07a14.47,14.47,0,0,0,1.6.68c-.05,0-.06-.06.05,0s0,0-.05,0c.11.11.56.44.91.69-.13-.19-.17-.28,0-.06,0,0,.37.36.37.38s-.19-.15-.41-.32c.3.47,1.17,1.58.71.8-.32-.54-.67-1.06-1-1.61s-.42-.83-.63-1.24Z"/><path class="d" d="M329.21,274.13s.08-.05.18-.17a2,2,0,0,0,.19-.28l0,.05Z"/><path class="d" d="M329.21,274c-.18.27-.31.47-.22.38s.15-.19.22-.28S329.19,274.1,329.21,274Z"/><path class="d" d="M230.67,256.47c-.21-.22-.17-.13,0,.06s.41.31.41.32S230.7,256.5,230.67,256.47Z"/><path class="d" d="M305.69,173.27l5.88-8.76q1.59-5.13,3.25-10.23c1-3,2-6,3.07-8.92l.08-.21c-.23.53-.62,1.45-.05.08s.24-.57.05-.08a1.29,1.29,0,0,1,.09-.2c.38-.85.78-1.68,1.2-2.52,2.3-4.63,4.91-9.11,7.58-13.53,3.57-5.89,7.33-11.66,11.23-17.33q3.15-4.57,6.45-9c.57-.76,1.13-1.53,1.71-2.29l.56-.75-.25.34s1-1.29.48-.64l-.23.3.28-.36c1.15-1.5,2.32-3,3.5-4.46a178.33,178.33,0,0,1,13.95-15.62c2.16-2.12,4.41-4.11,6.74-6l-.28.21c-1,.7,1.38-1.12.46-.36l-.18.15.49-.37c.54-.4,1.09-.79,1.65-1.16,1-.71,2.1-1.37,3.2-2,.47-.25.95-.5,1.44-.73l.09,0c-.93.33-.22.08.35-.16a2.59,2.59,0,0,0,.38-.17l-.38.17-.35.16h0c.84-.29,1.68-.54,2.55-.75h-.15c-.78,0-.22-.11.28-.18-.27-.1-.12-.12.16-.1-.2-.13-.1-.09.12,0,.55.06,1.34.23.69.26h0l.13.1c.18,0,.32.11.35.18s-.1,0-.25-.1c.33.27.73.62.62.57a2.14,2.14,0,0,1-.43-.26l.05,0c.32.31.63.63.92,1l0,0a4,4,0,0,1-.23-.34c-.22-.4,1.36,1.64.62.8-.14-.14-.26-.31-.39-.46.22.34.47.66.68,1,.55.89,1.06,1.81,1.52,2.74.24.5.47,1,.7,1.52-.18-.44-.42-1,.05.08.55,1.34.12.3,0,0l0-.07c0,.1.08.19.1.25.47,1.22.9,2.46,1.3,3.71.85,2.7,1.56,5.45,2.17,8.22.68,3.05,1.24,6.13,1.73,9.21.13.82.26,1.64.38,2.47.05.38.11.76.16,1.15l0,.14c0-.13,0-.26-.05-.39,0,.17.26,1.86.11.82l-.06-.43c.2,1.57.4,3.14.57,4.71a357.2,357.2,0,0,1,2,39.11c0,4.8-.06,9.61-.32,14.4-.08,1.54-.17,3.09-.33,4.62a.11.11,0,0,0,0,0l0-.15c.21-1.2-.11.94-.11.9a6.36,6.36,0,0,1,.08-.75c-.06.35-.11.69-.18,1-.24,1.28-.54,2.54-.89,3.79s-.83,2.74-1.31,4.08c-.21.56-.42,1.12-.64,1.67l.12-.23c-.07.12-.12.26-.18.39l0,.1c-.23.57-.25.58-.17.37l-.18.45c-1.29,2.92-2.74,5.76-4.29,8.54a175.65,175.65,0,0,1-11.64,17.89l-1.55,2.1c-.26.35-.52.7-.79,1l-.15.2.11-.13c.58-.76-.92,1.22-.35.46l.24-.33c-1.13,1.47-2.26,2.93-3.42,4.39q-3.51,4.41-7.16,8.72c-4.77,5.63-9.68,11.13-14.67,16.55-7.72,8.38-15.72,16.48-23.52,24.77a52.15,52.15,0,0,0-6.39,7.53,8.25,8.25,0,0,0-.34,8.48c1.66,2.86,4.57,3.47,7.47,4.35q3.49,1.05,6.92,2.36c.61.23,1.21.47,1.82.72l.26.11h0l.11.05.4.17c.65.26-.1,0-.4-.17l-.1,0c.17.41,2.66,1.22,3.12,1.44,2,1,3.88,2,5.75,3.14q2.52,1.53,4.91,3.29a7.1,7.1,0,0,0,.67.53l-.53-.44c-.61-.5.61.47.59.47l-.06,0,.51.41q1.11.92,2.16,1.89a54,54,0,0,1,3.88,4c.56.63,1.09,1.26,1.61,1.92l.07.08-.21-.29c0-.07,1,1.3.53.69l-.32-.4.64.87a55.21,55.21,0,0,1,5.19,9.05c.14.3.26.6.4.89a1.17,1.17,0,0,1-.05-.11c-.52-1.35.34.74.14.31l-.09-.2c.3.77.59,1.53.87,2.3q.86,2.44,1.53,4.95a99,99,0,0,1,2,10v-.08c0-.27-.07-.54-.1-.81,0-.12.26,1.8.12,1v-.09c0,.37.09.75.13,1.13.1.88.18,1.76.26,2.64.15,1.77.26,3.55.34,5.32.15,3.51.17,7,.11,10.54s-.2,7-.38,10.53c-.09,1.63-.21,3.27-.38,4.9,0,.37-.09.74-.13,1.11v.08c.06-.41.1-.75,0,.21-.17,1.31,0,.22,0-.21,0,.19-.06.4-.07.5-.07.49-.15,1-.23,1.46a78.69,78.69,0,0,1-2.05,9c-.44,1.49-.91,3-1.44,4.42-.24.67-.49,1.33-.75,2l-.25.63c.08-.2.16-.41.25-.61.33-.71-.45,1.12-.4,1l.15-.36,0,0a70,70,0,0,1-4.21,8.17q-1.14,1.9-2.4,3.73c-.44.64-.89,1.26-1.35,1.88.19-.24.26-.32-.18.26-.81,1.06,0,0,.18-.25h0l-.49.64a74.26,74.26,0,0,1-6.25,6.89c-1.16,1.13-2.36,2.23-3.58,3.29-.58.5-1.16,1-1.75,1.46l-.56.46.4-.31c.09-.07-1.34,1.07-.73.57.1-.09.22-.17.33-.26l-.37.28a97.86,97.86,0,0,1-17.86,10.62l-2.48,1.12,0,0c1.25-.51-1.36.61-.14.06l.1,0-1.4.58c-1.83.73-3.68,1.43-5.53,2.08q-5.76,2-11.66,3.54-6.06,1.57-12.23,2.69c-2.2.41-4.4.77-6.62,1.1L281,430h0c1-.12-1.26.19,0,0l-.19,0-3.35.41A264.18,264.18,0,0,1,250.32,432l-1,.33a7.7,7.7,0,0,1,5.28,7.15c.18,4-3.51,7.46-7.36,7.46,20,0,40.25-1.79,59.62-7,14.76-4,29.4-10.12,41.63-19.54,10.79-8.29,19.91-18.75,25.49-31.36a83.57,83.57,0,0,0,6-19.25A144.89,144.89,0,0,0,381.8,348c.34-14.39-.52-29.47-6-42.91a64.05,64.05,0,0,0-12.85-20.29A69.47,69.47,0,0,0,341.84,270c-2.1-1-4.23-1.86-6.39-2.69l-.86.9c-1.26,1.33-2.51,2.65-3.72,4-.44.49-.87,1-1.29,1.48a2,2,0,0,1-.19.28c-.1.12-.15.16-.18.17s-.14.19-.22.28,0-.11.22-.38.72-1.43.74-1.49a9.56,9.56,0,0,0,0-3.65,8.77,8.77,0,0,0-2.58-3.8,20.87,20.87,0,0,0-2.11-1.22,2.38,2.38,0,0,0-.32-.08s.14,0,.32.08l1.47.42c3,.86,5.89,1.88,8.76,3,7.9-8.31,15.91-16.5,23.65-25a388.77,388.77,0,0,0,29.72-36.17c7.74-10.86,15.35-22.93,18.57-36.08,2.18-8.95,1.89-18.68,1.85-27.83a351.16,351.16,0,0,0-2.28-40c-1.5-12.52-3.33-25.79-9.17-37.12-2.13-4.15-5.34-8.42-9.64-10.42-5.75-2.69-11.48-1.62-17.07.94-5.35,2.46-10.09,6.43-14.41,10.39a154.82,154.82,0,0,0-14.19,15.22,336,336,0,0,0-26.4,36.92c-5.61,9-10.69,18.09-14.14,28.19-5.1,15-9.37,30.21-13.63,45.43q-2.06,7.4-4.09,14.78c5.09-8.09,10.18-16,14.06-22C301.6,179.46,303.3,176.82,305.69,173.27Z"/><path class="d" d="M329.21,274c0,.07,0,.1,0,.1l.33-.4,0-.05.12-.2C330.12,272.78,329.57,273.52,329.21,274Z"/><path class="d" d="M239.86,439.51a6.94,6.94,0,0,1,1.86-4.91,272.63,272.63,0,0,1-43,7.91l-.29,0A250.5,250.5,0,0,0,247.22,447,7.55,7.55,0,0,1,239.86,439.51Z"/><path class="d" d="M325.22,263.87a20.87,20.87,0,0,1,2.11,1.22,8.77,8.77,0,0,1,2.58,3.8,9.56,9.56,0,0,1,0,3.65c0,.06-.62,1.16-.74,1.49.36-.51.91-1.25.49-.55l-.12.2c.42-.5.85-1,1.29-1.48,1.21-1.36,2.46-2.68,3.72-4l.86-.9c-2.87-1.12-5.79-2.14-8.76-3Z"/><path class="d" d="M254.58,439.51a7.7,7.7,0,0,0-5.28-7.15c-2.4.76-4.92,1.51-7.58,2.24a6.94,6.94,0,0,0-1.86,4.91,7.55,7.55,0,0,0,7.36,7.46C251.07,447,254.76,443.53,254.58,439.51Z"/><path class="d" d="M229.39,254.53l.34-.05h-.09Z"/><path class="d" d="M134.53,386.8c-.46-.84-.91-1.69-1.34-2.55-.34-.68-.67-1.38-1-2.07-.13-.29-.25-.58-.38-.86a1.59,1.59,0,0,1,.07.2c0-.12-.74-1.72-.33-.8l.21.49a.37.37,0,0,1,0,.11c-.95-2.81-2-5.53-2.82-8.41-.4-1.51-.75-3-1.06-4.56-.14-.72-.27-1.43-.39-2.15l-.18-1.08c0-.16-.07-.53-.11-.82,0,.45.18,1.44,0,.17-.11-.85-.08-.59,0-.17l0-.12-.12-1.1c-.08-.81-.15-1.61-.21-2.42-.12-1.67-.18-3.34-.23-5-.09-3.42-.12-6.84-.05-10.26-4.77-7.37-10.25-11.46-13.45-17.67a157.61,157.61,0,0,0-1.31,22,120.32,120.32,0,0,0,1.68,21.53,78.86,78.86,0,0,0,6.17,18.95A73.59,73.59,0,0,0,131,407.41C130.17,399.18,132.94,394.08,134.53,386.8Z"/><path class="d" d="M229.73,254.48h0Z"/><path class="d" d="M382,68.16l-.1-.08-.13,0Z"/><path class="d" d="M163.61,247c-5.12-5.32-10.22-10.66-15.17-16.15-5.1-5.66-10.08-11.43-14.84-17.38q-1.84-2.31-3.64-4.64l0,0,.08.1c.48.65-.5-.64-.47-.6s.26.33.39.5c-.24-.33-.49-.65-.74-1l-1.75-2.36c-2.28-3.12-4.49-6.3-6.59-9.55a132,132,0,0,1-10.16-18.61c0,.1.08.19.11.29.48,1.19-.66-1.53-.14-.35l0,.06c-.13-.32-.26-.64-.38-1-.3-.77-.59-1.54-.86-2.31-.52-1.5-1-3-1.41-4.56s-.7-2.83-1-4.27c-.06-.31-.11-.62-.16-.93,0,.14,0,.28,0,.4,0-.14,0-.29,0-.43a1.7,1.7,0,0,1,0-.22c-.16-1,0-.41,0,.17,0-.19,0-.38-.07-.56-1-9.18-1.19-18.47-1.33-27.69A336.67,336.67,0,0,1,107,95.65c.08-.75.16-1.51.25-2.26,0-.37.08-.74.13-1.12,0-.15.07-.53.1-.79v0c-.05.32-.23,1.69,0,.28.1-.8.09-.66,0-.31l.18-1.23c.11-.77.23-1.53.36-2.29.46-2.81,1-5.6,1.7-8.35a66,66,0,0,1,2.17-6.87c-.08.17-.15.34-.23.5-.46,1,.72-1.85.34-.82l-.11.32a1.08,1.08,0,0,1,.08-.19c.22-.48.46-1,.7-1.43.4-.75.86-1.45,1.32-2.15l0,0a5.58,5.58,0,0,1-.39.46c-.22.19.53-.81.73-1,0,0,.15-.18.36-.36-.25,0-.23,0-.08-.1h0c-.49,0-.28,0,.1,0l.45-.21c.07,0,.12-.07.11,0,.41-.17.72-.23.14.12l-.12.08h.08l.35,0a.46.46,0,0,0,.17-.06s-.07,0-.17.06l-.25.06.57.11.43,0a1.54,1.54,0,0,1-.43,0l-.26,0,.15,0c.46.1.91.23,1.37.37s.88.31,1.33.47l-.63-.28-.13-.06.13.06c.46.2,1.7.67.72.32l-.09,0,0,0a46.23,46.23,0,0,1,6.26,3.68c1.12.76,2.2,1.57,3.27,2.38l-.26-.21c-.94-.77,1.37,1.05.41.32L128.1,75l.55.45q1,.78,1.92,1.59c2.47,2.1,4.86,4.31,7.18,6.57,5.11,5,9.93,10.24,14.57,15.67q3.65,4.27,7.13,8.67c1.1,1.39,2.17,2.81,3.27,4.21-1.47-1.87.35.47.74,1l1.61,2.16c3.83,5.23,7.51,10.58,10.89,16.12,1.35,2.23,2.66,4.49,3.87,6.81.53,1,1,2,1.51,3,.13.28.25.57.38.85-.07-.17-.15-.35-.21-.53-.34-.95.84,1.91.4,1-.07-.15-.13-.29-.19-.44l.06.15c.28.76.54,1.52.75,2.3l.18.8,0-.23c0-.14-.2-.93-.11-1-.08.09.45,2.45.16,1.36,0,0,0-.07,0-.11.41,3.7.94,7.39,1.56,11,2.67,15.68,6.81,31.12,11.32,46.34,4.3,14.52,9,28.94,14.48,43.06,2,5.11,4,10.23,6.39,15.15,1.7,3.47,3.82,7.5,7.8,8.61,2.6.73,5.69-.17,8.28-.53l2.66-.37-.13,0c-1.3.16,1.67-.24.31,0l-.18,0,1.24-.16a102.8,102.8,0,0,1,13.48-.53c2.55,0,5.09.15,7.64.37,1.16.1,2.32.22,3.47.35l1.57.19.54.07H263l.12,0,.24,0c.81.1.32,0-.13,0,2.88.51,5.82.82,8.71,1.19a8.75,8.75,0,0,0,6-.85c3.55-2.14,5-6.75,6.31-10.43,1.76-4.82,3.22-9.76,4.67-14.69,3.15-10.69,6.1-21.44,9-32.19-3.76,4-8,8.29-12.93,13.37-3.24,3.33-6.08,6.24-8.56,8.76-.3,1.07-.6,2.14-.91,3.21-1.55,5.33-3.11,10.67-4.92,15.91-.2.58-.42,1.16-.63,1.73l.87.12H271l1,.13,1.66.2c.23,0,.37,0,.36,0l-.36,0a19,19,0,0,0-3.75,1.52c-.3.23-.48.35-.57.41s-.17.25-.37.52c-.38.5-.54.71-.57.76h0a5,5,0,0,0,.34-.53c.25-.5.52-1,.76-1.51l.23-.59c.13-.34.25-.69.37-1-2.48-.35-5-.7-7.47-1a118.46,118.46,0,0,0-15.53-.92,95.81,95.81,0,0,0-12.2.74l-4.07.56-1.08.15h0l.32,0-.32,0c.21.41.41.83.63,1.24s.66,1.07,1,1.61c.46.78-.41-.33-.71-.8-.35-.25-.8-.58-.91-.69a14.47,14.47,0,0,1-1.6-.68c-.41,0-2.49,0-1.41-.29a11.09,11.09,0,0,1,1.91-.24l1-.14h.08c-.63-1.23-1.22-2.48-1.79-3.74-.49-1.08-1-2.17-1.42-3.25.05.1.09.2.13.3s.11.26.14.35a3.65,3.65,0,0,0-.14-.35l-.14-.33v0a3.65,3.65,0,0,0-.14-.35l-.79-1.95c-1.16-2.91-2.28-5.85-3.37-8.79-5.51-14.92-10.36-30.09-14.68-45.4-2.25-8-4.34-16-6.16-24.1-.84-3.72-1.63-7.46-2.32-11.21-.31-1.68-.61-3.37-.88-5.06q-.21-1.26-.39-2.52c-.05-.32-.09-.64-.14-1,0,0,0,.09,0,.13.1.92-.25-1.8-.12-.87,0,.19.05.37.08.56l0,.18a38.38,38.38,0,0,0-1.16-7.41,50.66,50.66,0,0,0-2.81-6.82,124,124,0,0,0-8.2-14.11A293.5,293.5,0,0,0,158.19,83.5c-8.69-9.68-18.33-19.73-29.69-26.19-4.21-2.39-9.39-4.68-14.34-4.22-5.82.53-10.14,4-13.26,8.82-2.81,4.36-4.44,9.63-5.65,14.65a149.51,149.51,0,0,0-3.1,19.85,341.31,341.31,0,0,0-1.34,40.45c.16,9.08.36,18.26,1.37,27.3C93.8,178.68,100.65,192,108.5,204c8.7,13.32,18.91,25.64,29.53,37.41,4.49,5,9.1,9.84,13.74,14.66l4.45-3.52C158.62,250.67,161.1,248.81,163.61,247Z"/><path class="d" d="M226.64,247.79c0-.1-.08-.2-.13-.3v0Z"/><path class="d" d="M197.54,146.41c-.13-.93.22,1.79.12.87,0,0,0-.08,0-.13l0-.18C197.59,146.78,197.57,146.6,197.54,146.41Z"/><path class="d" d="M167.36,272.53c.11.14.22.27.34.4.4.47.15.09-.16-.33C167.59,272.74,167.55,272.76,167.36,272.53Z"/><path class="d" d="M381.06,67.89h0l.38.08a2.53,2.53,0,0,1-.23-.12Z"/><path class="d" d="M114.33,68.4l-.06,0a.82.82,0,0,1-.12.2l-.21.34c.25-.28.51-.54.77-.8Z"/><path class="d" d="M167.35,272.52h0Z"/><path class="d" d="M114.27,68.43h0c-.2.23-1,1.23-.73,1a5.58,5.58,0,0,0,.39-.46l0,0,.21-.34A.82.82,0,0,0,114.27,68.43Z"/><path class="d" d="M381.72,68l.07.07.39.36a2.14,2.14,0,0,0,.43.26c.11,0-.29-.3-.62-.57l-.23-.11Z"/><path class="d" d="M167,272c-.22-.4.19.11.53.57-.08-.22-.35-.73-.54-1.09l-.25.32.59.69A5.25,5.25,0,0,1,167,272Z"/><path class="d" d="M163.76,280.93c-.31.23-1,.31-.13,0l.25-.1h0l.52-.21c.6-.25,1.21-.49,1.82-.72,2.27-.86,4.58-1.63,6.91-2.33,2.81-.84,5.56-1.5,7.16-4.27a8.29,8.29,0,0,0-.41-8.55,28.14,28.14,0,0,0-3.54-4.47c-3.17,3.63-6.36,7.42-9.34,11.26.19.36.46.87.54,1.09.31.42.56.8.16.33-.12-.13-.23-.26-.34-.4h0l-.59-.69a127.91,127.91,0,0,0-7.95,11.4c.73-.38,1.45-.75,2.18-1.11A16.59,16.59,0,0,0,163.76,280.93Z"/><path class="d" d="M114.27,68.43c0-.05,0,0,0,0Z"/><path class="d" d="M167,272a5.25,5.25,0,0,0,.33.49h0c.19.23.23.21.18.07C167.2,272.14,166.79,271.63,167,272Z"/><path class="d" d="M163.76,280.93a.37.37,0,0,0,.12-.13h0A.68.68,0,0,1,163.76,280.93Z"/><path class="d" d="M115,67.85l.14-.17-.11,0-.14.1Z"/><path class="d" d="M115,67.85l.16,0,.12-.08c.58-.35.27-.29-.14-.12Z"/><path class="d" d="M115,67.86l.15,0h0l-.16,0Z"/><path class="d" d="M115.19,67.9h0Z"/><path class="d" d="M114.9,67.83c-.05,0,0,0,0,0l.14-.1-.45.21h.18Z"/><path class="d" d="M114.51,68c-.15.09-.17.15.08.1l.13-.11Z"/><path class="d" d="M114.85,68l.06-.07h-.19l-.13.11.12,0Z"/><path class="d" d="M114.78,67.92h-.18l-.09,0h.21Z"/><path class="d" d="M114.27,68.43l.06,0,.38-.23.12-.13h0l-.14,0-.12,0c-.21.18-.4.35-.36.36S114.3,68.38,114.27,68.43Z"/><path class="d" d="M115.2,67.9l.11,0h0l-.1,0h-.06Z"/><path class="d" d="M381.62,68l-.31-.16-.1,0a2.53,2.53,0,0,0,.23.12h.18Z"/><path class="d" d="M381.76,68.05l-.06,0,0,0Z"/><path class="d" d="M381.66,68h0l.08,0Z"/><path class="d" d="M381.21,67.77h-.12l0,0,.08,0,.1,0Z"/><path class="d" d="M381.72,68l0,0-.08,0h-.15Z"/><path class="d" d="M381.21,67.77l.1,0C381.45,67.78,381.37,67.77,381.21,67.77Z"/><path class="d" d="M381.72,68l-.25-.06h0l.15.08a5.56,5.56,0,0,1,.58.41l-.39-.36Z"/><path class="d" d="M381.44,68h0Z"/><path class="d" d="M285.09,225.36c5-5.08,9.17-9.41,12.93-13.37q1.64-6,3.29-11.93c3.31-11.88,6.63-23.77,10.26-35.55l-5.88,8.76c-2.39,3.55-4.09,6.19-7.41,11.33-3.88,6-9,13.91-14.06,22-2.53,9.18-5.06,18.36-7.69,27.52C279,231.6,281.85,228.69,285.09,225.36Z"/><path class="d" d="M132.67,310.87l0-.06.09-.22C133,310.15,132.08,312.2,132.67,310.87Z"/><path class="d" d="M241.72,434.6a7.59,7.59,0,0,1,5.5-2.55,268,268,0,0,1-31.15-1.73l-2.81-.35h0l-.37-.06-.21,0c-.57-.07-.15,0,.21,0l.33.05a4.18,4.18,0,0,0-.79-.11l-1.9-.28c-2.3-.35-4.6-.75-6.89-1.18q-6.42-1.22-12.73-2.9c-4-1.07-8-2.3-11.87-3.71-1.79-.65-3.56-1.33-5.32-2.06-.41-.17-.82-.37-1.24-.51l.29.1-.36-.15c-.87-.38-1.73-.78-2.59-1.18A108.77,108.77,0,0,1,152,407.16l.15.11c1.1.89-.65-.49-.27-.2l.12.09-.75-.61c-.64-.53-1.27-1.06-1.89-1.61-1.22-1.07-2.42-2.18-3.57-3.33a80.56,80.56,0,0,1-6.15-6.9l.22.29c.26.38-1.14-1.45-.28-.36l.06.07-.53-.72c-.45-.63-.9-1.27-1.33-1.91q-1.29-1.92-2.45-3.92c-.26-.45-.51-.91-.76-1.36-1.59,7.28-4.36,12.38-3.55,20.61a92,92,0,0,0,15.15,13.83c12.75,9.35,27.89,15.37,43.08,19.22,3,.77,6.13,1.46,9.22,2.08l.29,0A272.63,272.63,0,0,0,241.72,434.6Z"/><path class="d" d="M139.11,299.44l.15-.17.24-.33C140.08,298.13,139.28,299.25,139.11,299.44Z"/><path class="d" d="M166.85,271.26a.17.17,0,0,1,0-.07.15.15,0,0,1,0-.06S166.84,271.21,166.85,271.26Z"/><path class="d" d="M148.82,289.52c1.07-.89-1,.75,0,0Z"/><path class="d" d="M127.57,330.84s0-.08,0-.12,0-.28,0-.41C127.61,330.51,127.59,330.73,127.57,330.84Z"/><path class="d" d="M166.49,271.52l.26.31.25-.32-.16-.32a.17.17,0,0,0,0,.07c0-.05,0-.09,0-.13a.15.15,0,0,0,0,.06,7.72,7.72,0,0,1,0-3.7,8.75,8.75,0,0,1,2.58-3.8,22.5,22.5,0,0,1,2.09-1.21c-.49.13-1.33.38-1.43.41-1.34.39-2.67.8-4,1.24-1.64.55-3.27,1.15-4.88,1.78l1.7,1.77C164.13,269,165.33,270.21,166.49,271.52Z"/><path class="d" d="M249.3,432.36l1-.33-3.1,0A7.12,7.12,0,0,1,249.3,432.36Z"/><path class="d" d="M126.63,345.17c.07-3.58.24-7.16.56-10.72.08-.83.16-1.65.25-2.47,0-.41.09-.82.14-1.23v0s0,.08,0,.12v.06a.13.13,0,0,1,0-.06c0-.11,0-.33.07-.53s0-.11,0-.17c.08-.65,0-.26,0,.17,0,.13,0,.27,0,.41.3-1.69.51-3.4.83-5.09A85.51,85.51,0,0,1,131,315.55c.52-1.6,1.12-3.17,1.72-4.74l0,.06c-.59,1.33.28-.72.12-.28l-.09.22c.16-.35.31-.71.47-1.06.37-.8.75-1.6,1.15-2.38q1.22-2.39,2.62-4.65c.44-.7.89-1.4,1.36-2.08.27-.4.55-.8.84-1.19l.12-.18-.15.17c.17-.19,1-1.31.39-.5l-.24.33a96.11,96.11,0,0,1,7.36-7.88c.67-.6,1.37-1.18,2.06-1.75l.14-.12c-1,.75,1.07-.89,0,0h0l1.31-1c1.63-1.17,3.3-2.27,5-3.3,1.19-.71,2.41-1.37,3.64-2a127.91,127.91,0,0,1,7.95-11.4l-.26-.31c-1.16-1.31-2.36-2.57-3.57-3.84l-1.7-1.77a97.65,97.65,0,0,0-9.29,4.14,70,70,0,0,0-33.18,36.19,88.56,88.56,0,0,0-5.57,21.48c3.2,6.21,8.68,10.3,13.45,17.67Z"/><path class="d" d="M213.3,430h0l-.33-.05Z"/><path class="d" d="M241.72,434.6c2.66-.73,5.18-1.48,7.58-2.24a7.12,7.12,0,0,0-2.08-.31A7.59,7.59,0,0,0,241.72,434.6Z"/><path class="d" d="M152.11,407.27l-.15-.11-.12-.09C151.46,406.78,153.21,408.16,152.11,407.27Z"/><path class="d" d="M170.09,262.89c.1,0,.94-.28,1.43-.41.19-.09.32-.13.34-.09l-.34.09a22.5,22.5,0,0,0-2.09,1.21,8.75,8.75,0,0,0-2.58,3.8,7.72,7.72,0,0,0,0,3.7l.16.32c3-3.84,6.17-7.63,9.34-11.26-1.08-1.16-2.21-2.28-3.26-3.38q-4.72-4.94-9.47-9.85c-2.51,1.79-5,3.65-7.39,5.54l-4.45,3.52,9.45,9.83c1.61-.63,3.24-1.23,4.88-1.78C167.42,263.69,168.75,263.28,170.09,262.89Z"/><path class="d" d="M172.81,419.32c.56.22,1.25.45,0,0Z"/><path class="d" d="M139.82,395l-.22-.29-.06-.07C138.68,393.55,140.08,395.38,139.82,395Z"/><path class="d" d="M250,375.75c12.05,0,21.81-11.37,21.81-19.27S262,347.14,250,347.14s-21.82,1.45-21.82,9.34S237.94,375.75,250,375.75Z"/></svg>