<svg xmlns="http://www.w3.org/2000/svg" viewBox="0 0 500 500"><defs><style>.a{fill:#fff;}.b{fill:#f3ccc8;}.c{fill:#e9a29b;}.d{fill:#de7469;}</style></defs><path class="a" d="M356.19,149.25c5.11-9.6,2.19-20.89,3.93-31.37,1.86-11.29,5.77-22.34,12.14-31.57a58.28,58.28,0,0,1,12.82-13.49A27.68,27.68,0,0,0,381.43,74a36.17,36.17,0,0,0-6,3.9,63.3,63.3,0,0,0-8.51,9.51c-2.55,3.66-4.87,7.5-7.14,11.36a102.9,102.9,0,0,0-6.81,13.51,70.5,70.5,0,0,0-3.45,13.38,65.07,65.07,0,0,0-.39,6.69c0,.18,0,.35,0,.53s0,.26,0,.38a9.4,9.4,0,0,1-.62,3.66c2.4,4.45,4.74,8.93,7.11,13.41C355.8,150,356,149.61,356.19,149.25Z"/><path class="a" d="M279.12,363.12l.11-.14.19-.26c.12-.15,0,0-.21.25h0A1.51,1.51,0,0,1,279.12,363.12Z"/><path class="a" d="M279.12,363.12l-.42.55,0,0s0,.05,0,0A2.33,2.33,0,0,0,279.12,363.12Z"/><path class="a" d="M336.29,374.45c-1.48-5.39-2.44-11.49-.08-16.47,2.89-6.08,9.65-8.36,15.8-9.29C370,346,382.3,336.16,387.9,316.47c4.42-15.57,2-34.29-12.8-41.65-8-4-18.43-4-23.23-12.12-3.95-6.67-1.88-15.51.46-23,4.33-14,14.53-31,9.73-46.07-8.86-27.83-37.91-47-62.28-56.17a86.13,86.13,0,0,0-41.06-4.85c-14,1.77-27.12,8-41.13,9.51-5.26.56-11,.25-15.22-3.16-9.84-7.91,1.74-17.37-1.35-26.63-2.47.93-4.91,2-7.33,3a158.34,158.34,0,0,0-33.1,21.07c-1.07.91-2.13,1.82-3.18,2.75a10.14,10.14,0,0,1-7.3,3.7,9.47,9.47,0,0,1-6.85-3.07c-.1-.11-.18-.22-.27-.33a11.25,11.25,0,0,1-2.67-7.23,10.19,10.19,0,0,1,.06-1.08c0-1.83-.15-3.65-.34-5.47a71.26,71.26,0,0,0-3.45-13.38,105.43,105.43,0,0,0-6.81-13.51c-2.28-3.86-4.6-7.7-7.15-11.37a63.72,63.72,0,0,0-8.51-9.5,36.5,36.5,0,0,0-6-3.9,28,28,0,0,0-4.79-1.43,26.76,26.76,0,0,0-4.82,0,29.74,29.74,0,0,0-5.34,1.59,40.4,40.4,0,0,0-6.78,4.34,61.39,61.39,0,0,0-8.44,9.18,54.45,54.45,0,0,0-5.13,9.59,65.81,65.81,0,0,0-3,12.34,75.65,75.65,0,0,0,0,15.49,64.86,64.86,0,0,0,3.19,12.64,67.8,67.8,0,0,0,6.5,12C85.57,158.08,93.26,165,101,171.53c1,.8,1.94,1.57,3,2.32q3.09-5.28,6.46-10.35a10.14,10.14,0,0,1,3.47-3.76l2.32-1.06a9.12,9.12,0,0,1,7.46,1.06,10.6,10.6,0,0,1,4.45,6.26c.61,2.38.42,6-1,8.08q-5.84,8.74-10.8,18.11a9.48,9.48,0,0,1-1.5,2.38v0c-.17.2-.35.39-.53.57l-.06.06q-3.8,7.36-7,15a184.69,184.69,0,0,0-7,21.26,272.33,272.33,0,0,0-6.16,32.16c-.38,3.07-.72,6.16-1,9.25a208.71,208.71,0,0,0,.51,42.92,150.13,150.13,0,0,0,8.75,34.3A121.51,121.51,0,0,0,115.67,374,121.17,121.17,0,0,0,135,394a152.27,152.27,0,0,0,32,19.28,190.27,190.27,0,0,0,47,13.12q6.24.84,12.52,1.33a221.29,221.29,0,0,0,46.16-1.39,200.75,200.75,0,0,0,49.65-13.86,156.37,156.37,0,0,0,26.21-14.81C342.5,391.7,338.68,383.13,336.29,374.45Zm-32.62-39.9a72.06,72.06,0,0,1-14.81,40.11,62.45,62.45,0,0,1-25.92,19.59c-15.45,6.18-33.11,3.5-46.68-6.24a8.12,8.12,0,0,1-2.61-10.49c1.75-3.49,6.79-5,9.94-2.76a50.62,50.62,0,0,0,7.69,4.55,42.57,42.57,0,0,0,9.23,2.67,43.38,43.38,0,0,0,9.53,0,45.13,45.13,0,0,0,9.87-2.87,52.33,52.33,0,0,0,8.23-4.89c.57-.42,1.13-.85,1.68-1.28l.37-.32c1-.83,1.92-1.7,2.84-2.59a62,62,0,0,0,4.27-4.6c.47-.56.92-1.13,1.37-1.71.07-.12.34-.47.54-.74a59.53,59.53,0,0,0,6.1-11.21A66.8,66.8,0,0,0,288.83,338a75.47,75.47,0,0,0-.06-16.93,76.75,76.75,0,0,0-3.38-14.17c-.19.63-.38,1.26-.59,1.89-1.64,4.74-4.43,9.64-9.12,11.38s-5.22-1.9-5.43-5.68a23,23,0,0,0-8.61-16.43,23.7,23.7,0,0,0-29.73.06,20.84,20.84,0,0,0-3.83,4.19l.23-.2c4.43-3.65,9.27-3.8,15.59-4,7-.21,13.09-.4,17.94,4,5.23,4.73,5.64,11.75,5.76,13.65.58,9.84-5.42,18.6-12.55,22.68a20.91,20.91,0,0,1-11.15,2.94,20.63,20.63,0,0,1-9.83-2.94c-6.57-3.81-13.52-12.38-12.55-22.68,0-.48.14-1.26.32-2.22-4.94,10-11.59,26.69-18.34,34.4.24.68.5,1.36.77,2l.51,1.12a8,8,0,0,1,.74,5.49,7.25,7.25,0,0,1-3.34,4.25,7.53,7.53,0,0,1-5.6.72,7.28,7.28,0,0,1-4.34-3.27c-.78-1.63-1.47-3.3-2.11-5-2.9-1.53-4.92-4.89-6.16-8.11a49.22,49.22,0,0,1-2.89-22.94,50.15,50.15,0,0,1,3.48-13.59,51.38,51.38,0,0,1,10-15.25,62.05,62.05,0,0,1,7.95-11.9,6.79,6.79,0,0,1,9-1A79.22,79.22,0,0,1,247,271c.85-3.17,3.88-5.92,7-5.66a74.66,74.66,0,0,1,7.44,1,45.74,45.74,0,0,1,23,11.87,55,55,0,0,1,12.17,17.64A83.51,83.51,0,0,1,303.67,334.55Z"/><path class="b" d="M281.36,298.16c-.67-1.16-1.38-2.3-2.14-3.41l-.32-.46c-.38-.5-.76-1-1.16-1.46a39.8,39.8,0,0,0-2.7-3c-.47-.47-1-.94-1.45-1.38-.22-.21-.46-.41-.69-.61a39.84,39.84,0,0,0-6.8-4.21,43.93,43.93,0,0,0-9.64-2.72c-.82-.1-1.64-.21-2.46-.27a7.67,7.67,0,0,1-7.27-7.67,6.55,6.55,0,0,1,.24-2,79.22,79.22,0,0,0-35.51,9.51,7.82,7.82,0,0,1,1.29,1c3,3,2.58,8.11,0,11.12-.51.59-1,1.19-1.48,1.8l-.63.82c-.79,1.18-1.56,2.37-2.27,3.61a62.81,62.81,0,0,0-3.63,7.47,77,77,0,0,0-4,16,76.15,76.15,0,0,0-.46,10.24c.07,1.47.2,2.93.38,4.39a59.71,59.71,0,0,0,2.82,11c6.75-7.71,13.4-24.41,18.34-34.4a19.83,19.83,0,0,1,6.24-11.23,20.84,20.84,0,0,1,3.83-4.19,23.7,23.7,0,0,1,29.73-.06,23,23,0,0,1,8.61,16.43c.21,3.78.8,7.4,5.43,5.68s7.48-6.64,9.12-11.38c.21-.63.4-1.26.59-1.89-.24-.71-.5-1.41-.77-2.11A58.46,58.46,0,0,0,281.36,298.16Z"/><path class="b" d="M185.8,333.93c0-.49,0-1,0-1.47,0-.17,0-.35,0-.53s0-.33,0-.49a76.13,76.13,0,0,1,.4-8.41,83.43,83.43,0,0,1,8.38-29.6,51.38,51.38,0,0,0-10,15.25,50.15,50.15,0,0,0-3.48,13.59A49.22,49.22,0,0,0,184,345.21c1.24,3.22,3.26,6.58,6.16,8.11a67.14,67.14,0,0,1-4.2-18.22A11,11,0,0,1,185.8,333.93Z"/><path class="c" d="M372.26,86.31c-6.37,9.23-10.28,20.28-12.14,31.57-1.74,10.48,1.18,21.77-3.93,31.37-.19.36-.39.71-.61,1.07-2.37-4.48-4.71-9-7.11-13.41a12.46,12.46,0,0,1-2.22,3.76,9.46,9.46,0,0,1-6.84,3.07c-2.74,0-4.82-1.25-6.85-3.07-1.14-1-2.3-2-3.46-3a162.27,162.27,0,0,0-34.18-21.74A139.38,139.38,0,0,0,260,105.53a126,126,0,0,0-33.26-.1A129.61,129.61,0,0,0,201,112.28c3.09,9.26-8.49,18.72,1.35,26.63,4.24,3.41,10,3.72,15.22,3.16,14-1.5,27.14-7.74,41.13-9.51a86.13,86.13,0,0,1,41.06,4.85c24.37,9.18,53.42,28.34,62.28,56.17,4.8,15.09-5.4,32.09-9.73,46.07-2.34,7.54-4.41,16.38-.46,23,4.8,8.1,15.27,8.14,23.23,12.12,14.78,7.36,17.22,26.08,12.8,41.65C382.3,336.16,370,346,352,348.69c-6.15.93-12.91,3.21-15.8,9.29-2.36,5-1.4,11.08.08,16.47,2.39,8.68,6.21,17.25,12.32,23.17q2.89-2,5.69-4.24A118,118,0,0,0,373,374a121.46,121.46,0,0,0,13.27-23.84,150.48,150.48,0,0,0,8.79-34.6q.7-5.94,1-11.91a225.35,225.35,0,0,0-1.53-39.72q-.57-4.31-1.29-8.6c-2.59-15.46-6.19-30.7-11.91-45.26Q377.6,201,373,192.36a10.55,10.55,0,0,1,3.48-13.83,8.16,8.16,0,0,1,3.71-1.33l.4-.16a48.58,48.58,0,0,0,7.94-5.51c7.75-6.53,15.44-13.45,21.58-21.79a68.49,68.49,0,0,0,6.51-12,64.84,64.84,0,0,0,3.18-12.64,75.65,75.65,0,0,0,0-15.49,65,65,0,0,0-3-12.34,55.07,55.07,0,0,0-5.12-9.59,61.45,61.45,0,0,0-8.45-9.18,40.4,40.4,0,0,0-6.78-4.34A29.64,29.64,0,0,0,391,72.56a26.76,26.76,0,0,0-4.82,0c-.38.08-.76.16-1.14.26A58.28,58.28,0,0,0,372.26,86.31Z"/><path class="c" d="M310.47,100.65A160.42,160.42,0,0,1,332,114.19c.24-1,.48-1.91.75-2.85-7-9.52-15.11-18.41-25.07-24.08-18.71-10.65-41-8.76-61.31-3.81a146.17,146.17,0,0,1,23.84,2.72A149.76,149.76,0,0,1,310.47,100.65Z"/><path class="c" d="M375.41,401a32.93,32.93,0,0,0,6.64-5.16c16.75-16.67,25.84-37.41,28.83-59.57-5.19,21.88-15.16,42.43-30,59C379.14,397.3,377.3,399.19,375.41,401Z"/><path class="c" d="M425.15,70.94A32.07,32.07,0,0,0,422,68.81a83.44,83.44,0,0,1,5.93,7.62,64,64,0,0,1,7.76,16A77.39,77.39,0,0,1,439,108.26c2.12,17.58-1.81,36-11.2,50.61a101.47,101.47,0,0,1-16.9,19.79Q405,184,399,189.07l-.14.11c25.47-8.12,48.14-29.85,50.91-60.44C451.76,106.56,441.75,83.48,425.15,70.94Z"/><path class="d" d="M157.41,139.13c1.05-.93,2.11-1.84,3.18-2.75l-1,.79c.65-.55,1.3-1.1,2-1.64-.34.28-.66.57-1,.85a158.34,158.34,0,0,1,33.1-21.07l-1.27.55,2.31-1-1,.5c2.42-1.08,4.86-2.1,7.33-3,0-.1-.06-.19-.1-.29-1-2.62-3.27-5.29-2.11-7.82a5.7,5.7,0,0,1,2.07-2.15c11.08-7.85,23.81-12.5,36.6-16.2,2.89-.84,5.84-1.64,8.84-2.37a121.66,121.66,0,0,0-19.44,1A142.65,142.65,0,0,0,204.73,89a156.24,156.24,0,0,0-47.47,24.28,77.16,77.16,0,0,1,2.54,19A10.5,10.5,0,0,1,157.41,139.13Z"/><path class="d" d="M159.62,137.17l1-.79c.33-.28.65-.57,1-.85C160.92,136.07,160.27,136.62,159.62,137.17Z"/><path class="d" d="M349.06,132.87a10.81,10.81,0,0,1-.8,3.65l.21.39a9.4,9.4,0,0,0,.62-3.66C349.09,133.13,349.07,133,349.06,132.87Z"/><path class="d" d="M192.42,115.86l1.27-.55,1-.5Z"/><path class="d" d="M143,139.43a11.43,11.43,0,0,1-2.57-7.09c0-.41,0-.81,0-1.22a10.19,10.19,0,0,0-.06,1.08A11.25,11.25,0,0,0,143,139.43Z"/><path class="d" d="M258.86,105.34c.38,0,.77.13,1.15.19s.95.11,1.42.18Z"/><path class="d" d="M200.88,102a5.7,5.7,0,0,0-2.07,2.15c-1.16,2.53,1.15,5.2,2.11,7.82,0,.1.06.19.1.29a129.61,129.61,0,0,1,25.73-6.85l-1.26.16,2.57-.38-1.31.22a126,126,0,0,1,33.26.1c-.38-.06-.77-.14-1.15-.19l2.57.37c-.47-.07-.94-.12-1.42-.18a139.38,139.38,0,0,1,34.91,10.4l-1.12-.54,2.31,1.06-1.19-.52a162.27,162.27,0,0,1,34.18,21.74l-.92-.79,2,1.64c-.34-.29-.69-.56-1-.85,1.16,1,2.32,2,3.46,3,2,1.82,4.11,3.07,6.85,3.07a9.46,9.46,0,0,0,6.84-3.07,12.46,12.46,0,0,0,2.22-3.76l-.21-.39a10.13,10.13,0,0,1-8.86,6.31c-5.21.25-9.71-5-9.68-10.49a86.6,86.6,0,0,1,.94-11.38,67.33,67.33,0,0,1,1.29-6.77,160.42,160.42,0,0,0-21.48-13.54,149.76,149.76,0,0,0-40.31-14.48,146.17,146.17,0,0,0-23.84-2.72c-3,.73-5.95,1.53-8.84,2.37C224.69,89.52,212,94.17,200.88,102Z"/><path class="d" d="M328.18,136.88l.92.79c.35.29.7.56,1,.85Z"/><path class="d" d="M293.8,115.39l1.12.54,1.19.52Z"/><path class="d" d="M225.49,105.59l1.26-.16,1.31-.22Z"/><path class="d" d="M93.81,317.11c-.06-.42-.09-.84-.14-1.26s-.15-1-.21-1.43C93.58,315.32,93.69,316.21,93.81,317.11Z"/><path class="d" d="M102.83,351.23c-.14-.36-.27-.73-.41-1.08l-.57-1.34C102.18,349.62,102.51,350.42,102.83,351.23Z"/><path class="d" d="M116.38,375c-.24-.33-.47-.67-.71-1s-.54-.7-.81-1.06Z"/><path class="d" d="M106.72,211.57c.18-.44.37-.87.55-1.31s.28-.74.43-1.1C107.37,210,107.05,210.77,106.72,211.57Z"/><path class="d" d="M93.92,265.31c.07-.55.15-1.09.22-1.63,0-.36.08-.71.13-1.06C94.15,263.51,94,264.41,93.92,265.31Z"/><path class="d" d="M323.74,411.86l-1.34.57-1,.44Z"/><path class="d" d="M351.21,399.86a30.7,30.7,0,0,1-2.6-2.24,156.37,156.37,0,0,1-26.21,14.81l1.34-.57-2.32,1,1-.44a200.75,200.75,0,0,1-49.65,13.86l1-.13-2.57.36,1.58-.23a221.29,221.29,0,0,1-46.16,1.39q-6.28-.48-12.52-1.33l1.77.26-2.58-.36.81.1a190.27,190.27,0,0,1-47-13.12c.28.12.55.26.84.38l-2.32-1,1.48.64A152.27,152.27,0,0,1,135,394l1.05.87-2-1.58.91.71a121.17,121.17,0,0,1-19.34-20c.24.32.47.66.71,1l-1.52-2c.27.36.55.7.81,1.06a121.51,121.51,0,0,1-13.25-23.82c.14.35.27.72.41,1.08-.32-.81-.65-1.61-1-2.42l.57,1.34a150.13,150.13,0,0,1-8.75-34.3c0,.42.08.84.14,1.26-.12-.9-.23-1.79-.35-2.69.06.48.14,1,.21,1.43a208.71,208.71,0,0,1-.51-42.92c.26-3.09.6-6.18,1-9.25-.07.54-.15,1.08-.22,1.63.12-.9.23-1.8.35-2.69,0,.35-.09.7-.13,1.06a272.33,272.33,0,0,1,6.16-32.16,184.69,184.69,0,0,1,7-21.26c-.18.44-.37.87-.55,1.31.33-.8.65-1.61,1-2.41-.15.36-.28.74-.43,1.1q3.18-7.68,7-15l-.15.15c-.15.15-.31.28-.47.42s-.17.15-.26.21-.37.28-.56.41l-.18.13-.67.4-.13.07-.64.32-.42.17-.24.1-.37.15a7.09,7.09,0,0,1-2.18.38,7.7,7.7,0,0,1-3-.38,38.76,38.76,0,0,1-8.15-3.94c-.94-.6-1.86-1.24-2.76-1.9a192.39,192.39,0,0,0-13.93,40.21c-1.27,5.68-2.37,11.43-3.35,17.17-3.2,18.77-4.75,38-3.45,57,1.73,25.41,8.16,50.86,21.75,72.27,14.42,22.72,35.81,39.81,59.48,50.92,24.35,11.44,50.62,17.39,77.25,18.75a223.26,223.26,0,0,0,77.31-9.53c24.08-7.49,47.81-19.54,66.24-37.66C367.83,405.48,359.12,405.91,351.21,399.86Z"/><path class="d" d="M136.06,394.82,135,394l-.91-.71Z"/><path class="d" d="M384.07,197.86c-1.3,2.83-1.47,6.52-.32,11.5,5,21.5,13.86,41.63,20.55,62.56,6.8,21.26,9.41,43.46,6.58,64.39.9-3.77,1.67-7.57,2.28-11.41,3.46-21.76,3.08-43.58.22-65.38-2.36-18-6.14-36.15-12.63-53q-2.76-7.18-6-14.16a40.73,40.73,0,0,1-10.26,5.44C384.35,197.8,384.21,197.82,384.07,197.86Z"/><path class="d" d="M167.87,413.61c-.29-.12-.56-.26-.84-.38l-1.48-.64Z"/><path class="d" d="M215.84,426.61l-1.77-.26-.81-.1Z"/><path class="d" d="M273.74,426.16l-1,.13-1.58.23Z"/><path class="d" d="M373.81,372.91,373,374c-.24.32-.46.65-.69,1Z"/><path class="d" d="M404.3,271.92c-6.69-20.93-15.57-41.06-20.55-62.56-1.15-5-1-8.67.32-11.5-5,1.44-10-2.35-11.49-7.44a11.48,11.48,0,0,1,1-8.08,10.33,10.33,0,0,1,5.79-4.81l.81-.33a8.16,8.16,0,0,0-3.71,1.33A10.55,10.55,0,0,0,373,192.36q4.63,8.63,8.39,17.7c-.13-.31-.24-.64-.36-.95l1,2.41c-.2-.49-.41-1-.61-1.46,5.72,14.56,9.32,29.8,11.91,45.26q.72,4.29,1.29,8.6l-.15-1.3c.11.89.23,1.79.34,2.69-.06-.47-.13-.93-.19-1.39a225.35,225.35,0,0,1,1.53,39.72q-.33,6-1,11.91c.05-.38.11-.75.16-1.13-.11.9-.23,1.79-.34,2.69l.18-1.56a150.48,150.48,0,0,1-8.79,34.6c.18-.45.38-.89.56-1.34l-1,2.42c.15-.36.27-.73.42-1.08A121.46,121.46,0,0,1,373,374l.82-1.08-1.51,2c.23-.31.45-.64.69-1a118,118,0,0,1-18.69,19.39l.88-.68-2,1.58,1.08-.9q-2.79,2.21-5.69,4.24a30.7,30.7,0,0,0,2.6,2.24c7.91,6.05,16.62,5.62,24.2,1.18,1.89-1.85,3.73-3.74,5.5-5.72,14.81-16.58,24.78-37.13,30-59C413.71,315.38,411.1,293.18,404.3,271.92Z"/><path class="d" d="M395.21,314.42c0,.38-.11.75-.16,1.13l-.18,1.56C395,316.21,395.1,315.32,395.21,314.42Z"/><path class="d" d="M386.82,348.81c-.18.45-.38.89-.56,1.34s-.27.72-.42,1.08Z"/><path class="d" d="M394.41,262.62l.15,1.3c.06.46.13.92.19,1.39C394.64,264.41,394.52,263.51,394.41,262.62Z"/><path class="d" d="M355.18,392.7l-.88.68-1.08.9Z"/><path class="d" d="M381,209.11c.12.31.23.64.36.95.2.49.41,1,.61,1.46Z"/><path class="d" d="M110.17,177.53l.3.12a10.09,10.09,0,0,1,1.86.79,9.15,9.15,0,0,1,4.27,5.61,12.16,12.16,0,0,1,.33,6.37,9.39,9.39,0,0,1-.57,1.77q5-9.34,10.8-18.11c1.39-2.08,1.58-5.7,1-8.08a10.6,10.6,0,0,0-4.45-6.26,9.12,9.12,0,0,0-7.46-1.06l-2.32,1.06a10.14,10.14,0,0,0-3.47,3.76q-3.37,5.07-6.46,10.35a38.94,38.94,0,0,0,5,3.19C109.36,177.21,109.76,177.38,110.17,177.53Z"/><path class="d" d="M114.86,194.57v0Z"/><path class="d" d="M114.27,195.21h0l.06-.06Z"/><path class="d" d="M112.33,178.44a10.09,10.09,0,0,0-1.86-.79,10.26,10.26,0,0,1,6.13,6.4A9.15,9.15,0,0,0,112.33,178.44Z"/><path class="d" d="M111.2,197.33l-.42.17Z"/><path class="d" d="M112.82,196.41l-.18.13Z"/><path class="d" d="M114.11,195.37l.15-.15h0Z"/><path class="d" d="M110.17,197.75l.37-.15a9.06,9.06,0,0,1-2.55.53A7.09,7.09,0,0,0,110.17,197.75Z"/><path class="d" d="M113.64,195.79l-.26.21C113.47,195.94,113.55,195.86,113.64,195.79Z"/><path class="d" d="M112,196.94l-.13.07Z"/><path class="d" d="M114.86,194.57a9.48,9.48,0,0,0,1.5-2.38l-.4.74A9.58,9.58,0,0,1,114.86,194.57Z"/><path class="d" d="M114.85,194.59c-.17.2-.35.39-.53.57C114.5,195,114.68,194.79,114.85,194.59Z"/><path class="d" d="M100.39,180.21c1.16-2.14,2.35-4.27,3.58-6.36-1-.75-2-1.52-3-2.32l1.26,1.07-2-1.64.7.57c-7.76-6.53-15.45-13.45-21.59-21.79.33.49.67,1,1,1.46l-1.51-2.12c.16.22.34.43.5.66a67.8,67.8,0,0,1-6.5-12q.25.74.54,1.47l-1-2.51c.14.35.29.7.44,1a64.86,64.86,0,0,1-3.19-12.64c.05.44.09.88.14,1.32-.11-.93-.23-1.86-.34-2.79.06.49.13,1,.2,1.47a75.65,75.65,0,0,1,0-15.49c-.07.48-.14,1-.2,1.44.12-.92.23-1.85.35-2.78-.06.45-.1.9-.15,1.34a65.81,65.81,0,0,1,3-12.34c-.13.31-.27.61-.4.93l1-2.51c-.2.53-.39,1-.58,1.58a54.45,54.45,0,0,1,5.13-9.59c-.29.38-.59.74-.86,1.12l1.52-2.12c-.23.33-.44.67-.66,1a61.39,61.39,0,0,1,8.44-9.18c-.38.31-.78.6-1.15.91l2-1.64c-.28.23-.54.49-.81.73a40.4,40.4,0,0,1,6.78-4.34c-.39.15-.78.3-1.17.48l2.31-1.06c-.38.18-.75.38-1.14.58a29.74,29.74,0,0,1,5.34-1.59c-.49,0-1,.09-1.46.15l2.57-.37c-.37.06-.74.14-1.11.22a26.76,26.76,0,0,1,4.82,0c-.48-.1-1-.19-1.44-.26l2.58.37c-.38,0-.76-.08-1.14-.11A28,28,0,0,1,108.09,74c-.37-.19-.73-.39-1.1-.56l2.31,1.06c-.4-.18-.81-.34-1.21-.5a36.5,36.5,0,0,1,6,3.9c-.33-.3-.66-.6-1-.89.65.55,1.3,1.1,2,1.64-.32-.26-.64-.5-1-.75a63.72,63.72,0,0,1,8.51,9.5l-.57-.83,1.51,2.12-.94-1.29c2.55,3.67,4.87,7.51,7.15,11.37a105.43,105.43,0,0,1,6.81,13.51c-.2-.54-.39-1.08-.6-1.61l1,2.5c-.11-.3-.25-.59-.37-.89A71.26,71.26,0,0,1,140,125.65c0-.34-.06-.69-.1-1,.12.93.23,1.86.35,2.79-.08-.58-.16-1.17-.25-1.75.19,1.82.3,3.64.34,5.47.25-2.27,1.22-4.94,2.77-6.33q1.95-1.74,3.93-3.42,5-4.22,10.18-8.06a90.68,90.68,0,0,0-6-16.43,150.18,150.18,0,0,0-10.78-18.53C134.82,70,128.34,62,119.89,57c-9.84-5.89-21.88-7.35-32.45-2.84a50.29,50.29,0,0,0-7.82,4,62.73,62.73,0,0,0-6.48,5.06,59.7,59.7,0,0,0-6.6,6.7,67.64,67.64,0,0,0-14.66,29.6c-3.86,18-1.82,37.22,6.45,53.45A87.64,87.64,0,0,0,75,175.2c2.34,2.32,4.77,4.51,7.22,6.68,3.87,3.43,7.73,7,11.9,10q2.36-5,5-9.85A9.65,9.65,0,0,1,100.39,180.21Z"/><path class="d" d="M136,110.66c.21.53.4,1.07.6,1.61.12.3.26.59.37.89Z"/><path class="d" d="M139.94,124.61c0,.35.06.7.1,1,.09.58.17,1.17.25,1.75C140.17,126.47,140.06,125.54,139.94,124.61Z"/><path class="d" d="M113.12,77c.34.29.67.59,1,.89s.64.49,1,.75C114.42,78.1,113.77,77.55,113.12,77Z"/><path class="d" d="M122.06,86.56l.57.83.94,1.29Z"/><path class="d" d="M150.11,142.83a10.14,10.14,0,0,0,7.3-3.7c-.18.17-.37.32-.56.49a10.59,10.59,0,0,1-6.85,3.07,9.43,9.43,0,0,1-6.85-3.07c-.06-.06-.11-.13-.16-.19.09.11.17.22.27.33A9.47,9.47,0,0,0,150.11,142.83Z"/><path class="d" d="M72.39,98.19c.13-.32.27-.62.4-.93.19-.53.38-1.05.58-1.58Z"/><path class="d" d="M85.21,79.4c.37-.31.77-.6,1.15-.91s.53-.5.81-.73Z"/><path class="d" d="M92,74.63c.39-.18.78-.33,1.17-.48s.76-.4,1.14-.58Z"/><path class="d" d="M77.06,88.79c.27-.38.57-.74.86-1.12s.43-.67.66-1Z"/><path class="d" d="M69.88,126.41c0-.44-.09-.88-.14-1.32s-.14-1-.2-1.47C69.65,124.55,69.77,125.48,69.88,126.41Z"/><path class="d" d="M80.44,151.2c-.34-.48-.68-1-1-1.46-.16-.23-.34-.44-.5-.66Z"/><path class="d" d="M97,72.71c.48-.06,1-.11,1.46-.15s.74-.16,1.11-.22Z"/><path class="d" d="M69.56,111c.06-.48.13-1,.2-1.44s.09-.89.15-1.34C69.79,109.19,69.68,110.12,69.56,111Z"/><path class="d" d="M107,73.43c.37.17.73.37,1.1.56s.81.32,1.21.5Z"/><path class="d" d="M102.28,172.6,101,171.53l-.7-.57Z"/><path class="d" d="M101.86,72.3c.48.07,1,.16,1.44.26s.76.06,1.14.11Z"/><path class="d" d="M73.47,139.2q-.28-.73-.54-1.47c-.15-.34-.3-.69-.44-1Z"/><path class="d" d="M143.15,124.79c-1.55,1.39-2.52,4.06-2.77,6.33,0,.41,0,.81,0,1.22a11.43,11.43,0,0,0,2.57,7.09c0,.06.1.13.16.19a9.43,9.43,0,0,0,6.85,3.07,10.59,10.59,0,0,0,6.85-3.07c.19-.17.38-.32.56-.49a10.5,10.5,0,0,0,2.39-6.79,77.16,77.16,0,0,0-2.54-19q-5.19,3.85-10.18,8.06Q145.1,123,143.15,124.79Z"/><path class="d" d="M110.78,197.5l-.24.1Z"/><path class="d" d="M112.64,196.54l-.67.4Z"/><path class="d" d="M114.11,195.37c-.15.15-.31.28-.47.42C113.8,195.65,114,195.52,114.11,195.37Z"/><path class="d" d="M105,197.75a7.7,7.7,0,0,0,3,.38,10.17,10.17,0,0,1-5.29-1.44,10.64,10.64,0,0,1-4.45-6.27,11.76,11.76,0,0,1,1-8.08c.38-.71.77-1.42,1.16-2.13a9.65,9.65,0,0,0-1.32,1.85q-2.59,4.84-5,9.85c.9.66,1.82,1.3,2.76,1.9A38.76,38.76,0,0,0,105,197.75Z"/><path class="d" d="M111.84,197l-.64.32Z"/><path class="d" d="M113.38,196c-.18.15-.37.28-.56.41C113,196.28,113.2,196.15,113.38,196Z"/><path class="d" d="M109,177c.27.15.55.28.83.41s.46.12.69.2l-.3-.12C109.76,177.38,109.36,177.21,109,177Z"/><path class="d" d="M116.6,184.05a11.16,11.16,0,0,1-.8,8.22c-.52,1-1,2-1.53,2.94l0-.05c.18-.18.36-.37.53-.57v0a9.58,9.58,0,0,0,1.1-1.64l.4-.74a9.39,9.39,0,0,0,.57-1.77A12.16,12.16,0,0,0,116.6,184.05Z"/><path class="d" d="M109.65,177.42l-1.64-.75c.31.14.63.25.94.37a38.94,38.94,0,0,1-5-3.19c-1.23,2.09-2.42,4.22-3.58,6.36A9.55,9.55,0,0,1,109.65,177.42Z"/><path class="d" d="M108,176.67l1.64.75.13,0c-.28-.13-.56-.26-.83-.41S108.32,176.81,108,176.67Z"/><path class="d" d="M110.32,177.72l-.54-.27-.13,0Z"/><path class="d" d="M115.8,192.27a11.16,11.16,0,0,0,.8-8.22,10.26,10.26,0,0,0-6.13-6.4c-.23-.08-.46-.14-.69-.2l.54.27-.67-.3a9.55,9.55,0,0,0-9.26,2.79c-.39.71-.78,1.42-1.16,2.13a11.76,11.76,0,0,0-1,8.08,10.64,10.64,0,0,0,4.45,6.27,10.17,10.17,0,0,0,5.29,1.44,9.06,9.06,0,0,0,2.55-.53l.24-.1.42-.17.64-.32.13-.07.67-.4.18-.13c.19-.13.38-.26.56-.41l.26-.21c.16-.14.32-.27.47-.42l.16-.16C114.77,194.23,115.28,193.24,115.8,192.27Z"/><path class="d" d="M365.94,88.68l.94-1.28c.2-.28.38-.57.58-.84Z"/><path class="d" d="M385.31,72.65l0,0-.25,0Z"/><path class="d" d="M374.44,78.64c.31-.26.63-.5.95-.75l1-.89Z"/><path class="d" d="M380.21,74.49c.4-.18.81-.34,1.22-.5s.72-.39,1.1-.56Z"/><path class="d" d="M337.76,118.64q4.33,3.48,8.49,7.2c1.86,1.66,2.65,4.5,2.81,7,0-.18,0-.35,0-.53a65.07,65.07,0,0,1,.39-6.69c-.09.58-.18,1.17-.26,1.75.12-.93.24-1.86.35-2.79,0,.35-.06.7-.09,1a70.5,70.5,0,0,1,3.45-13.38c-.13.3-.26.59-.38.89l1-2.5c-.2.53-.4,1.07-.59,1.61a102.9,102.9,0,0,1,6.81-13.51c2.27-3.86,4.59-7.7,7.14-11.36l-.94,1.28,1.52-2.12c-.2.27-.38.56-.58.84a63.3,63.3,0,0,1,8.51-9.51c-.32.25-.64.49-.95.75l2-1.64-1,.89a36.17,36.17,0,0,1,6-3.9c-.41.16-.82.32-1.22.5l2.32-1.06c-.38.17-.74.37-1.1.56a27.68,27.68,0,0,1,3.65-1.17l.23-.17-.23,0,.25,0c11-8.17,24.41-11.07,36.64-3.82A59.55,59.55,0,0,0,409.62,58c-9.62-6.19-21.55-8.48-32.33-4.63-9.32,3.33-17.17,10.11-23.37,18.22a163.94,163.94,0,0,0-13,20.21,93.32,93.32,0,0,0-8.24,19.55l.76,1C335,114.41,336.37,116.52,337.76,118.64Z"/><path class="d" d="M394,190.63c.27.56.54,1.12.8,1.68,1.39-1,2.75-2,4.08-3.13-1.05.33-2.1.65-3.16.94C395.08,190.28,394.51,190.45,394,190.63Z"/><path class="d" d="M349.22,127.4c.08-.58.17-1.17.26-1.75,0-.34,0-.69.09-1C349.46,125.54,349.34,126.47,349.22,127.4Z"/><path class="d" d="M352.55,113.16c.12-.3.25-.59.38-.89.19-.54.39-1.08.59-1.61Z"/><path class="d" d="M410.88,178.66a101.47,101.47,0,0,0,16.9-19.79c9.39-14.57,13.32-33,11.2-50.61a77.39,77.39,0,0,0-3.32-15.86,64,64,0,0,0-7.76-16A83.44,83.44,0,0,0,422,68.81c-12.23-7.25-25.61-4.35-36.64,3.82l2.32-.33c-.48.07-1,.16-1.43.26a26.76,26.76,0,0,1,4.82,0c-.37-.08-.74-.16-1.12-.22l2.57.37c-.48-.06-1-.11-1.45-.15a29.64,29.64,0,0,1,5.33,1.59c-.38-.2-.75-.4-1.14-.58l2.31,1.06c-.39-.18-.78-.33-1.17-.48a40.4,40.4,0,0,1,6.78,4.34c-.27-.24-.53-.49-.81-.73l2,1.64c-.37-.31-.76-.6-1.15-.91a61.45,61.45,0,0,1,8.45,9.18c-.22-.33-.43-.67-.66-1l1.51,2.12c-.27-.38-.57-.74-.85-1.12a55.07,55.07,0,0,1,5.12,9.59c-.18-.53-.37-1.05-.58-1.58l1,2.51c-.12-.32-.27-.62-.4-.93a65,65,0,0,1,3,12.34c-.05-.44-.09-.89-.14-1.34.11.93.23,1.86.34,2.78-.06-.48-.13-1-.2-1.44a75.65,75.65,0,0,1,0,15.49c.07-.49.15-1,.21-1.47-.12.93-.23,1.86-.35,2.79.06-.44.1-.88.14-1.32a64.84,64.84,0,0,1-3.18,12.64c.14-.34.29-.69.43-1l-1,2.51c.19-.49.37-1,.55-1.47a68.49,68.49,0,0,1-6.51,12l.51-.66c-.51.7-1,1.41-1.52,2.12.34-.48.68-1,1-1.46-6.14,8.34-13.83,15.26-21.58,21.79l.7-.57c-.66.54-1.31,1.09-2,1.64l1.26-1.07a48.58,48.58,0,0,1-7.94,5.51c.32-.12.64-.23.95-.37l-1.14.52a9.85,9.85,0,0,1,9.33,5c1.5,2.78,2.9,5.61,4.25,8.47.56-.18,1.13-.35,1.72-.51,1.06-.29,2.11-.61,3.16-.94l.14-.11Q405,184,410.88,178.66Z"/><path class="d" d="M385.08,72.82c.38-.1.76-.18,1.14-.26-.3,0-.61,0-.91.09Z"/><path class="d" d="M380.26,177.2l.3-.16-.4.16Z"/><path class="d" d="M337.76,118.64c-1.39-2.12-2.81-4.23-4.3-6.28l-.76-1c-.27.94-.51,1.89-.75,2.85Q334.89,116.35,337.76,118.64Z"/><path class="d" d="M386.22,72.56c.47-.1.95-.19,1.43-.26l-2.32.33,0,0C385.61,72.61,385.92,72.59,386.22,72.56Z"/><path class="d" d="M389.2,171l-.7.57-1.26,1.07C387.89,172.05,388.54,171.5,389.2,171Z"/><path class="d" d="M380.37,177.19l1.14-.52c-.31.14-.63.25-.95.37l-.3.16Z"/><path class="d" d="M395.23,73.57c.39.18.76.38,1.14.58s.78.3,1.17.48Z"/><path class="d" d="M416.14,95.68c.21.53.4,1,.58,1.58.13.31.28.61.4.93Z"/><path class="d" d="M402.34,77.76c.28.24.54.49.81.73s.78.6,1.15.91Z"/><path class="d" d="M389.92,72.34c.38.06.75.14,1.12.22s1,.09,1.45.15Z"/><path class="d" d="M419.61,108.26c.05.45.09.9.14,1.34s.14,1,.2,1.44C419.84,110.12,419.72,109.19,419.61,108.26Z"/><path class="d" d="M410.59,149.08l-.51.66c-.33.49-.67,1-1,1.46C409.58,150.49,410.08,149.78,410.59,149.08Z"/><path class="d" d="M417,136.69c-.14.35-.29.7-.43,1-.18.49-.36,1-.55,1.47Z"/><path class="d" d="M420,123.62c-.06.49-.14,1-.21,1.47s-.08.88-.14,1.32C419.75,125.48,419.86,124.55,420,123.62Z"/><path class="d" d="M410.94,86.67c.23.33.44.67.66,1s.58.74.85,1.12Z"/><path class="d" d="M346.25,125.84q-4.15-3.72-8.49-7.2c3.77,5.78,7.2,11.78,10.5,17.88a10.81,10.81,0,0,0,.8-3.65C348.9,130.34,348.11,127.5,346.25,125.84Z"/><path class="d" d="M332,114.19a67.33,67.33,0,0,0-1.29,6.77,86.6,86.6,0,0,0-.94,11.38c0,5.49,4.47,10.74,9.68,10.49a10.13,10.13,0,0,0,8.86-6.31c-3.3-6.1-6.73-12.1-10.5-17.88Q334.9,116.35,332,114.19Z"/><path class="d" d="M384.07,197.86c.14,0,.28-.06.42-.11a40.73,40.73,0,0,0,10.26-5.44c-.26-.56-.53-1.12-.8-1.68C389.09,192.17,385.69,194.33,384.07,197.86Z"/><path class="d" d="M379.19,177.72l1.18-.53h-.11C379.9,177.38,379.55,177.56,379.19,177.72Z"/><path class="d" d="M380.26,177.2h-.1l-.81.33a10.33,10.33,0,0,0-5.79,4.81,11.48,11.48,0,0,0-1,8.08c1.52,5.09,6.46,8.88,11.49,7.44,1.62-3.53,5-5.69,9.88-7.23-1.35-2.86-2.75-5.69-4.25-8.47a9.85,9.85,0,0,0-9.33-5l-1.18.53C379.55,177.56,379.9,177.38,380.26,177.2Z"/><path class="d" d="M221.84,313.56c-.18,1-.28,1.74-.32,2.22-1,10.3,6,18.87,12.55,22.68a20.63,20.63,0,0,0,9.83,2.94,20.91,20.91,0,0,0,11.15-2.94c7.13-4.08,13.13-12.84,12.55-22.68-.12-1.9-.53-8.92-5.76-13.65-4.85-4.39-10.94-4.2-17.94-4-6.32.19-11.16.34-15.59,4l-.23.2a79.91,79.91,0,0,0-5,8.86C222.67,311.93,222.26,312.72,221.84,313.56Z"/><path class="d" d="M221.84,313.56c.42-.84.83-1.63,1.22-2.37a79.91,79.91,0,0,1,5-8.86A19.83,19.83,0,0,0,221.84,313.56Z"/><path class="d" d="M232.29,379.79c-.34-.15-.67-.32-1-.48l-.73-.29Z"/><path class="d" d="M241.54,382.16l-1-.18-.9-.09Z"/><path class="d" d="M284.48,278.21a45.74,45.74,0,0,0-23-11.87,74.66,74.66,0,0,0-7.44-1c-3.15-.26-6.18,2.49-7,5.66a61.32,61.32,0,0,1,19.27,2.5c5.51,1.68,10.88,4.2,14.89,8.3,6.44,6.59,6.75,16.5,4.26,25.12a76.75,76.75,0,0,1,3.38,14.17l-.12-1.12.26,2c0-.31-.09-.61-.14-.92a75.47,75.47,0,0,1,.06,16.93c.05-.33.1-.65.14-1-.08.68-.17,1.36-.26,2,.05-.35.08-.71.12-1.06a66.8,66.8,0,0,1-3.52,13.74c.1-.23.21-.46.31-.7-.25.61-.49,1.22-.73,1.83l.42-1.13a59.53,59.53,0,0,1-6.1,11.21c.19-.24.33-.4.21-.25l-.19.26-.11.14a2.33,2.33,0,0,1-.46.63s0,0,0,0c-.45.58-.9,1.15-1.37,1.71A62,62,0,0,1,273,370c-.92.89-1.86,1.76-2.84,2.59l-.37.32.09-.07c1.23-1-1.11.93-.42.35l.33-.28c-.55.43-1.11.86-1.68,1.28a52.33,52.33,0,0,1-8.23,4.89l.81-.33-1.74.77.93-.44A45.13,45.13,0,0,1,250,382l.93-.1-1.93.28c.33,0,.66-.13,1-.18a43.38,43.38,0,0,1-9.53,0l1,.18-1.93-.27.9.09a42.57,42.57,0,0,1-9.23-2.67c.34.16.67.33,1,.48l-1.74-.77.73.29a50.62,50.62,0,0,1-7.69-4.55c-3.15-2.26-8.19-.73-9.94,2.76A8.12,8.12,0,0,0,216.26,388c13.57,9.74,31.23,12.42,46.68,6.24a62.45,62.45,0,0,0,25.92-19.59,72.06,72.06,0,0,0,14.81-40.11,83.51,83.51,0,0,0-7-38.7A55,55,0,0,0,284.48,278.21Z"/><path class="d" d="M289,337c0,.33-.09.65-.14,1s-.07.71-.12,1.06C288.8,338.4,288.89,337.72,289,337Z"/><path class="d" d="M279.12,363.12a1.51,1.51,0,0,0,.09-.14h0c-.2.27-.47.62-.54.74l0,0Z"/><path class="d" d="M285.62,351.06c-.1.24-.21.47-.31.7l-.42,1.13C285.13,352.28,285.37,351.67,285.62,351.06Z"/><path class="d" d="M288.65,320l.12,1.12c.05.31.1.61.14.92Z"/><path class="d" d="M260.72,378.77l-.81.33-.93.44Z"/><path class="d" d="M251,381.87l-.93.1c-.34,0-.67.13-1,.18Z"/><path class="d" d="M269.91,372.86l-.09.07-.33.28C268.8,373.79,271.14,371.88,269.91,372.86Z"/><path class="d" d="M272.71,287.72l.19.16.25.18C273.78,288.55,271.56,286.73,272.71,287.72Z"/><path class="d" d="M284.3,303.94l.32.87c.14.32.28.64.41,1C284.78,305.16,284.54,304.55,284.3,303.94Z"/><path class="d" d="M278.64,293.93l.26.36.09.11C279.81,295.47,277.86,292.82,278.64,293.93Z"/><path class="d" d="M281.13,281.8c-4-4.1-9.38-6.62-14.89-8.3A61.32,61.32,0,0,0,247,271a6.55,6.55,0,0,0-.24,2,7.67,7.67,0,0,0,7.27,7.67c.82.06,1.64.17,2.46.27l-.88-.16,1.93.28-1.05-.12a43.93,43.93,0,0,1,9.64,2.72c-.28-.14-.55-.29-.84-.42L267,284c-.3-.13-.6-.23-.9-.35a39.84,39.84,0,0,1,6.8,4.21l-.19-.16c-1.15-1,1.07.83.44.34l-.25-.18c.23.2.47.4.69.61.5.44,1,.91,1.45,1.38a39.8,39.8,0,0,1,2.7,3c.4.48.78,1,1.16,1.46l-.26-.36c-.78-1.11,1.17,1.54.35.47l-.09-.11.32.46c.76,1.11,1.47,2.25,2.14,3.41a58.46,58.46,0,0,1,3.26,6.65l-.32-.87c.24.61.48,1.22.73,1.83-.13-.32-.27-.64-.41-1,.27.7.53,1.4.77,2.11C287.88,298.3,287.57,288.39,281.13,281.8Z"/><path class="d" d="M255.58,280.79l.88.16,1.05.12Z"/><path class="d" d="M265.26,283.25c.29.13.56.28.84.42s.6.22.9.35Z"/><path class="d" d="M193.13,354.17a7.09,7.09,0,0,1-3-.85c.64,1.68,1.33,3.35,2.11,5a7.28,7.28,0,0,0,4.34,3.27,7.53,7.53,0,0,0,5.6-.72,7.25,7.25,0,0,0,3.34-4.25,8,8,0,0,0-.74-5.49l-.51-1.12.32.78c-.24-.56-.49-1.13-.73-1.7.13.31.28.61.41.92-.27-.67-.53-1.35-.77-2l-.48.53C200.34,351.38,197,354.37,193.13,354.17Z"/><path class="d" d="M204.59,350.77l-.32-.78c-.13-.31-.28-.61-.41-.92C204.1,349.64,204.35,350.21,204.59,350.77Z"/><path class="d" d="M200.78,337.78c0-.27-.06-.55-.1-.83s-.11-.71-.16-1.06C200.61,336.52,200.69,337.15,200.78,337.78Z"/><path class="d" d="M200.78,337.78c-.09-.63-.17-1.26-.26-1.89,0,.35.11.71.16,1.06-.18-1.46-.31-2.92-.38-4.39,0,.46,0,.92,0,1.37a7.7,7.7,0,0,1-7.27,7.87c-3.65.18-6.49-3.05-7.13-6.7a67.14,67.14,0,0,0,4.2,18.22,7.09,7.09,0,0,0,3,.85c3.88.2,7.21-2.79,9.89-5.68l.48-.53a59.71,59.71,0,0,1-2.82-11C200.72,337.23,200.74,337.51,200.78,337.78Z"/><path class="d" d="M185.73,331.93c0,.18,0,.36,0,.53l0-1C185.74,331.6,185.73,331.76,185.73,331.93Z"/><path class="d" d="M211.46,280.51a6.79,6.79,0,0,0-9,1,62.05,62.05,0,0,0-7.95,11.9A66.55,66.55,0,0,1,211.46,280.51Z"/><path class="d" d="M185.74,331.44c.16-3.74,3.6-6.46,7.26-6.63,4-.17,7.12,3.41,7.26,7.12,0,.21,0,.42,0,.63a76.15,76.15,0,0,1,.46-10.24c-.06.42-.13.83-.18,1.25l.26-2.09c0,.28-.05.56-.08.84a77,77,0,0,1,4-16c-.13.32-.27.64-.39,1,.24-.62.49-1.25.73-1.88-.12.31-.22.62-.34.92a62.81,62.81,0,0,1,3.63-7.47c.71-1.24,1.48-2.43,2.27-3.61l-.08.11c-.91,1.18,1.07-1.56.22-.32l-.14.21.63-.82c.48-.61,1-1.21,1.48-1.8,2.58-3,3-8.17,0-11.12a7.82,7.82,0,0,0-1.29-1,66.55,66.55,0,0,0-16.94,12.92,83.43,83.43,0,0,0-8.38,29.6A76.13,76.13,0,0,0,185.74,331.44Z"/><path class="d" d="M200.58,323.57c0-.42.12-.83.18-1.25s.05-.56.08-.84Z"/><path class="d" d="M185.8,333.93a11,11,0,0,0,.13,1.17c-.07-.88-.12-1.76-.16-2.64C185.78,333,185.78,333.44,185.8,333.93Z"/><path class="d" d="M210.56,295.38l.08-.11.14-.21C211.63,293.82,209.65,296.56,210.56,295.38Z"/><path class="d" d="M204.35,307.31c.12-.32.26-.64.39-1s.22-.61.34-.92C204.84,306.06,204.59,306.69,204.35,307.31Z"/><path class="d" d="M193,324.81c-3.66.17-7.1,2.89-7.26,6.63l0,1c0,.88.09,1.76.16,2.64.64,3.65,3.48,6.88,7.13,6.7a7.7,7.7,0,0,0,7.27-7.87c0-.45,0-.91,0-1.37,0-.21,0-.42,0-.63C200.12,328.22,197,324.64,193,324.81Z"/></svg>