<?xml version="1.0" encoding="utf-8"?>
<!-- Generator: Adobe Illustrator 24.3.2, SVG Export Plug-In . SVG Version: 6.00 Build 0)  -->
<svg version="1.1" id="Layer_1" xmlns="http://www.w3.org/2000/svg" xmlns:xlink="http://www.w3.org/1999/xlink" x="0px" y="0px"
	 viewBox="0 0 310.8 363.6" style="enable-background:new 0 0 310.8 363.6;" xml:space="preserve">
<style type="text/css">
	.st0{fill:#DE7469;}
</style>
<path class="st0" d="M138.6,381.7c0,0-13-23.2-14.2-25c-23.9-35-43.2-73.4-62.7-111c-20.5-39.5-40.1-79.6-56.8-121
	c-2.3-5.7-4.6-11.7-4.3-17.9c0.4-9,6.4-17.1,14.1-21.7s17-6.1,26-6c33.5,0.2,60.3,20.8,79,47c1.8,2.5,10.6,16.4,10.8,16.6
	c2.7,4.7,69.5-68.4,74.6-75c7.9-10.2,15.2-20.9,24.5-29.8c16.3-15.7,38.4-22.3,60.4-15.9c6.4,1.9,12.7,5,16.4,10.5
	c3.5,5.2,4,11.8,3.9,18c-0.9,53.8-33,112.2-57.5,158.7c-26.3,49.8-57.4,97.1-91.5,141.9C158.6,354.6,138.6,381.7,138.6,381.7z"/>
</svg>
